<svg width="22" height="23" viewBox="0 0 22 23" fill="none" xmlns="http://www.w3.org/2000/svg">
<path fill-rule="evenodd" clip-rule="evenodd" d="M2.5 2.29614C2.22386 2.29614 2 2.52 2 2.79614V19.7961C2 20.0723 2.22386 20.2961 2.5 20.2961H6V2.29614H2.5ZM2.5 0.296143C1.11929 0.296143 0 1.41543 0 2.79614V19.7961C0 21.1769 1.11929 22.2961 2.5 22.2961H19.5C20.8807 22.2961 22 21.1769 22 19.7961V2.79614C22 1.41543 20.8807 0.296143 19.5 0.296143H2.5ZM8 2.29614V20.2961H19.5C19.7761 20.2961 20 20.0723 20 19.7961V2.79614C20 2.52 19.7761 2.29614 19.5 2.29614H8ZM15.7071 8.58904C16.0976 8.97956 16.0976 9.61273 15.7071 10.0032L14.4142 11.2961L15.7071 12.589C16.0976 12.9796 16.0976 13.6127 15.7071 14.0032C15.3166 14.3938 14.6834 14.3938 14.2929 14.0032L12.2929 12.0032C11.9024 11.6127 11.9024 10.9796 12.2929 10.589L14.2929 8.58904C14.6834 8.19851 15.3166 8.19851 15.7071 8.58904Z" fill="#535959"/>
</svg>
