<svg width="44" height="44" viewBox="0 0 44 44" fill="none" xmlns="http://www.w3.org/2000/svg">
<rect x="0.555298" y="0.597794" width="43.0221" height="43.0221" rx="21.511" fill="#E1FAE4"/>
<path d="M31.2853 26.2062V18.0115C31.2849 17.6522 31.1901 17.2994 31.0103 16.9883C30.8305 16.6773 30.5721 16.419 30.261 16.2394L23.0906 12.1421C22.7792 11.9622 22.4259 11.8676 22.0663 11.8676C21.7067 11.8676 21.3534 11.9622 21.042 12.1421L13.8716 16.2394C13.5605 16.419 13.3021 16.6773 13.1223 16.9883C12.9425 17.2994 12.8477 17.6522 12.8473 18.0115V26.2062C12.8477 26.5654 12.9425 26.9183 13.1223 27.2293C13.3021 27.5403 13.5605 27.7986 13.8716 27.9783L21.042 32.0756C21.3534 32.2554 21.7067 32.3501 22.0663 32.3501C22.4259 32.3501 22.7792 32.2554 23.0906 32.0756L30.261 27.9783C30.5721 27.7986 30.8305 27.5403 31.0103 27.2293C31.1901 26.9183 31.2849 26.5654 31.2853 26.2062Z" stroke="#20A049" stroke-width="2.04867" stroke-linecap="round" stroke-linejoin="round"/>
<path d="M13.1239 16.9471L22.0663 22.12L31.0088 16.9471" stroke="#20A049" stroke-width="2.04867" stroke-linecap="round" stroke-linejoin="round"/>
<path d="M22.0664 32.4341V22.1088" stroke="#20A049" stroke-width="2.04867" stroke-linecap="round" stroke-linejoin="round"/>
</svg>
