<svg width="23" height="22" viewBox="0 0 23 22" fill="none" xmlns="http://www.w3.org/2000/svg">
<path fill-rule="evenodd" clip-rule="evenodd" d="M0.5 2.5C0.5 1.11929 1.61929 0 3 0H20C21.3807 0 22.5 1.1193 22.5 2.5V19.5C22.5 20.8807 21.3807 22 20 22H3C1.6193 22 0.5 20.8807 0.5 19.5V2.5ZM14.5 2H16.5V20H14.5V2ZM6.79289 8.29289C7.18342 7.90237 7.81658 7.90237 8.20711 8.29289L10.2071 10.2929C10.5976 10.6834 10.5976 11.3166 10.2071 11.7071L8.20711 13.7071C7.81658 14.0976 7.18342 14.0976 6.79289 13.7071C6.40237 13.3166 6.40237 12.6834 6.79289 12.2929L8.08579 11L6.79289 9.70711C6.40237 9.31658 6.40237 8.68342 6.79289 8.29289Z" fill="#535959"/>
</svg>
