<svg width="280" height="162" viewBox="0 0 280 162" fill="none" xmlns="http://www.w3.org/2000/svg">
<g opacity="0.22">
<path d="M136.949 153.009V118.82C136.949 117.829 136.167 116.937 135.09 116.937H118.852C117.874 116.937 116.994 117.73 116.994 118.82V144.883C116.994 145.874 116.211 146.766 115.135 146.766H95.1796C94.2014 146.766 93.321 145.973 93.321 144.883V83.3427C93.321 82.3517 92.5384 81.4598 91.4624 81.4598H71.9961C71.0179 81.4598 70.1375 82.2526 70.1375 83.3427V128.036C70.1375 129.027 69.3549 129.919 68.2789 129.919H60.1597C59.1815 129.919 58.3012 129.126 58.3012 128.036V79.2796C58.3012 77.694 56.5404 76.9012 55.3665 77.7931L40.6934 89.685C40.3021 90.0814 40.0087 90.5769 40.0087 91.1715V101.379C40.0087 102.37 39.2261 103.262 38.1501 103.262H13.4992C12.521 103.262 11.6406 104.054 11.6406 105.144V155.982C11.6406 156.973 12.4232 157.865 13.4992 157.865H135.188C136.166 157.865 137.047 157.072 137.047 155.982V153.009H136.949Z" fill="#D6EDD6"/>
<path d="M0 135.766V159.847C0 160.64 0.586923 161.234 1.36949 161.234H147.807C148.59 161.234 149.177 160.64 149.177 159.847V138.739C149.177 137.946 148.59 137.352 147.807 137.352H138.319C137.536 137.352 136.949 137.946 136.949 138.739V146.37C136.949 147.162 136.362 147.757 135.58 147.757H125.602C124.819 147.757 124.232 147.162 124.232 146.37V111.388C124.232 110.595 123.646 110 122.863 110H114.255C113.472 110 112.885 110.595 112.885 111.388V139.234C112.885 140.027 112.298 140.622 111.516 140.622C110.733 140.622 110.146 140.027 110.146 139.234V90.6759C110.146 89.8831 109.559 89.2885 108.777 89.2885H88.3322C87.5496 89.2885 86.9627 89.8831 86.9627 90.6759V154.793C86.9627 155.586 86.3758 156.18 85.5932 156.18H76.985C76.2024 156.18 75.6155 155.586 75.6155 154.793V120.207C75.6155 119.415 75.0285 118.82 74.246 118.82H53.508C52.7254 118.82 52.1385 119.415 52.1385 120.207V145.874C52.1385 146.667 51.5516 147.261 50.769 147.261H36.7806C35.9981 147.261 35.4111 146.667 35.4111 145.874V85.82C35.4111 85.0272 34.8242 84.4326 34.0416 84.4326H16.5317C15.7491 84.4326 15.1622 85.0272 15.1622 85.82V132.991C15.1622 133.784 14.5753 134.379 13.7927 134.379H1.36949C0.586923 134.478 0 135.072 0 135.766Z" fill="#CCE2CC"/>
<path d="M89.9984 95.4233H106.628V93.4414H89.9984V95.4233Z" fill="#DADFE3"/>
<path d="M89.9984 100.456H106.628V98.4736H89.9984V100.456Z" fill="#DADFE3"/>
<path d="M89.9984 105.488H106.628V103.506H89.9984V105.488Z" fill="#DADFE3"/>
<path d="M89.9984 110.52H106.628V108.538H89.9984V110.52Z" fill="#DADFE3"/>
<path d="M89.9984 115.552H106.628V113.57H89.9984V115.552Z" fill="#DADFE3"/>
<path d="M89.9984 120.584H106.628V118.602H89.9984V120.584Z" fill="#DADFE3"/>
<path d="M89.9984 125.617H106.628V123.635H89.9984V125.617Z" fill="#DADFE3"/>
<path d="M89.9984 130.649H106.628V128.667H89.9984V130.649Z" fill="#DADFE3"/>
<path d="M89.9984 135.78H106.628V133.798H89.9984V135.78Z" fill="#DADFE3"/>
<path d="M71.2732 123.62H73.7188V121.142H71.2732V123.62Z" fill="#DADFE3"/>
<path d="M67.0672 123.62H69.5127V121.142H67.0672V123.62Z" fill="#DADFE3"/>
<path d="M62.8611 123.62H65.3066V121.142H62.8611V123.62Z" fill="#DADFE3"/>
<path d="M58.6551 123.62H61.1006V121.142H58.6551V123.62Z" fill="#DADFE3"/>
<path d="M54.449 123.62H56.8945V121.142H54.449V123.62Z" fill="#DADFE3"/>
<path d="M71.2732 127.669H73.7188V125.191H71.2732V127.669Z" fill="#DADFE3"/>
<path d="M67.0672 127.669H69.5127V125.191H67.0672V127.669Z" fill="#DADFE3"/>
<path d="M62.8611 127.669H65.3066V125.191H62.8611V127.669Z" fill="#DADFE3"/>
<path d="M58.6551 127.669H61.1006V125.191H58.6551V127.669Z" fill="#DADFE3"/>
<path d="M54.449 127.669H56.8945V125.191H54.449V127.669Z" fill="#DADFE3"/>
<path d="M71.2732 131.619H73.7188V129.142H71.2732V131.619Z" fill="#DADFE3"/>
<path d="M67.0672 131.619H69.5127V129.142H67.0672V131.619Z" fill="#DADFE3"/>
<path d="M62.8611 131.619H65.3066V129.142H62.8611V131.619Z" fill="#DADFE3"/>
<path d="M58.6551 131.619H61.1006V129.142H58.6551V131.619Z" fill="#DADFE3"/>
<path d="M54.449 131.619H56.8945V129.142H54.449V131.619Z" fill="#DADFE3"/>
<path d="M71.2732 135.668H73.7188V133.191H71.2732V135.668Z" fill="#DADFE3"/>
<path d="M67.0672 135.668H69.5127V133.191H67.0672V135.668Z" fill="#DADFE3"/>
<path d="M62.8611 135.668H65.3066V133.191H62.8611V135.668Z" fill="#DADFE3"/>
<path d="M58.6551 135.668H61.1006V133.191H58.6551V135.668Z" fill="#DADFE3"/>
<path d="M54.449 135.668H56.8945V133.191H54.449V135.668Z" fill="#DADFE3"/>
<path d="M71.2732 139.718H73.7188V137.241H71.2732V139.718Z" fill="#DADFE3"/>
<path d="M67.0672 139.718H69.5127V137.241H67.0672V139.718Z" fill="#DADFE3"/>
<path d="M62.8611 139.718H65.3066V137.241H62.8611V139.718Z" fill="#DADFE3"/>
<path d="M58.6551 139.718H61.1006V137.241H58.6551V139.718Z" fill="#DADFE3"/>
<path d="M54.449 139.718H56.8945V137.241H54.449V139.718Z" fill="#DADFE3"/>
<path d="M226.357 157.865C227.629 157.865 228.607 156.874 228.607 155.586V105.64C228.607 104.352 227.629 103.361 226.357 103.361H202.293C201.022 103.361 200.043 102.37 200.043 101.082V81.9555C200.043 79.8744 197.5 78.7843 196.033 80.3699L182.24 95.6312C181.849 96.0276 181.653 96.6222 181.653 97.2168V127.739C181.653 129.028 180.675 130.019 179.403 130.019H172.165C170.893 130.019 169.915 129.028 169.915 127.739V83.9375C169.915 82.6492 168.936 81.6582 167.665 81.6582H149.177C147.905 81.6582 146.927 82.6492 146.927 83.9375V157.865H226.357Z" fill="#D6EDD6"/>
<path d="M240.248 136.063V160.244C240.248 161.036 239.661 161.631 238.878 161.631H92.4408C91.6582 161.631 91.0713 161.036 91.0713 160.244V139.135C91.0713 138.343 91.6582 137.748 92.4408 137.748H101.929C102.712 137.748 103.299 138.343 103.299 139.135V146.766C103.299 147.559 103.886 148.153 104.668 148.153H114.646C115.429 148.153 116.016 147.559 116.016 146.766V111.784C116.016 110.991 116.603 110.397 117.385 110.397H125.993C126.776 110.397 127.363 110.991 127.363 111.784V139.631C127.363 140.424 127.95 141.018 128.732 141.018C129.515 141.018 130.102 140.424 130.102 139.631V91.0724C130.102 90.2796 130.689 89.685 131.471 89.685H151.916C152.698 89.685 153.285 90.2796 153.285 91.0724V155.19C153.285 155.982 153.872 156.577 154.655 156.577H163.263C164.046 156.577 164.633 155.982 164.633 155.19V120.604C164.633 119.811 165.219 119.217 166.002 119.217H186.74C187.523 119.217 188.11 119.811 188.11 120.604V146.271C188.11 147.063 188.696 147.658 189.479 147.658H203.565C204.348 147.658 204.935 147.063 204.935 146.271V86.2165C204.935 85.4237 205.522 84.8291 206.304 84.8291H223.814C224.597 84.8291 225.184 85.4237 225.184 86.2165V133.388C225.184 134.18 225.771 134.775 226.553 134.775H238.976C239.661 134.775 240.248 135.37 240.248 136.063Z" fill="#CCE2CC"/>
<path d="M149.861 93.6489H132.938V95.6309H149.861V93.6489Z" fill="#DADFE3"/>
<path d="M149.861 98.7031H132.938V100.685H149.861V98.7031Z" fill="#DADFE3"/>
<path d="M149.861 103.757H132.938V105.739H149.861V103.757Z" fill="#DADFE3"/>
<path d="M149.861 108.812H132.938V110.794H149.861V108.812Z" fill="#DADFE3"/>
<path d="M149.861 113.865H132.938V115.847H149.861V113.865Z" fill="#DADFE3"/>
<path d="M149.861 118.919H132.938V120.901H149.861V118.919Z" fill="#DADFE3"/>
<path d="M149.861 123.974H132.938V125.956H149.861V123.974Z" fill="#DADFE3"/>
<path d="M149.861 129.027H132.938V131.009H149.861V129.027Z" fill="#DADFE3"/>
<path d="M149.861 134.082H132.938V136.064H149.861V134.082Z" fill="#DADFE3"/>
<path d="M168.937 121.496H166.491V123.974H168.937V121.496Z" fill="#DADFE3"/>
<path d="M173.143 121.496H170.697V123.974H173.143V121.496Z" fill="#DADFE3"/>
<path d="M177.349 121.496H174.903V123.974H177.349V121.496Z" fill="#DADFE3"/>
<path d="M181.556 121.496H179.11V123.974H181.556V121.496Z" fill="#DADFE3"/>
<path d="M185.762 121.496H183.316V123.974H185.762V121.496Z" fill="#DADFE3"/>
<path d="M168.937 125.46H166.491V127.937H168.937V125.46Z" fill="#DADFE3"/>
<path d="M173.143 125.46H170.697V127.937H173.143V125.46Z" fill="#DADFE3"/>
<path d="M177.349 125.46H174.903V127.937H177.349V125.46Z" fill="#DADFE3"/>
<path d="M181.556 125.46H179.11V127.937H181.556V125.46Z" fill="#DADFE3"/>
<path d="M185.762 125.46H183.316V127.937H185.762V125.46Z" fill="#DADFE3"/>
<path d="M168.937 129.523H166.491V132H168.937V129.523Z" fill="#DADFE3"/>
<path d="M173.143 129.523H170.697V132H173.143V129.523Z" fill="#DADFE3"/>
<path d="M177.349 129.523H174.903V132H177.349V129.523Z" fill="#DADFE3"/>
<path d="M181.556 129.523H179.11V132H181.556V129.523Z" fill="#DADFE3"/>
<path d="M185.762 129.523H183.316V132H185.762V129.523Z" fill="#DADFE3"/>
<path d="M168.937 133.487H166.491V135.964H168.937V133.487Z" fill="#DADFE3"/>
<path d="M173.143 133.487H170.697V135.964H173.143V133.487Z" fill="#DADFE3"/>
<path d="M177.349 133.487H174.903V135.964H177.349V133.487Z" fill="#DADFE3"/>
<path d="M181.556 133.487H179.11V135.964H181.556V133.487Z" fill="#DADFE3"/>
<path d="M185.762 133.487H183.316V135.964H185.762V133.487Z" fill="#DADFE3"/>
<path d="M168.937 137.451H166.491V139.929H168.937V137.451Z" fill="#DADFE3"/>
<path d="M173.143 137.451H170.697V139.929H173.143V137.451Z" fill="#DADFE3"/>
<path d="M177.349 137.451H174.903V139.929H177.349V137.451Z" fill="#DADFE3"/>
<path d="M181.556 137.451H179.11V139.929H181.556V137.451Z" fill="#DADFE3"/>
<path d="M185.762 137.451H183.316V139.929H185.762V137.451Z" fill="#DADFE3"/>
</g>
<g opacity="0.22">
<path d="M71.7551 52.917H69.1514V60.2663H71.7551V52.917Z" fill="#C6BFB0"/>
<path d="M72.0292 38.6348H68.7402V47.3707H72.0292V38.6348Z" fill="#C6BFB0"/>
<path d="M59.7118 51.5713L60.8623 54.689L68.9501 51.6331L67.7996 48.5155L59.7118 51.5713Z" fill="#C6BFB0"/>
<path d="M73.0401 48.6758L71.8896 51.7935L79.9774 54.8493L81.1279 51.7316L73.0401 48.6758Z" fill="#C6BFB0"/>
<path d="M166.037 10.7626C166.037 9.51461 164.941 8.54395 163.845 8.54395C162.612 8.54395 161.652 9.51461 161.652 10.7626L160.282 42.3784C160.145 44.597 161.515 46.5383 163.16 46.5383H164.667C166.312 46.5383 167.682 44.597 167.545 42.3784L166.037 10.7626Z" fill="#E7E7E7"/>
<path d="M123.282 66.5064C122.186 67.061 121.637 68.309 122.049 69.4184C122.46 70.5277 123.693 71.0823 124.926 70.805L154.664 61.0984C156.719 60.4051 158.09 58.4638 157.541 56.9385L156.993 55.5518C156.445 53.8878 154.115 53.3331 152.06 54.3038L123.282 66.5064Z" fill="#E7E7E7"/>
<path d="M204.408 66.5064C205.504 67.061 206.053 68.309 205.641 69.4184C205.23 70.5277 203.997 71.0823 202.764 70.805L173.026 61.0984C170.971 60.4051 169.601 58.4638 170.149 56.9385L170.697 55.5518C171.245 53.8878 173.575 53.3331 175.63 54.3038L204.408 66.5064Z" fill="#E7E7E7"/>
<path d="M168.504 161.631H159.186L161.515 61.376H166.174L168.504 161.631Z" fill="#E7E7E7"/>
<path d="M246.753 22.9653C246.753 21.9946 245.93 21.1626 244.834 21.1626C243.875 21.1626 243.053 21.9946 242.915 22.9653L241.819 49.4504C241.682 51.3917 242.778 52.917 244.286 52.917H245.519C246.89 52.917 247.986 51.253 247.986 49.4504L246.753 22.9653Z" fill="#E7E7E7"/>
<path d="M211.123 69.5569C210.164 69.9729 209.753 71.0822 210.027 71.9142C210.438 72.8849 211.397 73.3009 212.356 73.0235L237.16 64.8423C238.942 64.2876 240.038 62.6236 239.49 61.3756L239.079 60.1276C238.531 58.741 236.749 58.325 234.968 59.0183L211.123 69.5569Z" fill="#E7E7E7"/>
<path d="M278.819 69.5569C279.778 69.9729 280.19 71.0822 279.916 71.9142C279.504 72.8849 278.545 73.3009 277.586 73.0235L252.782 64.8423C251.001 64.2876 249.904 62.6236 250.452 61.3756L250.863 60.1276C251.412 58.741 253.193 58.325 254.975 59.0183L278.819 69.5569Z" fill="#E7E7E7"/>
<path d="M248.808 161.631H241.134L243.052 65.2583H246.889L248.808 161.631Z" fill="#E7E7E7"/>
<path d="M72.7151 2.99745C72.7151 1.61079 71.6188 0.640137 70.2484 0.640137C69.015 0.640137 67.9187 1.74946 67.7817 2.99745L66.2743 37.3865C66.1373 39.8825 67.6447 41.9625 69.4261 41.9625H71.0706C72.8521 41.9625 74.3595 39.8825 74.2225 37.3865L72.7151 2.99745Z" fill="#E7E7E7"/>
<path d="M26.396 63.4554C25.1626 64.0101 24.6145 65.3967 25.0256 66.6447C25.4367 67.8927 26.8071 68.586 28.0404 68.17L60.3813 57.6315C62.711 56.9381 64.0814 54.8582 63.3962 53.0555L62.848 51.5302C62.1628 49.7275 59.8332 49.1729 57.5035 50.1435L26.396 63.4554Z" fill="#E7E7E7"/>
<path d="M114.374 63.4559C115.608 64.0106 116.156 65.3972 115.745 66.6452C115.333 67.8932 113.963 68.5865 112.73 68.1705L80.3888 57.632C78.0592 56.9386 76.6888 54.8586 77.374 53.056L77.9222 51.5307C78.6074 49.728 80.937 49.1733 83.2666 50.144L114.374 63.4559Z" fill="#E7E7E7"/>
<path d="M75.4553 161.631H65.3145L67.9182 57.7705H72.8515L75.4553 161.631Z" fill="#E7E7E7"/>
<path d="M70.3855 54.3038C72.8831 54.3038 74.9078 52.255 74.9078 49.7278C74.9078 47.2006 72.8831 45.1519 70.3855 45.1519C67.888 45.1519 65.8633 47.2006 65.8633 49.7278C65.8633 52.255 67.888 54.3038 70.3855 54.3038Z" fill="white"/>
<path d="M245.93 61.5142H244.012V67.1995H245.93V61.5142Z" fill="#C6BFB0"/>
<path d="M246.342 50.5596H243.738V57.2155H246.342V50.5596Z" fill="#C6BFB0"/>
<path d="M236.766 60.5182L237.677 62.9863L243.839 60.6581L242.928 58.1899L236.766 60.5182Z" fill="#C6BFB0"/>
<path d="M247.033 58.1027L246.122 60.5708L252.284 62.8991L253.195 60.4309L247.033 58.1027Z" fill="#C6BFB0"/>
<path d="M248.397 59.1571C248.397 61.0984 246.889 62.6237 244.971 62.6237C243.052 62.6237 241.545 61.0984 241.545 59.1571C241.545 57.2158 243.052 55.6904 244.971 55.6904C246.889 55.6904 248.397 57.2158 248.397 59.1571Z" fill="white"/>
<path d="M165.078 56.8003H162.748V63.5949H165.078V56.8003Z" fill="#C6BFB0"/>
<path d="M165.352 43.7656H162.337V51.8082H165.352V43.7656Z" fill="#C6BFB0"/>
<path d="M154.002 55.7218L155.057 58.5796L162.503 55.7663L161.448 52.9085L154.002 55.7218Z" fill="#C6BFB0"/>
<path d="M166.273 52.8936L165.219 55.7515L172.665 58.5648L173.719 55.7069L166.273 52.8936Z" fill="#C6BFB0"/>
<path d="M163.845 58.1866C166.115 58.1866 167.956 56.3242 167.956 54.0267C167.956 51.7292 166.115 49.8667 163.845 49.8667C161.574 49.8667 159.733 51.7292 159.733 54.0267C159.733 56.3242 161.574 58.1866 163.845 58.1866Z" fill="white"/>
</g>
</svg>
