<svg width="57" height="57" viewBox="0 0 57 57" fill="none" xmlns="http://www.w3.org/2000/svg">
<path d="M44.3964 13.3194C44.0457 8.43178 39.9571 4.56259 34.9816 4.56259C33.4247 4.56259 31.8942 4.95149 30.5333 5.67797C27.9303 2.21267 23.8201 0.120605 19.4347 0.120605C11.7806 0.120605 5.55346 6.34771 5.55346 14.0018C5.55346 15.7426 5.88528 17.4711 6.5227 19.0868C4.89538 19.8901 3.45329 21.0733 2.35401 22.527C0.814637 24.5625 0.000976562 26.9906 0.000976562 29.5488C0.000976562 35.9782 5.23175 41.209 11.6612 41.209C14.3199 41.209 16.8307 40.3278 18.8794 38.7C20.9282 40.3279 23.4389 41.209 26.0976 41.209C28.9778 41.209 31.7184 40.1507 33.8401 38.2591C36.3481 40.3154 39.4564 41.4311 42.7551 41.4311C50.5317 41.4311 56.8584 35.1044 56.8584 27.3278C56.8584 20.1061 51.403 14.1347 44.3964 13.3194ZM24.4407 25.5415C24.2577 25.7599 24.0588 25.965 23.8493 26.1514C22.7814 27.1027 21.4084 27.6054 19.8789 27.6054C16.0519 27.6054 12.9383 24.4919 12.9383 20.6648C12.9383 16.8377 16.0519 13.7242 19.8789 13.7242C21.2694 13.7242 22.6117 14.1343 23.7604 14.9103C24.3957 15.3394 24.5628 16.2024 24.1336 16.8376C23.7045 17.4729 22.8416 17.64 22.2064 17.2108C21.5184 16.746 20.7135 16.5004 19.879 16.5004C17.5827 16.5004 15.7146 18.3685 15.7146 20.6648C15.7146 22.9611 17.5827 24.8292 19.879 24.8292C20.729 24.8292 21.4436 24.5765 22.0031 24.0781C22.1122 23.9811 22.2165 23.8732 22.3132 23.758C22.8058 23.1703 23.6812 23.0934 24.2688 23.586C24.8561 24.0786 24.9332 24.9541 24.4407 25.5415ZM32.4275 27.6054C28.6005 27.6054 25.4869 24.4919 25.4869 20.6648C25.4869 16.8377 28.6005 13.7242 32.4275 13.7242C36.2545 13.7242 39.3681 16.8377 39.3681 20.6648C39.3681 24.4919 36.2545 27.6054 32.4275 27.6054ZM45.2156 33.1402C44.1115 33.1541 43.3051 33.1604 42.7112 33.1604C41.1835 33.1604 41.0587 33.1188 40.874 33.0572C40.433 32.9102 40.0892 32.5605 39.9542 32.1219C39.7275 31.385 40.0879 30.9131 40.5867 30.2599C40.9716 29.756 41.688 28.8181 42.8894 27.1015C43.257 26.5762 43.409 26.2113 43.4706 25.9853L43.4834 25.8853C43.4525 25.6041 43.2133 25.3844 42.9239 25.3844C42.6554 25.3844 42.4232 25.5746 42.3716 25.8366C42.2238 26.589 41.4942 27.0795 40.742 26.9311C39.9897 26.7833 39.4997 26.0537 39.6475 25.3014C39.9541 23.7408 41.332 22.608 42.9239 22.608C44.7651 22.608 46.2629 24.1059 46.2629 25.9471C46.2584 26.1268 46.2229 26.3787 46.1894 26.5554C46.0326 27.2318 45.6971 27.9311 45.1639 28.6931C44.6954 29.3624 44.2983 29.9171 43.9641 30.3762C44.3654 30.3733 44.7804 30.3691 45.1805 30.3641C45.9491 30.3538 46.5764 30.9681 46.586 31.7347C46.5959 32.5014 45.9822 33.1306 45.2156 33.1402Z" fill="#20A049"/>
<path d="M32.4271 24.8292C34.727 24.8292 36.5914 22.9648 36.5914 20.6649C36.5914 18.3649 34.727 16.5005 32.4271 16.5005C30.1271 16.5005 28.2627 18.3649 28.2627 20.6649C28.2627 22.9648 30.1271 24.8292 32.4271 24.8292Z" fill="#20A049"/>
<path d="M32.9393 50.803C32.2888 50.1525 31.2341 50.1525 30.5836 50.803L30.0957 51.291V46.4284C30.0957 45.5085 29.3498 44.7627 28.4299 44.7627C27.51 44.7627 26.7642 45.5085 26.7642 46.4284V51.291L26.2762 50.803C25.6257 50.1525 24.571 50.1525 23.9205 50.803C23.27 51.4535 23.27 52.5082 23.9205 53.1587L27.252 56.4902C27.9025 57.1407 28.9572 57.1407 29.6077 56.4902L32.9392 53.1587C33.5898 52.5083 33.5898 51.4535 32.9393 50.803Z" fill="#C6D92D"/>
<path d="M48.4862 50.803C47.8356 50.1525 46.781 50.1525 46.1305 50.803L45.6425 51.291V46.4284C45.6425 45.5085 44.8967 44.7627 43.9768 44.7627C43.0568 44.7627 42.311 45.5085 42.311 46.4284V51.291L41.8231 50.803C41.1726 50.1525 40.1179 50.1525 39.4674 50.803C38.8169 51.4535 38.8169 52.5082 39.4674 53.1587L42.7989 56.4902C43.4494 57.1407 44.504 57.1407 45.1546 56.4902L48.4861 53.1587C49.1367 52.5083 49.1367 51.4535 48.4862 50.803Z" fill="#C6D92D"/>
<path d="M17.3924 50.803C16.7419 50.1525 15.6873 50.1525 15.0367 50.803L14.5488 51.291V46.4284C14.5488 45.5085 13.803 44.7627 12.883 44.7627C11.9631 44.7627 11.2173 45.5085 11.2173 46.4284V51.291L10.7293 50.803C10.0788 50.1525 9.02417 50.1525 8.37364 50.803C7.72311 51.4535 7.72311 52.5082 8.37364 53.1587L11.7051 56.4902C12.3557 57.1407 13.4103 57.1407 14.0608 56.4902L17.3923 53.1587C18.043 52.5083 18.043 51.4535 17.3924 50.803Z" fill="#C6D92D"/>
</svg>
