<svg width="44" height="44" viewBox="0 0 44 44" fill="none" xmlns="http://www.w3.org/2000/svg">
<rect x="0.813477" y="0.111115" width="43.0221" height="43.0221" rx="21.511" fill="#E1FAE4"/>
<path fill-rule="evenodd" clip-rule="evenodd" d="M12.2402 17.2218C13.9367 13.3389 17.8122 10.6221 22.3245 10.6221C26.8367 10.6221 30.7122 13.3389 32.4087 17.2218C32.6298 17.7279 32.3988 18.3174 31.8927 18.5385C31.3866 18.7596 30.7971 18.5286 30.576 18.0225C29.1863 14.8418 26.0135 12.6221 22.3245 12.6221C18.6354 12.6221 15.4626 14.8418 14.0729 18.0225C13.8518 18.5286 13.2623 18.7596 12.7562 18.5385C12.2501 18.3174 12.0191 17.7278 12.2402 17.2218ZM18.4019 22.4522C18.7052 19.9003 19.8826 17.6155 21.6244 15.908C22.0133 15.5268 22.6357 15.5268 23.0245 15.908C24.7663 17.6155 25.9437 19.9003 26.247 22.4522C27.9881 21.2962 30.0781 20.6221 32.3245 20.6221C32.8767 20.6221 33.3245 21.0698 33.3245 21.6221C33.3245 27.6973 28.3996 32.6221 22.3245 32.6221C16.2493 32.6221 11.3245 27.6973 11.3245 21.6221C11.3245 21.0698 11.7722 20.6221 12.3245 20.6221C14.5708 20.6221 16.6608 21.2962 18.4019 22.4522ZM20.3298 24.078C20.3263 23.9736 20.3245 23.8688 20.3245 23.7636C20.3245 21.6199 21.073 19.6523 22.3245 18.1061C23.5759 19.6523 24.3245 21.6199 24.3245 23.7636C24.3245 23.8688 24.3227 23.9736 24.3191 24.078C23.504 24.9426 22.8272 25.9398 22.3245 27.0337C21.8217 25.9398 21.1449 24.9426 20.3298 24.078ZM21.2625 30.5601C21.0182 28.48 20.0649 26.6176 18.649 25.219L18.649 25.219C17.2595 23.8464 15.4279 22.9238 13.3865 22.6841C13.871 26.8059 17.1407 30.0756 21.2625 30.5601ZM23.3864 30.5601C23.6307 28.48 24.584 26.6176 26 25.219L26 25.219C27.3894 23.8464 29.221 22.9238 31.2625 22.6841C30.778 26.8059 27.5082 30.0756 23.3864 30.5601Z" fill="#20A049"/>
</svg>
