<svg width="20" height="22" viewBox="0 0 20 22" fill="none" xmlns="http://www.w3.org/2000/svg">
<path d="M9.29289 20.7296C9.68342 21.1201 10.3166 21.1201 10.7071 20.7296L16.7071 14.7296C17.0976 14.339 17.0976 13.7059 16.7071 13.3154C16.3166 12.9248 15.6834 12.9248 15.2929 13.3154L10.9961 17.6121L10.9961 6.0224C10.9961 5.47011 10.5484 5.0224 9.9961 5.0224C9.44382 5.0224 8.9961 5.47011 8.9961 6.0224L8.9961 17.6043L4.70711 13.3154C4.31658 12.9248 3.68342 12.9248 3.29289 13.3154C2.90237 13.7059 2.90237 14.339 3.29289 14.7296L9.29289 20.7296Z" fill="white"/>
<path d="M19 10.0225C18.4477 10.0225 18 9.57475 18 9.02246C18 7.7156 17.558 5.95728 16.3616 4.5434C15.195 3.16465 13.2355 2.02246 10 2.02246C6.76449 2.02246 4.80502 3.16465 3.63839 4.5434C2.44203 5.95728 2 7.7156 2 9.02246C2 9.57474 1.55229 10.0225 1 10.0225C0.447717 10.0225 1.00079e-06 9.57474 1.04907e-06 9.02246C1.19709e-06 7.32932 0.557975 5.08764 2.11162 3.25152C3.69498 1.38027 6.23551 0.0224597 10 0.0224601C13.7645 0.0224604 16.305 1.38027 17.8884 3.25152C19.442 5.08764 20 7.32932 20 9.02246C20 9.57475 19.5523 10.0225 19 10.0225Z" fill="white"/>
</svg>
