<svg width="18" height="19" viewBox="0 0 18 19" fill="none" xmlns="http://www.w3.org/2000/svg">
<path d="M4.596 12.6461C4.73818 12.5137 4.92622 12.4415 5.12052 12.445C5.31482 12.4484 5.50021 12.5271 5.63762 12.6645C5.77503 12.8019 5.85375 12.9873 5.85717 13.1816C5.8606 13.3759 5.78848 13.564 5.656 13.7061L2.561 16.8001H4.75C4.93124 16.8001 5.10634 16.8658 5.24293 16.9849C5.37952 17.104 5.46835 17.2686 5.493 17.4481L5.5 17.5501C5.5 17.7491 5.42098 17.9398 5.28033 18.0805C5.13968 18.2211 4.94891 18.3001 4.75 18.3001H0.75C0.551088 18.3001 0.360322 18.2211 0.21967 18.0805C0.0790175 17.9398 0 17.7491 0 17.5501V13.5501C0 13.3512 0.0790175 13.1605 0.21967 13.0198C0.360322 12.8792 0.551088 12.8001 0.75 12.8001C0.948912 12.8001 1.13968 12.8792 1.28033 13.0198C1.42098 13.1605 1.5 13.3512 1.5 13.5501V15.7401L4.596 12.6461ZM13.255 18.3001C13.0561 18.3001 12.8653 18.2211 12.7247 18.0805C12.584 17.9398 12.505 17.7491 12.505 17.5501C12.505 17.3512 12.584 17.1605 12.7247 17.0198C12.8653 16.8792 13.0561 16.8001 13.255 16.8001H15.441L12.35 13.7061C12.223 13.5792 12.1458 13.4108 12.1324 13.2317C12.119 13.0526 12.1703 12.8746 12.277 12.7301L12.35 12.6461C12.4906 12.5057 12.6812 12.4268 12.88 12.4268C13.0788 12.4268 13.2694 12.5057 13.41 12.6461L16.505 15.7421V13.5501C16.505 13.3689 16.5706 13.1938 16.6898 13.0572C16.8089 12.9206 16.9734 12.8318 17.153 12.8071L17.255 12.8001C17.4539 12.8001 17.6447 12.8792 17.7853 13.0198C17.926 13.1605 18.005 13.3512 18.005 13.5501V17.5501C18.005 17.7491 17.926 17.9398 17.7853 18.0805C17.6447 18.2211 17.4539 18.3001 17.255 18.3001H13.255ZM4.75 0.296143C4.94891 0.296143 5.13968 0.37516 5.28033 0.515812C5.42098 0.656465 5.5 0.84723 5.5 1.04614C5.5 1.24505 5.42098 1.43582 5.28033 1.57647C5.13968 1.71713 4.94891 1.79614 4.75 1.79614H2.563L5.656 4.89114C5.78287 5.01826 5.85991 5.18668 5.87312 5.36578C5.88634 5.54489 5.83484 5.72279 5.728 5.86714L5.655 5.95214C5.51437 6.09259 5.32375 6.17148 5.125 6.17148C4.92625 6.17148 4.73563 6.09259 4.595 5.95214L1.5 2.85314V5.04614C1.49999 5.22738 1.43436 5.40248 1.31523 5.53907C1.19611 5.67566 1.03155 5.76449 0.852 5.78914L0.75 5.79614C0.551088 5.79614 0.360322 5.71712 0.21967 5.57647C0.0790175 5.43582 0 5.24505 0 5.04614V1.04614C0 0.84723 0.0790175 0.656465 0.21967 0.515812C0.360322 0.37516 0.551088 0.296143 0.75 0.296143H4.75ZM17.255 0.296143C17.4539 0.296143 17.6447 0.37516 17.7853 0.515812C17.926 0.656465 18.005 0.84723 18.005 1.04614V5.04614C18.005 5.24505 17.926 5.43582 17.7853 5.57647C17.6447 5.71712 17.4539 5.79614 17.255 5.79614C17.0561 5.79614 16.8653 5.71712 16.7247 5.57647C16.584 5.43582 16.505 5.24505 16.505 5.04614V2.85514L13.41 5.95114C13.283 6.07816 13.1147 6.15539 12.9355 6.16879C12.7564 6.18218 12.5785 6.13086 12.434 6.02414L12.35 5.95114C12.2095 5.81052 12.1307 5.61989 12.1307 5.42114C12.1307 5.22239 12.2095 5.03177 12.35 4.89114L15.442 1.79614H13.255C13.0738 1.79613 12.8987 1.7305 12.7621 1.61138C12.6255 1.49225 12.5366 1.3277 12.512 1.14814L12.505 1.04614C12.505 0.84723 12.584 0.656465 12.7247 0.515812C12.8653 0.37516 13.0561 0.296143 13.255 0.296143H17.255Z" fill="#535959"/>
</svg>
