<svg width="22" height="23" viewBox="0 0 22 23" fill="none" xmlns="http://www.w3.org/2000/svg">
<path fill-rule="evenodd" clip-rule="evenodd" d="M10.3753 0.515274C10.7405 0.223099 11.2595 0.223099 11.6247 0.515274L21.6247 8.51527C21.8619 8.70505 22 8.99236 22 9.29614V21.2961C22 21.8484 21.5523 22.2961 21 22.2961H15C14.4477 22.2961 14 21.8484 14 21.2961V13.2961H8V21.2961C8 21.8484 7.55228 22.2961 7 22.2961H1C0.447715 22.2961 0 21.8484 0 21.2961V9.29614C0 8.99236 0.13809 8.70505 0.375305 8.51527L10.3753 0.515274ZM2 9.77677V20.2961H6V12.2961C6 11.7439 6.44772 11.2961 7 11.2961H15C15.5523 11.2961 16 11.7439 16 12.2961V20.2961H20V9.77677L11 2.57677L2 9.77677ZM11 15.2961C11.5523 15.2961 12 15.7439 12 16.2961V21.2961C12 21.8484 11.5523 22.2961 11 22.2961C10.4477 22.2961 10 21.8484 10 21.2961V16.2961C10 15.7439 10.4477 15.2961 11 15.2961Z" fill="#535959"/>
</svg>
