<svg width="22" height="23" viewBox="0 0 22 23" fill="none" xmlns="http://www.w3.org/2000/svg">
<path fill-rule="evenodd" clip-rule="evenodd" d="M0 11.5225C0 5.44733 4.92487 0.522461 11 0.522461C17.0751 0.522461 22 5.44733 22 11.5225C22 17.5976 17.0751 22.5225 11 22.5225C4.92487 22.5225 0 17.5976 0 11.5225ZM11 6.52246C11.5523 6.52246 12 6.97018 12 7.52246V10.5225H15C15.5523 10.5225 16 10.9702 16 11.5225C16 12.0747 15.5523 12.5225 15 12.5225H12V15.5225C12 16.0747 11.5523 16.5225 11 16.5225C10.4477 16.5225 10 16.0747 10 15.5225V12.5225H7C6.44772 12.5225 6 12.0747 6 11.5225C6 10.9702 6.44772 10.5225 7 10.5225H10V7.52246C10 6.97018 10.4477 6.52246 11 6.52246Z" fill="white"/>
</svg>
