<svg width="44" height="44" viewBox="0 0 44 44" fill="none" xmlns="http://www.w3.org/2000/svg">
<rect y="0.111084" width="43.0221" height="43.0221" rx="21.511" fill="#FDE5DB"/>
<path d="M22.5107 20.1221C22.5107 19.5698 22.063 19.1221 21.5107 19.1221C20.9585 19.1221 20.5107 19.5698 20.5107 20.1221V22.6221H18.0107C17.4585 22.6221 17.0107 23.0698 17.0107 23.6221C17.0107 24.1744 17.4585 24.6221 18.0107 24.6221H20.5107V27.1221C20.5107 27.6744 20.9585 28.1221 21.5107 28.1221C22.063 28.1221 22.5107 27.6744 22.5107 27.1221V24.6221H25.0107C25.563 24.6221 26.0107 24.1744 26.0107 23.6221C26.0107 23.0698 25.563 22.6221 25.0107 22.6221H22.5107V20.1221Z" fill="#EA6B39"/>
<path fill-rule="evenodd" clip-rule="evenodd" d="M14.5107 10.6221C13.4062 10.6221 12.5107 11.5175 12.5107 12.6221V30.6221C12.5107 31.7267 13.4062 32.6221 14.5107 32.6221H28.5107C29.6153 32.6221 30.5107 31.7267 30.5107 30.6221V16.6221C30.5107 16.3635 30.4126 16.1278 30.2515 15.9503L25.754 10.9532C25.5644 10.7424 25.2942 10.6221 25.0107 10.6221H14.5107ZM23.5107 12.6221H14.5107V30.6221H28.5107V17.6221H24.5107C23.9585 17.6221 23.5107 17.1744 23.5107 16.6221V12.6221ZM27.2654 15.6221H25.5107V13.6725L27.2654 15.6221Z" fill="#EA6B39"/>
</svg>
