<svg width="22" height="23" viewBox="0 0 22 23" fill="none" xmlns="http://www.w3.org/2000/svg">
<path d="M11 22.2961C17.0751 22.2961 22 17.3713 22 11.2961C22 5.22101 17.0751 0.296143 11 0.296143C4.92487 0.296143 0 5.22101 0 11.2961C0 17.3713 4.92487 22.2961 11 22.2961Z" fill="#227FBB"/>
<path fill-rule="evenodd" clip-rule="evenodd" d="M4.54854 2.3855L10.9996 8.83656L17.4507 2.3855C18.3947 3.07014 19.2257 3.90113 19.9103 4.84517L13.4593 11.2962L19.9103 17.7473C19.2257 18.6913 18.3947 19.5223 17.4507 20.207L10.9996 13.7559L4.54854 20.207C3.6045 19.5223 2.77351 18.6913 2.08887 17.7473L8.53993 11.2962L2.08887 4.84517C2.77351 3.90113 3.6045 3.07014 4.54854 2.3855Z" fill="white"/>
<path fill-rule="evenodd" clip-rule="evenodd" d="M19.694 18.0354L14.0454 12.2739H12.1364L18.8035 19.0485C19.1204 18.7295 19.4178 18.3912 19.694 18.0354ZM4.24438 19.9782L11.7329 12.3961H9.77732L3.20138 19.0543C3.52903 19.3836 3.87741 19.6923 4.24438 19.9782ZM18.7906 3.53091L12.5273 9.84474H10.7551L17.8519 2.69067C18.1807 2.95283 18.4942 3.23343 18.7906 3.53091ZM2.31543 4.54356L7.21581 9.4628H9.13844L3.21648 3.52285C2.89572 3.84401 2.59471 4.18491 2.31543 4.54356Z" fill="#E94B35"/>
<path fill-rule="evenodd" clip-rule="evenodd" d="M8.55556 0.568718V8.8517H0.272576C0.0941862 9.63786 0 10.456 0 11.2961C0 12.1363 0.0941862 12.9544 0.272576 13.7406H8.55556V22.0236C9.34172 22.202 10.1599 22.2961 11 22.2961C11.8401 22.2961 12.6583 22.202 13.4444 22.0236V13.7406H21.7274C21.9058 12.9544 22 12.1363 22 11.2961C22 10.456 21.9058 9.63786 21.7274 8.8517H13.4444V0.568718C12.6583 0.390329 11.8401 0.296143 11 0.296143C10.1599 0.296143 9.34172 0.390329 8.55556 0.568718Z" fill="white"/>
<path fill-rule="evenodd" clip-rule="evenodd" d="M9.16667 0.448233V9.46281H0.15209C0.0520645 10.059 0 10.6715 0 11.2961C0 11.9208 0.0520645 12.5333 0.15209 13.1295H9.16667V22.1441C9.76288 22.2441 10.3754 22.2961 11 22.2961C11.6246 22.2961 12.2371 22.2441 12.8333 22.1441V13.1295H21.8479C21.9479 12.5333 22 11.9208 22 11.2961C22 10.6715 21.9479 10.059 21.8479 9.46281H12.8333V0.448233C12.2371 0.348207 11.6246 0.296143 11 0.296143C10.3754 0.296143 9.76288 0.348207 9.16667 0.448233Z" fill="#E94B35"/>
</svg>
