<svg width="1440" height="465" viewBox="0 0 1440 465" fill="none" xmlns="http://www.w3.org/2000/svg">
<g clip-path="url(#clip0_1_234)">
<path opacity="0.2" d="M1306.99 190.151C1303.59 190.151 1300.19 191.252 1297.13 193.087C1285.23 168.498 1270.28 153.817 1253.62 153.817C1238.66 153.817 1224.72 165.929 1213.5 186.114C1206.02 181.71 1197.87 179.141 1189.37 179.141C1174.75 179.141 1161.49 186.481 1151.29 198.225C1146.87 193.454 1141.43 190.151 1135.65 190.151C1128.51 190.151 1122.06 194.555 1117.3 201.895H1148.23H1154.35H1206.02H1230.5H1288.29H1300.87H1325.35C1320.59 194.922 1314.13 190.151 1306.99 190.151Z" fill="#C7EED4"/>
<path d="M879.328 150.514C875.249 150.514 871.509 151.614 868.11 153.817C854.512 125.924 837.174 108.675 818.136 108.675C801.139 108.675 785.161 122.621 772.243 145.742C763.744 140.604 754.565 137.668 744.706 137.668C728.049 137.668 713.091 145.742 701.192 159.322C696.093 153.817 689.974 150.146 683.515 150.146C675.356 150.146 667.877 155.285 662.438 163.359H697.793H704.932H764.084H792.3H858.591H872.869H900.745C895.306 155.652 887.827 150.514 879.328 150.514Z" fill="#C7EED4"/>
<path d="M108.992 98.7662C112.052 98.7662 114.772 99.5002 117.151 101.335C127.01 80.7829 139.928 68.3047 153.866 68.3047C166.445 68.3047 178.003 78.5808 187.522 95.4631C193.641 91.793 200.44 89.591 207.919 89.591C220.157 89.591 231.376 95.4631 239.875 105.372C243.614 101.335 248.034 98.7662 252.793 98.7662C258.912 98.7662 264.351 102.436 268.431 108.675H242.594H237.495H193.641H172.904H124.29H113.752H93.3545C97.4339 102.436 102.873 98.7662 108.992 98.7662Z" fill="#C7EED4"/>
<path opacity="0.29" d="M1451.13 381.727C1448.75 371.45 1444.67 361.541 1437.19 354.935C1423.59 342.824 1403.54 346.127 1386.2 350.531C1385.86 307.958 1332.15 278.598 1300.19 303.554C1299.17 273.827 1280.81 245.567 1254.98 234.924C1229.14 224.281 1198.21 231.621 1178.83 253.274C1167.27 226.116 1141.09 207.032 1113.56 205.931C1086.02 204.83 1058.14 221.712 1044.89 247.769C1004.77 212.537 940.52 215.473 902.785 253.641C845.673 215.84 760.684 243.732 732.468 309.426C707.651 262.083 638.981 251.806 602.946 289.975C602.606 261.349 584.588 233.823 559.771 223.18C534.955 212.904 504.699 220.244 486.341 241.163C474.783 217.308 462.205 192.352 440.108 179.873C418.011 167.395 384.695 175.836 379.256 201.894C339.821 174.368 286.788 171.432 244.634 193.819C230.016 201.527 214.718 218.409 221.517 234.557C204.18 207.766 168.484 197.123 140.948 210.335C113.412 223.547 97.094 259.514 104.233 291.076C87.5753 281.534 65.1383 285.938 52.8999 301.352C40.6616 316.767 39.6417 341.356 50.8602 357.504C38.6219 339.154 14.8251 353.1 1.56688 370.349C-11.6913 387.599 -35.8281 467.973 29.1032 479.35L1397.08 499.168C1439.91 485.589 1462.35 428.703 1451.13 381.727Z" fill="#F6FAF3"/>
<path d="M525.435 514.216V387.599C525.435 383.929 522.716 380.626 518.976 380.626H462.544C459.144 380.626 456.085 383.562 456.085 387.599V484.122C456.085 487.792 453.365 491.095 449.625 491.095H380.275C376.875 491.095 373.816 488.159 373.816 484.122V256.211C373.816 252.541 371.096 249.238 367.357 249.238H299.706C296.306 249.238 293.247 252.174 293.247 256.211V421.731C293.247 425.401 290.527 428.704 286.787 428.704H258.571C255.172 428.704 252.112 425.768 252.112 421.731V241.164C252.112 235.292 245.993 232.355 241.914 235.659L190.92 279.699C189.561 281.167 188.541 283.002 188.541 285.204V323.006C188.541 326.676 185.821 329.979 182.082 329.979H96.4132C93.0137 329.979 89.9541 332.915 89.9541 336.952V525.226C89.9541 528.896 92.6737 532.199 96.4132 532.199H519.316C522.716 532.199 525.775 529.263 525.775 525.226V514.216H525.435Z" fill="#D6EDD6"/>
<path d="M49.4995 451.825V541.007C49.4995 543.943 51.5392 546.145 54.2589 546.145H563.17C565.89 546.145 567.929 543.943 567.929 541.007V462.835C567.929 459.899 565.89 457.697 563.17 457.697H530.195C527.475 457.697 525.435 459.899 525.435 462.835V491.095C525.435 494.031 523.395 496.233 520.676 496.233H486.001C483.281 496.233 481.241 494.031 481.241 491.095V361.542C481.241 358.606 479.201 356.403 476.482 356.403H446.566C443.846 356.403 441.807 358.606 441.807 361.542V464.67C441.807 467.606 439.767 469.808 437.047 469.808C434.327 469.808 432.288 467.606 432.288 464.67V284.837C432.288 281.901 430.248 279.699 427.528 279.699H356.478C353.758 279.699 351.719 281.901 351.719 284.837V522.29C351.719 525.226 349.679 527.428 346.959 527.428H317.043C314.324 527.428 312.284 525.226 312.284 522.29V394.205C312.284 391.269 310.244 389.067 307.525 389.067H235.454C232.735 389.067 230.695 391.269 230.695 394.205V489.26C230.695 492.196 228.655 494.398 225.936 494.398H177.322C174.603 494.398 172.563 492.196 172.563 489.26V266.854C172.563 263.918 170.523 261.716 167.804 261.716H106.952C104.232 261.716 102.192 263.918 102.192 266.854V441.549C102.192 444.485 100.153 446.687 97.433 446.687H54.2589C51.5392 447.054 49.4995 449.256 49.4995 451.825Z" fill="#AFE5AF"/>
<path d="M362.268 300.951H420.06V293.611H362.268V300.951Z" fill="#D1F1D1"/>
<path d="M362.268 319.588H420.06V312.248H362.268V319.588Z" fill="#D1F1D1"/>
<path d="M362.268 338.225H420.06V330.884H362.268V338.225Z" fill="#D1F1D1"/>
<path d="M362.268 356.86H420.06V349.52H362.268V356.86Z" fill="#D1F1D1"/>
<path d="M362.268 375.497H420.06V368.157H362.268V375.497Z" fill="#D1F1D1"/>
<path d="M362.268 394.134H420.06V386.794H362.268V394.134Z" fill="#D1F1D1"/>
<path d="M362.268 412.77H420.06V405.429H362.268V412.77Z" fill="#D1F1D1"/>
<path d="M362.268 431.405H420.06V424.065H362.268V431.405Z" fill="#DADFE3"/>
<path d="M362.268 450.409H420.06V443.069H362.268V450.409Z" fill="#DADFE3"/>
<path d="M297.193 405.373H305.692V396.198H297.193V405.373Z" fill="#DADFE3"/>
<path d="M282.576 405.373H291.075V396.198H282.576V405.373Z" fill="#DADFE3"/>
<path d="M267.96 405.373H276.458V396.198H267.96V405.373Z" fill="#DADFE3"/>
<path d="M253.343 405.373H261.842V396.198H253.343V405.373Z" fill="#DADFE3"/>
<path d="M238.726 405.373H247.225V396.198H238.726V405.373Z" fill="#DADFE3"/>
<path d="M297.193 420.37H305.692V411.195H297.193V420.37Z" fill="#DADFE3"/>
<path d="M282.576 420.37H291.075V411.195H282.576V420.37Z" fill="#DADFE3"/>
<path d="M267.96 420.37H276.458V411.195H267.96V420.37Z" fill="#DADFE3"/>
<path d="M253.343 420.37H261.842V411.195H253.343V420.37Z" fill="#DADFE3"/>
<path d="M238.726 420.37H247.225V411.195H238.726V420.37Z" fill="#DADFE3"/>
<path d="M297.193 434.999H305.692V425.824H297.193V434.999Z" fill="#DADFE3"/>
<path d="M282.576 434.999H291.075V425.824H282.576V434.999Z" fill="#DADFE3"/>
<path d="M267.96 434.999H276.458V425.824H267.96V434.999Z" fill="#DADFE3"/>
<path d="M253.343 434.999H261.842V425.824H253.343V434.999Z" fill="#DADFE3"/>
<path d="M238.726 434.999H247.225V425.824H238.726V434.999Z" fill="#DADFE3"/>
<path d="M297.193 449.996H305.692V440.821H297.193V449.996Z" fill="#DADFE3"/>
<path d="M282.576 449.996H291.075V440.821H282.576V449.996Z" fill="#DADFE3"/>
<path d="M267.96 449.996H276.458V440.821H267.96V449.996Z" fill="#DADFE3"/>
<path d="M253.343 449.996H261.842V440.821H253.343V449.996Z" fill="#DADFE3"/>
<path d="M238.726 449.996H247.225V440.821H238.726V449.996Z" fill="#DADFE3"/>
<path d="M297.193 464.992H305.692V455.817H297.193V464.992Z" fill="#DADFE3"/>
<path d="M282.576 464.992H291.075V455.817H282.576V464.992Z" fill="#DADFE3"/>
<path d="M267.96 464.992H276.458V455.817H267.96V464.992Z" fill="#DADFE3"/>
<path d="M253.343 464.992H261.842V455.817H253.343V464.992Z" fill="#DADFE3"/>
<path d="M238.726 464.992H247.225V455.817H238.726V464.992Z" fill="#DADFE3"/>
<path d="M836.153 532.199C840.573 532.199 843.972 528.529 843.972 523.758V338.787C843.972 334.016 840.573 330.346 836.153 330.346H752.525C748.105 330.346 744.706 326.676 744.706 321.905V251.073C744.706 243.366 735.867 239.329 730.768 245.201L682.834 301.72C681.474 303.188 680.794 305.39 680.794 307.592V420.63C680.794 425.401 677.395 429.071 672.975 429.071H647.819C643.399 429.071 640 425.401 640 420.63V258.413C640 253.642 636.6 249.972 632.181 249.972H567.93C563.51 249.972 560.111 253.642 560.111 258.413V532.199H836.153Z" fill="#D6EDD6"/>
<path d="M884.427 451.458V541.007C884.427 543.943 882.387 546.145 879.667 546.145H370.756C368.037 546.145 365.997 543.943 365.997 541.007V462.835C365.997 459.899 368.037 457.697 370.756 457.697H403.732C406.451 457.697 408.491 459.899 408.491 462.835V491.094C408.491 494.03 410.531 496.232 413.25 496.232H447.926C450.645 496.232 452.685 494.03 452.685 491.094V361.541C452.685 358.605 454.725 356.403 457.445 356.403H487.361C490.08 356.403 492.12 358.605 492.12 361.541V464.67C492.12 467.606 494.16 469.808 496.879 469.808C499.599 469.808 501.639 467.606 501.639 464.67V284.837C501.639 281.901 503.678 279.699 506.398 279.699H577.448C580.168 279.699 582.208 281.901 582.208 284.837V522.29C582.208 525.226 584.247 527.428 586.967 527.428H616.883C619.603 527.428 621.642 525.226 621.642 522.29V394.205C621.642 391.269 623.682 389.067 626.402 389.067H698.472C701.192 389.067 703.231 391.269 703.231 394.205V489.259C703.231 492.195 705.271 494.397 707.991 494.397H756.944C759.664 494.397 761.704 492.195 761.704 489.259V266.854C761.704 263.918 763.743 261.716 766.463 261.716H827.315C830.034 261.716 832.074 263.918 832.074 266.854V441.549C832.074 444.485 834.114 446.687 836.833 446.687H880.007C882.387 446.687 884.427 448.889 884.427 451.458Z" fill="#AFE5AF"/>
<path d="M570.309 294.379H511.497V301.719H570.309V294.379Z" fill="#D1F1D1"/>
<path d="M570.309 313.097H511.497V320.437H570.309V313.097Z" fill="#D1F1D1"/>
<path d="M570.309 331.814H511.497V339.154H570.309V331.814Z" fill="#D1F1D1"/>
<path d="M570.309 350.531H511.497V357.872H570.309V350.531Z" fill="#D1F1D1"/>
<path d="M570.309 369.248H511.497V376.588H570.309V369.248Z" fill="#D1F1D1"/>
<path d="M570.309 387.966H511.497V395.306H570.309V387.966Z" fill="#D1F1D1"/>
<path d="M570.309 406.684H511.497V414.024H570.309V406.684Z" fill="#D1F1D1"/>
<path d="M570.309 425.401H511.497V432.741H570.309V425.401Z" fill="#D1F1D1"/>
<path d="M570.309 444.118H511.497V451.458H570.309V444.118Z" fill="#D1F1D1"/>
<path d="M636.6 397.508H628.101V406.683H636.6V397.508Z" fill="#D1F1D1"/>
<path d="M651.218 397.508H642.719V406.683H651.218V397.508Z" fill="#D1F1D1"/>
<path d="M665.836 397.508H657.337V406.683H665.836V397.508Z" fill="#D1F1D1"/>
<path d="M680.454 397.508H671.955V406.683H680.454V397.508Z" fill="#D1F1D1"/>
<path d="M695.072 397.508H686.573V406.683H695.072V397.508Z" fill="#D1F1D1"/>
<path d="M636.6 412.188H628.101V421.364H636.6V412.188Z" fill="#D1F1D1"/>
<path d="M651.218 412.188H642.719V421.364H651.218V412.188Z" fill="#D1F1D1"/>
<path d="M665.836 412.188H657.337V421.364H665.836V412.188Z" fill="#D1F1D1"/>
<path d="M680.454 412.188H671.955V421.364H680.454V412.188Z" fill="#D1F1D1"/>
<path d="M695.072 412.188H686.573V421.364H695.072V412.188Z" fill="#D1F1D1"/>
<path d="M636.6 427.236H628.101V436.411H636.6V427.236Z" fill="#D1F1D1"/>
<path d="M651.218 427.236H642.719V436.411H651.218V427.236Z" fill="#D1F1D1"/>
<path d="M665.836 427.236H657.337V436.411H665.836V427.236Z" fill="#D1F1D1"/>
<path d="M680.454 427.236H671.955V436.411H680.454V427.236Z" fill="#D1F1D1"/>
<path d="M695.072 427.236H686.573V436.411H695.072V427.236Z" fill="#D1F1D1"/>
<path d="M636.6 441.916H628.101V451.091H636.6V441.916Z" fill="#D1F1D1"/>
<path d="M651.218 441.916H642.719V451.091H651.218V441.916Z" fill="#D1F1D1"/>
<path d="M665.836 441.916H657.337V451.091H665.836V441.916Z" fill="#D1F1D1"/>
<path d="M680.454 441.916H671.955V451.091H680.454V441.916Z" fill="#D1F1D1"/>
<path d="M695.072 441.916H686.573V451.091H695.072V441.916Z" fill="#D1F1D1"/>
<path d="M636.6 456.596H628.101V465.771H636.6V456.596Z" fill="#D1F1D1"/>
<path d="M651.218 456.596H642.719V465.771H651.218V456.596Z" fill="#D1F1D1"/>
<path d="M665.836 456.596H657.337V465.771H665.836V456.596Z" fill="#D1F1D1"/>
<path d="M680.454 456.596H671.955V465.771H680.454V456.596Z" fill="#D1F1D1"/>
<path d="M695.072 456.596H686.573V465.771H695.072V456.596Z" fill="#D1F1D1"/>
<path d="M1434.81 473.478L1193.44 253.275C1178.83 239.695 1159.79 240.796 1145.51 255.477L939.499 473.478H1434.81Z" fill="#A8E0C5"/>
<path d="M1111.52 292.178C1094.86 292.178 1081.26 306.124 1081.26 323.373V378.057C1081.26 395.306 1094.86 409.253 1111.52 409.253C1128.17 409.253 1141.77 395.306 1141.77 378.057V323.373C1141.77 306.124 1128.17 292.178 1111.52 292.178Z" fill="#006738"/>
<path d="M1132.25 368.882C1132.25 367.047 1130.89 365.579 1129.19 365.579C1127.49 365.579 1126.13 367.047 1126.13 368.882C1126.13 381.361 1120.7 388.334 1114.92 390.169V355.67C1114.92 353.468 1113.22 352 1111.52 352C1109.48 352 1108.12 353.835 1108.12 355.67V390.169C1102.34 388.334 1096.9 381.361 1096.9 368.882C1096.9 367.047 1095.54 365.579 1093.84 365.579C1092.14 365.579 1090.78 367.047 1090.78 368.882C1090.78 377.324 1092.82 384.664 1096.9 389.802C1099.96 393.472 1103.7 396.041 1107.78 396.775V459.533H1114.92V396.775C1124.09 394.94 1132.25 385.398 1132.25 368.882Z" fill="#8E664C"/>
<path d="M1316.85 296.215C1300.19 296.215 1286.59 310.161 1286.59 327.41V382.094C1286.59 399.344 1300.19 413.29 1316.85 413.29C1333.51 413.29 1347.1 399.344 1347.1 382.094V327.41C1347.1 310.161 1333.51 296.215 1316.85 296.215Z" fill="#F26B0F"/>
<path d="M1337.58 372.919C1337.58 371.084 1336.22 369.616 1334.53 369.616C1332.83 369.616 1331.47 371.084 1331.47 372.919C1331.47 385.398 1326.03 392.371 1320.25 394.206V359.707C1320.25 357.505 1318.55 356.037 1316.85 356.037C1314.81 356.037 1313.45 357.872 1313.45 359.707V394.206C1307.67 392.371 1302.23 385.398 1302.23 372.919C1302.23 371.084 1300.87 369.616 1299.17 369.616C1297.47 369.616 1296.11 371.084 1296.11 372.919C1296.11 381.361 1298.15 388.701 1302.23 393.839C1305.29 397.509 1309.03 400.078 1313.11 400.812V463.57H1320.25V400.812C1329.43 398.977 1337.58 389.435 1337.58 372.919Z" fill="#603223"/>
<path d="M1405.24 325.942C1388.58 325.942 1374.98 339.889 1374.98 357.138V411.822C1374.98 429.071 1388.58 443.017 1405.24 443.017C1421.89 443.017 1435.49 429.071 1435.49 411.822V357.138C1435.49 339.889 1422.23 325.942 1405.24 325.942Z" fill="#03AD7B"/>
<path d="M1425.97 402.647C1425.97 400.812 1424.61 399.344 1422.91 399.344C1421.21 399.344 1419.85 400.812 1419.85 402.647C1419.85 415.125 1414.42 422.098 1408.64 423.933V389.435C1408.64 387.233 1406.94 385.765 1405.24 385.765C1403.2 385.765 1401.84 387.6 1401.84 389.435V423.933C1396.06 422.098 1390.62 415.125 1390.62 402.647C1390.62 400.812 1389.26 399.344 1387.56 399.344C1385.86 399.344 1384.5 400.812 1384.5 402.647C1384.5 411.088 1386.54 418.428 1390.62 423.566C1393.68 427.236 1397.42 429.805 1401.5 430.539V493.297H1408.64V430.539C1417.81 428.704 1425.97 419.162 1425.97 402.647Z" fill="#8E6340"/>
<path d="M1308.35 473.479L1049.98 293.279C1034.35 282.268 1013.95 283.002 998.651 295.114L778.021 473.479H1308.35Z" fill="#A8E0C5"/>
<path d="M991.852 322.639C975.194 322.639 961.596 336.585 961.596 353.834V408.518C961.596 425.767 975.194 439.714 991.852 439.714C1008.51 439.714 1022.11 425.767 1022.11 408.518V353.834C1022.11 336.585 1008.85 322.639 991.852 322.639Z" fill="#F26B0F"/>
<path d="M1012.59 399.343C1012.59 397.508 1011.23 396.04 1009.53 396.04C1007.83 396.04 1006.47 397.508 1006.47 399.343C1006.47 411.821 1001.03 418.795 995.251 420.63V386.131C995.251 383.929 993.551 382.461 991.851 382.461C989.812 382.461 988.452 384.296 988.452 386.131V420.63C982.673 418.795 977.233 411.821 977.233 399.343C977.233 397.508 975.874 396.04 974.174 396.04C972.474 396.04 971.114 397.508 971.114 399.343C971.114 407.784 973.154 415.125 977.233 420.263C980.293 423.933 984.033 426.502 988.112 427.236V489.994H995.251V427.236C1004.43 425.034 1012.59 415.491 1012.59 399.343Z" fill="#603223"/>
<path d="M1051.68 473.479L852.471 408.519C840.232 404.482 824.595 404.849 813.036 409.253L642.719 473.479H1051.68Z" fill="#A8E0C5"/>
<path d="M1369.88 219.51C1344.38 219.51 1323.99 240.796 1323.99 266.854V349.797C1323.99 375.854 1344.38 397.141 1369.88 397.141C1395.38 397.141 1415.77 375.854 1415.77 349.797V266.854C1415.77 240.796 1395.38 219.51 1369.88 219.51Z" fill="#F7B935"/>
<path d="M1401.16 335.85C1401.16 333.281 1399.12 331.079 1396.74 331.079C1394.36 331.079 1392.32 333.281 1392.32 335.85C1392.32 354.935 1384.16 365.211 1375.32 368.147V315.665C1375.32 312.362 1372.94 309.793 1369.88 309.793C1366.82 309.793 1364.44 312.362 1364.44 315.665V368.147C1355.6 365.211 1347.44 354.935 1347.44 335.85C1347.44 333.281 1345.4 331.079 1343.02 331.079C1340.64 331.079 1338.6 333.281 1338.6 335.85C1338.6 348.696 1342 359.706 1348.12 367.413C1352.54 372.918 1358.32 376.588 1364.78 378.056V473.478H1375.32V378.056C1388.92 375.12 1401.16 360.807 1401.16 335.85Z" fill="#8E6340"/>
<path d="M1173.73 266.854C1155.03 266.854 1139.73 282.636 1139.73 301.72V363.01C1139.73 382.094 1155.03 397.876 1173.73 397.876C1192.43 397.876 1207.72 382.094 1207.72 363.01V301.72C1207.38 282.269 1192.43 266.854 1173.73 266.854Z" fill="#019444"/>
<path d="M1196.85 352.367C1196.85 350.532 1195.49 348.697 1193.45 348.697C1191.41 348.697 1190.05 350.165 1190.05 352.367C1190.05 366.313 1184.27 374.02 1177.47 376.222V337.687C1177.47 335.484 1175.77 333.649 1173.73 333.649C1171.69 333.649 1169.99 335.484 1169.99 337.687V376.222C1163.53 374.02 1157.41 366.313 1157.41 352.367C1157.41 350.532 1156.05 348.697 1154.01 348.697C1151.97 348.697 1150.61 350.165 1150.61 352.367C1150.61 361.909 1152.99 369.983 1157.75 375.855C1161.15 379.892 1165.23 382.828 1169.99 383.562V454.027H1177.81V383.562C1187.67 381.36 1196.85 370.717 1196.85 352.367Z" fill="#603223"/>
<path d="M1261.1 225.749C1239 225.749 1220.98 244.099 1220.98 266.854V339.154C1220.98 361.908 1239 380.258 1261.1 380.258C1283.19 380.258 1301.21 361.908 1301.21 339.154V266.854C1301.21 244.099 1283.19 225.749 1261.1 225.749Z" fill="#03AD7B"/>
<path d="M1288.29 326.675C1288.29 324.473 1286.59 322.271 1284.21 322.271C1281.83 322.271 1280.13 324.106 1280.13 326.675C1280.13 343.191 1273.33 351.999 1265.51 354.568V309.059C1265.51 306.49 1263.47 303.921 1260.76 303.921C1258.38 303.921 1256 306.123 1256 309.059V354.568C1248.18 351.999 1241.38 343.191 1241.38 326.675C1241.38 324.473 1239.68 322.271 1237.3 322.271C1235.26 322.271 1233.22 324.106 1233.22 326.675C1233.22 338.052 1235.94 347.595 1241.38 354.201C1245.46 358.972 1250.22 362.275 1255.66 363.376V446.319H1264.83V363.376C1277.75 360.807 1288.29 348.329 1288.29 326.675Z" fill="#8E6340"/>
<path d="M1052.02 240.43C1029.93 240.43 1011.91 258.78 1011.91 281.534V353.834C1011.91 376.589 1029.93 394.939 1052.02 394.939C1074.12 394.939 1092.14 376.589 1092.14 353.834V281.534C1092.14 258.78 1074.12 240.43 1052.02 240.43Z" fill="#F7B935"/>
<path d="M1079.22 341.356C1079.22 339.154 1077.52 336.952 1075.14 336.952C1072.76 336.952 1071.06 338.787 1071.06 341.356C1071.06 357.871 1064.26 366.679 1056.44 369.248V323.74C1056.44 321.171 1054.4 318.602 1051.68 318.602C1049.3 318.602 1046.92 320.804 1046.92 323.74V369.248C1039.11 366.679 1032.31 357.871 1032.31 341.356C1032.31 339.154 1030.61 336.952 1028.23 336.952C1026.19 336.952 1024.15 338.787 1024.15 341.356C1024.15 352.733 1026.87 362.275 1032.31 368.881C1036.39 373.652 1041.15 376.956 1046.58 378.057V461H1055.76V378.057C1068.68 375.488 1079.22 363.009 1079.22 341.356Z" fill="#8E6340"/>
<path d="M942.898 292.178C926.241 292.178 912.643 306.124 912.643 323.373V378.057C912.643 395.306 926.241 409.253 942.898 409.253C959.556 409.253 973.154 395.306 973.154 378.057V323.373C973.494 306.124 959.896 292.178 942.898 292.178Z" fill="#006738"/>
<path d="M963.636 368.882C963.636 367.047 962.276 365.579 960.576 365.579C958.876 365.579 957.516 367.047 957.516 368.882C957.516 381.361 952.077 388.334 946.298 390.169V355.67C946.298 353.468 944.598 352 942.898 352C940.859 352 939.499 353.835 939.499 355.67V390.169C933.72 388.334 928.28 381.361 928.28 368.882C928.28 367.047 926.921 365.579 925.221 365.579C923.521 365.579 922.161 367.047 922.161 368.882C922.161 377.324 924.201 384.664 928.28 389.802C931.34 393.472 935.079 396.041 939.159 396.775V459.533H946.298V396.775C955.477 394.94 963.636 385.398 963.636 368.882Z" fill="#8E664C"/>
<path d="M879.327 252.908C857.23 252.908 839.212 271.259 839.212 294.013V366.313C839.212 389.067 857.23 407.418 879.327 407.418C901.424 407.418 919.442 389.067 919.442 366.313V294.013C919.442 271.259 901.424 252.908 879.327 252.908Z" fill="#03AD7B"/>
<path d="M906.523 353.834C906.523 351.632 904.823 349.43 902.443 349.43C900.064 349.43 898.364 351.265 898.364 353.834C898.364 370.35 891.565 379.158 883.746 381.727V336.218C883.746 333.649 881.706 331.08 878.987 331.08C876.607 331.08 874.227 333.282 874.227 336.218V381.727C866.408 379.158 859.609 370.35 859.609 353.834C859.609 351.632 857.909 349.43 855.53 349.43C853.49 349.43 851.45 351.265 851.45 353.834C851.45 365.212 854.17 374.754 859.609 381.36C863.689 386.131 868.448 389.434 873.887 390.535V473.478H883.066V390.535C895.984 387.966 906.523 375.488 906.523 353.834Z" fill="#8E6340"/>
<path d="M785.5 185.746H779.04V205.197H785.5V185.746Z" fill="#C6BFB0"/>
<path d="M786.18 147.945H778.021V171.066H786.18V147.945Z" fill="#C6BFB0"/>
<path d="M755.622 182.185L758.476 190.436L778.54 182.348L775.686 174.097L755.622 182.185Z" fill="#C6BFB0"/>
<path d="M788.685 174.52L785.831 182.771L805.894 190.859L808.748 182.607L788.685 174.52Z" fill="#C6BFB0"/>
<path d="M1019.39 74.1763C1019.39 70.8732 1016.67 68.3041 1013.95 68.3041C1010.89 68.3041 1008.51 70.8732 1008.51 74.1763L1005.11 157.854C1004.77 163.726 1008.17 168.864 1012.25 168.864H1015.99C1020.07 168.864 1023.47 163.726 1023.13 157.854L1019.39 74.1763Z" fill="#E7E7E7"/>
<path d="M913.322 221.713C910.603 223.181 909.243 226.484 910.263 229.42C911.282 232.356 914.342 233.824 917.402 233.09L991.172 207.399C996.271 205.564 999.671 200.426 998.311 196.389L996.951 192.719C995.591 188.315 989.812 186.847 984.713 189.416L913.322 221.713Z" fill="#E7E7E7"/>
<path d="M1114.58 221.713C1117.29 223.181 1118.65 226.484 1117.63 229.42C1116.61 232.356 1113.56 233.824 1110.5 233.09L1036.73 207.399C1031.63 205.564 1028.23 200.426 1029.59 196.389L1030.95 192.719C1032.31 188.315 1038.09 186.847 1043.18 189.416L1114.58 221.713Z" fill="#E7E7E7"/>
<path d="M1025.51 461H1002.39L1008.17 208.133H1019.73L1025.51 461Z" fill="#E7E7E7"/>
<path d="M1219.62 106.473C1219.62 103.904 1217.58 101.702 1214.86 101.702C1212.48 101.702 1210.44 103.904 1210.1 106.473L1207.38 176.571C1207.04 181.709 1209.76 185.746 1213.5 185.746H1216.56C1219.96 185.746 1222.68 181.342 1222.68 176.571L1219.62 106.473Z" fill="#E7E7E7"/>
<path d="M1131.23 229.787C1128.85 230.888 1127.83 233.824 1128.51 236.026C1129.53 238.595 1131.91 239.696 1134.29 238.962L1195.82 217.308C1200.24 215.84 1202.96 211.436 1201.6 208.133L1200.58 204.83C1199.22 201.16 1194.8 200.059 1190.38 201.894L1131.23 229.787Z" fill="#E7E7E7"/>
<path d="M1299.17 229.787C1301.55 230.888 1302.57 233.824 1301.89 236.026C1300.87 238.595 1298.49 239.696 1296.11 238.962L1234.58 217.309C1230.16 215.841 1227.44 211.437 1228.8 208.134L1229.82 204.83C1231.18 201.16 1235.6 200.059 1240.02 201.894L1299.17 229.787Z" fill="#E7E7E7"/>
<path d="M1224.72 429.805H1205.68L1210.44 218.409H1219.96L1224.72 429.805Z" fill="#E7E7E7"/>
<path d="M787.879 53.6238C787.879 49.9538 785.16 47.3847 781.76 47.3847C778.701 47.3847 775.981 50.3208 775.641 53.6238L771.902 144.641C771.562 151.247 775.301 156.752 779.72 156.752H783.8C788.219 156.752 791.959 151.247 791.619 144.641L787.879 53.6238Z" fill="#E7E7E7"/>
<path d="M672.975 213.638C669.915 215.106 668.555 218.776 669.575 222.079C670.595 225.382 673.995 227.217 677.054 226.116L757.283 198.224C763.063 196.389 766.462 190.884 764.762 186.113L763.403 182.076C761.703 177.305 755.924 175.837 750.144 178.406L672.975 213.638Z" fill="#E7E7E7"/>
<path d="M891.225 213.639C894.285 215.107 895.645 218.777 894.625 222.08C893.605 225.383 890.205 227.218 887.146 226.117L806.917 198.224C801.137 196.389 797.738 190.884 799.438 186.113L800.798 182.076C802.497 177.305 808.276 175.837 814.056 178.406L891.225 213.639Z" fill="#E7E7E7"/>
<path d="M794.678 473.479H769.522L775.981 198.591H788.219L794.678 473.479Z" fill="#E7E7E7"/>
<path d="M782.1 189.416C788.296 189.416 793.318 183.994 793.318 177.305C793.318 170.616 788.296 165.194 782.1 165.194C775.904 165.194 770.882 170.616 770.882 177.305C770.882 183.994 775.904 189.416 782.1 189.416Z" fill="white"/>
<path d="M1217.58 208.5H1212.82V223.548H1217.58V208.5Z" fill="#C6BFB0"/>
<path d="M1218.6 179.507H1212.14V197.123H1218.6V179.507Z" fill="#C6BFB0"/>
<path d="M1194.85 205.865L1197.1 212.398L1212.39 206.235L1210.13 199.703L1194.85 205.865Z" fill="#C6BFB0"/>
<path d="M1220.31 199.471L1218.06 206.004L1233.34 212.166L1235.6 205.634L1220.31 199.471Z" fill="#C6BFB0"/>
<path d="M1223.7 202.262C1223.7 207.4 1219.96 211.437 1215.2 211.437C1210.44 211.437 1206.7 207.4 1206.7 202.262C1206.7 197.123 1210.44 193.086 1215.2 193.086C1219.96 193.086 1223.7 197.123 1223.7 202.262Z" fill="white"/>
<path d="M1017.01 196.022H1011.23V214.005H1017.01V196.022Z" fill="#C6BFB0"/>
<path d="M1017.69 161.524H1010.21V182.81H1017.69V161.524Z" fill="#C6BFB0"/>
<path d="M989.532 193.168L992.148 200.732L1010.62 193.286L1008 185.722L989.532 193.168Z" fill="#C6BFB0"/>
<path d="M1019.97 185.683L1017.36 193.247L1035.83 200.693L1038.44 193.129L1019.97 185.683Z" fill="#C6BFB0"/>
<path d="M1013.95 199.692C1019.58 199.692 1024.15 194.763 1024.15 188.682C1024.15 182.601 1019.58 177.672 1013.95 177.672C1008.32 177.672 1003.75 182.601 1003.75 188.682C1003.75 194.763 1008.32 199.692 1013.95 199.692Z" fill="white"/>
<path d="M951.058 381.728V473.479H822.555V381.728L824.255 380.26L858.25 352.735L860.63 350.532L886.806 329.246L913.323 350.532L915.703 352.735L951.058 381.728Z" fill="#4F9EB6"/>
<path d="M951.058 379.894H822.555V383.197H951.058V379.894Z" fill="white"/>
<path d="M888.506 331.448H885.447V381.728H888.506V331.448Z" fill="white"/>
<path d="M857.571 383.196H854.511V473.113H857.571V383.196Z" fill="white"/>
<path d="M951.058 414.391H822.555V417.695H951.058V414.391Z" fill="white"/>
<path d="M919.442 383.196H916.383V473.113H919.442V383.196Z" fill="white"/>
<path d="M888.166 380.26L886.807 381.728L885.787 382.829L858.25 352.734L860.63 350.532L886.807 379.159L888.166 380.26Z" fill="white"/>
<path d="M915.703 352.734L888.166 382.829L886.806 381.728L885.787 380.26L886.806 379.159L913.323 350.532L915.703 352.734Z" fill="white"/>
<path d="M951.058 381.728V385.031C949.698 385.031 948.338 384.664 947.318 383.563L886.806 334.384L826.295 383.563C825.275 384.297 823.915 385.031 822.555 385.031V381.728L824.255 380.26L857.91 352.735L860.29 350.9L886.806 329.246L912.983 350.9L915.363 352.735L951.058 381.728Z" fill="white"/>
<path d="M951.057 381.727C949.697 381.727 948.338 381.36 947.318 380.259L886.806 331.448L826.294 380.259C823.575 382.461 819.835 381.727 817.795 378.791C815.756 375.855 816.436 371.818 819.155 369.616L883.406 317.868C885.446 316.033 888.506 316.033 890.885 317.868L955.137 369.616C957.856 371.818 958.536 375.855 956.497 378.791C954.797 380.626 953.097 381.727 951.057 381.727Z" fill="#494748"/>
<path d="M907.544 417.693H866.409V473.111H907.544V417.693Z" fill="#494748"/>
<path d="M1057.12 415.124C1054.06 415.124 1051 415.491 1047.94 416.225C1045.22 406.683 1040.13 398.242 1033.67 391.269C1023.47 380.259 1009.19 373.286 993.551 373.286C984.713 373.286 976.214 375.488 968.735 379.525C968.735 373.286 967.035 366.68 960.576 360.44C960.576 360.44 951.397 372.185 956.496 386.498C951.057 382.094 943.238 379.158 933.38 383.562C933.38 383.562 937.799 393.838 948.338 397.508C946.298 400.077 944.938 403.013 943.238 406.316C942.218 405.949 940.859 405.582 939.839 405.582C934.399 405.582 929.98 410.353 929.64 416.225C926.58 415.491 923.521 415.124 920.121 415.124C904.144 415.124 890.205 424.667 882.726 438.613C878.987 445.586 876.947 453.293 876.947 461.734C876.947 465.771 877.627 469.441 878.307 473.478H1098.6C1099.62 469.808 1099.96 465.771 1099.96 461.734C1100.3 435.677 1080.92 415.124 1057.12 415.124Z" fill="#019444"/>
<path d="M1132.93 463.937C1132.93 467.24 1132.59 470.176 1131.91 473.112H955.137C954.457 470.176 954.117 466.873 954.117 463.937C954.117 456.964 955.817 450.724 958.876 445.219C964.996 433.842 975.874 426.502 988.792 426.502C994.232 426.502 998.991 427.97 1003.75 430.172C1008.85 408.886 1026.53 393.105 1047.94 393.105C1060.52 393.105 1071.74 398.61 1079.9 407.418C1085 412.923 1089.08 419.896 1091.12 427.236C1093.5 426.502 1095.88 426.502 1098.26 426.502C1117.64 426.502 1132.93 443.384 1132.93 463.937Z" fill="#006738"/>
<path d="M1030.95 467.24C1030.95 469.442 1030.61 471.277 1030.27 473.112H918.761C918.421 471.277 918.082 469.442 918.082 467.24C918.082 462.836 919.101 458.799 921.141 455.496C924.881 448.522 932.02 443.751 940.179 443.751C943.578 443.751 946.638 444.485 949.357 445.953C952.417 432.374 963.635 422.465 977.234 422.465C985.052 422.465 992.191 425.768 997.291 431.64C1000.69 434.943 1003.07 439.347 1004.43 444.118C1005.79 443.751 1007.49 443.751 1009.19 443.751C1021.09 443.751 1030.95 454.394 1030.95 467.24Z" fill="#4BBC62"/>
<path d="M916.382 424.667C916.382 424.667 909.923 430.906 910.943 440.815C908.223 437.145 903.804 433.475 896.664 433.108C896.664 433.108 896.664 450.724 915.362 452.926C915.362 452.926 927.26 439.347 916.382 424.667Z" fill="#4BBC62"/>
<path d="M1007.15 364.11C1007.15 364.11 1001.71 365.945 999.671 372.551C998.991 369.248 997.291 365.945 992.871 363.743C992.871 363.743 988.452 374.386 999.331 381.359C999.331 380.992 1009.87 376.221 1007.15 364.11Z" fill="#4BBC62"/>
<path d="M1085.68 398.61C1085.68 398.61 1080.24 396.775 1075.14 400.445C1076.16 397.509 1076.5 393.472 1074.46 389.067C1074.46 389.067 1064.94 394.94 1070.04 407.418C1070.04 407.418 1081.26 410.354 1085.68 398.61Z" fill="#019444"/>
<path d="M1045.22 413.289C1045.22 413.289 1040.81 417.693 1041.49 424.299C1039.79 421.73 1036.73 419.528 1031.97 419.161C1031.97 419.161 1031.97 430.905 1044.54 432.373C1044.54 432.006 1052.36 422.831 1045.22 413.289Z" fill="#019444"/>
<path d="M1028.23 436.045C1028.23 436.045 1022.45 436.412 1019.05 441.917C1019.05 438.614 1018.37 434.944 1014.97 431.273C1014.97 431.273 1007.83 440.449 1016.67 449.991C1016.67 450.358 1028.23 448.523 1028.23 436.045Z" fill="#4BBC62"/>
<path d="M1103.7 422.098C1103.7 422.098 1100.3 422.832 1098.6 426.135C1098.6 424.3 1097.58 422.098 1095.54 420.263C1095.54 420.263 1092.14 426.135 1097.58 430.906C1097.58 430.906 1104.04 429.438 1103.7 422.098Z" fill="#019444"/>
<path d="M960.576 403.747C960.576 403.747 957.516 409.252 959.896 415.491C957.516 413.656 954.117 412.189 949.357 413.29C949.357 413.29 952.417 424.667 964.995 422.465C964.655 422.465 969.755 411.087 960.576 403.747Z" fill="#4BBC62"/>
<path d="M1388.24 469.807C1388.24 471.276 1388.24 472.743 1387.9 474.212H1234.58C1231.86 469.073 1230.16 463.201 1230.16 456.595C1230.16 437.144 1244.78 421.363 1262.8 421.363C1270.61 421.363 1277.75 424.299 1283.53 429.437C1290.67 415.491 1304.27 406.315 1319.91 406.315C1342.34 406.315 1360.7 425.767 1361.38 449.989C1363.76 448.888 1366.14 448.521 1368.52 448.521C1379.4 448.154 1388.24 457.696 1388.24 469.807Z" fill="#019444"/>
<path d="M1415.44 448.155C1412.72 448.155 1410.34 448.522 1408.3 449.623C1407.62 425.4 1389.26 405.949 1366.82 405.949C1351.18 405.949 1337.59 415.491 1330.45 429.07C1324.67 423.932 1317.53 420.996 1309.71 420.996C1308.01 420.996 1306.31 420.996 1304.95 421.363C1306.31 415.124 1305.63 407.05 1298.49 399.343C1298.49 399.343 1292.37 407.05 1293.05 416.959C1289.65 413.289 1284.55 410.72 1277.07 410.72C1277.07 410.72 1278.09 423.932 1288.29 429.437C1281.49 436.043 1277.07 445.218 1277.07 455.862C1277.07 462.101 1278.77 468.34 1281.49 473.478H1434.81C1435.15 472.01 1435.15 470.542 1435.15 469.074C1435.49 457.697 1426.31 448.155 1415.44 448.155Z" fill="#4BBC62"/>
<path d="M1365.46 471.643C1365.46 472.744 1365.46 473.478 1365.12 474.212H1274.01C1272.31 471.276 1271.29 467.606 1271.29 463.936C1271.29 452.192 1280.13 443.017 1290.67 443.017C1295.43 443.017 1299.51 444.852 1302.91 447.788C1306.99 439.714 1315.15 433.842 1324.67 433.842C1337.93 433.842 1348.8 445.219 1349.48 459.899C1350.84 459.532 1352.2 459.165 1353.9 459.165C1360.02 458.798 1365.46 464.303 1365.46 471.643Z" fill="#006738"/>
<path d="M1242.74 449.989C1242.74 449.989 1243.08 453.292 1245.46 455.861C1243.76 455.861 1241.72 456.595 1240.02 458.063C1240.02 458.063 1246.14 465.771 1254.98 459.165C1254.98 459.532 1252.26 449.622 1242.74 449.989Z" fill="#4BBC62"/>
<path d="M1268.92 428.337C1268.92 428.337 1267.56 430.172 1267.56 432.741C1266.54 432.007 1265.52 431.273 1263.82 430.906C1263.82 430.906 1263.14 438.246 1270.28 439.714C1269.94 439.347 1273.67 433.108 1268.92 428.337Z" fill="#4BBC62"/>
<path d="M1332.49 415.124C1332.49 415.124 1329.43 415.858 1327.39 418.427C1327.05 416.592 1326.37 414.757 1325.01 412.555C1325.01 412.555 1318.21 419.895 1325.01 428.703C1324.67 428.703 1333.51 425.4 1332.49 415.124Z" fill="#006738"/>
<path d="M1361.04 434.208C1361.04 434.208 1359 436.41 1357.98 440.08C1356.96 438.612 1355.26 437.144 1353.22 436.41C1353.22 436.41 1350.84 446.319 1360.7 450.356C1360.7 450.356 1366.82 442.282 1361.04 434.208Z" fill="#019444"/>
<path d="M1382.46 423.566C1382.46 423.566 1380.42 424.3 1378.72 426.502C1378.38 425.034 1377.7 423.933 1376.34 422.465C1376.34 422.465 1371.92 428.337 1377.36 434.209C1377.7 434.209 1384.16 430.906 1382.46 423.566Z" fill="#019444"/>
<path d="M1414.76 444.852C1414.76 444.852 1412.38 444.852 1410.34 445.953C1410.68 444.485 1410.34 443.017 1409.66 441.182C1409.66 441.182 1403.2 444.485 1406.26 452.559C1406.6 452.559 1413.4 452.192 1414.76 444.852Z" fill="#019444"/>
<path d="M1245.12 469.808C1245.12 471.276 1245.12 472.744 1244.78 474.212H1091.46C1088.74 469.074 1087.04 463.202 1087.04 456.595C1087.04 437.144 1101.66 421.363 1119.67 421.363C1127.49 421.363 1134.63 424.299 1140.41 429.437C1147.55 415.491 1161.15 406.316 1176.79 406.316C1199.22 406.316 1217.58 425.767 1218.26 449.989C1220.64 448.888 1223.02 448.521 1225.4 448.521C1236.28 448.154 1245.12 457.696 1245.12 469.808Z" fill="#019444"/>
<path d="M1272.31 448.155C1269.59 448.155 1267.22 448.522 1265.18 449.623C1264.5 425.4 1246.14 405.949 1223.7 405.949C1208.06 405.949 1194.46 415.491 1187.33 429.07C1181.55 423.932 1174.41 420.996 1166.59 420.996C1164.89 420.996 1163.19 420.996 1161.83 421.363C1163.19 415.124 1162.51 407.05 1155.37 399.343C1155.37 399.343 1149.25 407.05 1149.93 416.959C1146.53 413.289 1141.43 410.72 1133.95 410.72C1133.95 410.72 1134.97 423.932 1145.17 429.437C1138.37 436.044 1133.95 445.219 1133.95 455.862C1133.95 462.101 1135.65 468.34 1138.37 473.478H1291.69C1292.03 472.01 1292.03 470.542 1292.03 469.074C1292.03 457.697 1283.19 448.155 1272.31 448.155Z" fill="#4BBC62"/>
<path d="M1222 471.644C1222 472.745 1222 473.479 1221.66 474.213H1130.55C1128.85 471.277 1127.83 467.607 1127.83 463.937C1127.83 452.192 1136.67 443.017 1147.21 443.017C1151.97 443.017 1156.05 444.852 1159.45 447.788C1163.53 439.714 1171.69 433.842 1181.21 433.842C1194.46 433.842 1205.34 445.219 1206.02 459.899C1207.38 459.532 1208.74 459.165 1210.44 459.165C1216.9 458.798 1222 464.304 1222 471.644Z" fill="#006738"/>
<path d="M1099.28 449.99C1099.28 449.99 1099.62 453.293 1102 455.862C1100.3 455.862 1098.26 456.596 1096.56 458.064C1096.56 458.064 1102.68 465.771 1111.52 459.165C1111.52 459.532 1108.8 449.623 1099.28 449.99Z" fill="#4BBC62"/>
<path d="M1125.45 428.337C1125.45 428.337 1124.09 430.172 1124.09 432.741C1123.07 432.007 1122.05 431.273 1120.35 430.906C1120.35 430.906 1119.67 438.246 1126.81 439.714C1126.81 439.347 1130.21 433.108 1125.45 428.337Z" fill="#4BBC62"/>
<path d="M1189.03 415.124C1189.03 415.124 1185.97 415.858 1183.93 418.427C1183.59 416.592 1182.91 414.757 1181.55 412.555C1181.55 412.555 1174.75 419.895 1181.55 428.703C1181.21 428.703 1190.39 425.4 1189.03 415.124Z" fill="#006738"/>
<path d="M1217.58 434.208C1217.58 434.208 1215.54 436.41 1214.52 440.08C1213.5 438.612 1211.8 437.144 1209.76 436.41C1209.76 436.41 1207.38 446.319 1217.24 450.356C1217.24 449.989 1223.36 442.282 1217.58 434.208Z" fill="#019444"/>
<path d="M1239 423.566C1239 423.566 1236.96 424.3 1235.26 426.502C1234.92 425.034 1234.24 423.933 1232.88 422.465C1232.88 422.465 1228.46 428.337 1233.9 434.209C1234.24 434.209 1240.7 430.906 1239 423.566Z" fill="#019444"/>
<path d="M1271.29 444.852C1271.29 444.852 1268.91 444.852 1266.87 445.953C1267.21 444.485 1266.87 443.017 1266.2 441.182C1266.2 441.182 1259.74 444.485 1262.8 452.559C1263.14 452.559 1270.27 452.192 1271.29 444.852Z" fill="#019444"/>
<path d="M1165.57 381.728V473.479H1037.07V381.728L1038.43 380.26L1072.42 352.735L1074.8 350.532L1101.32 329.246L1127.49 350.532L1129.87 352.735L1165.57 381.728Z" fill="#C93F35"/>
<path d="M1165.57 379.894H1037.07V383.197H1165.57V379.894Z" fill="white"/>
<path d="M1102.68 331.448H1099.62V381.728H1102.68V331.448Z" fill="white"/>
<path d="M1071.74 383.196H1068.68V473.113H1071.74V383.196Z" fill="white"/>
<path d="M1165.57 414.391H1037.07V417.695H1165.57V414.391Z" fill="white"/>
<path d="M1133.61 383.196H1130.55V473.113H1133.61V383.196Z" fill="white"/>
<path d="M1102.34 380.26L1101.32 381.728L1099.96 382.829L1072.42 352.734L1074.8 350.532L1101.32 379.159L1102.34 380.26Z" fill="white"/>
<path d="M1129.87 352.734L1102.34 382.829L1101.32 381.728L1099.96 380.26L1101.32 379.159L1127.49 350.532L1129.87 352.734Z" fill="white"/>
<path d="M1165.57 381.728V385.031C1164.21 385.031 1162.85 384.664 1161.83 383.563L1101.32 334.384L1040.8 383.563C1039.79 384.297 1038.43 385.031 1037.07 385.031V381.728L1038.77 380.26L1072.42 352.735L1074.8 350.9L1101.32 329.246L1127.49 350.9L1129.87 352.735L1165.57 381.728Z" fill="white"/>
<path d="M1165.57 381.727C1164.21 381.727 1162.85 381.36 1161.83 380.259L1101.32 331.448L1040.8 380.259C1038.09 382.461 1034.35 381.727 1032.31 378.791C1030.27 375.855 1030.95 371.818 1033.67 369.616L1097.92 317.868C1099.96 316.033 1103.02 316.033 1105.4 317.868L1169.65 369.616C1172.37 371.818 1173.05 375.855 1171.01 378.791C1168.97 380.626 1167.27 381.727 1165.57 381.727Z" fill="#494748"/>
<path d="M1121.71 417.693H1080.58V473.111H1121.71V417.693Z" fill="#494748"/>
<path d="M1308.35 381.728V473.479H1179.85V381.728L1181.21 380.26L1215.2 352.735L1217.58 350.532L1244.1 329.246L1270.27 350.532L1272.65 352.735L1308.35 381.728Z" fill="#F7B935"/>
<path d="M1308.35 379.894H1179.85V383.197H1308.35V379.894Z" fill="white"/>
<path d="M1245.46 331.448H1242.4V381.728H1245.46V331.448Z" fill="white"/>
<path d="M1214.52 383.196H1211.46V473.113H1214.52V383.196Z" fill="white"/>
<path d="M1308.35 414.391H1179.85V417.695H1308.35V414.391Z" fill="white"/>
<path d="M1276.39 383.196H1273.33V473.113H1276.39V383.196Z" fill="white"/>
<path d="M1245.12 380.26L1244.1 381.728L1242.74 382.829L1215.2 352.734L1217.58 350.532L1244.1 379.159L1245.12 380.26Z" fill="white"/>
<path d="M1272.65 352.734L1245.12 382.829L1244.1 381.728L1242.74 380.26L1244.1 379.159L1270.27 350.532L1272.65 352.734Z" fill="white"/>
<path d="M1308.35 381.728V385.031C1306.99 385.031 1305.63 384.664 1304.61 383.563L1244.1 334.384L1183.59 383.563C1182.57 384.297 1181.21 385.031 1179.85 385.031V381.728L1181.55 380.26L1215.2 352.735L1217.58 350.9L1244.1 329.246L1270.27 350.9L1272.65 352.735L1308.35 381.728Z" fill="white"/>
<path d="M1308.35 381.727C1306.99 381.727 1305.63 381.36 1304.61 380.259L1244.1 331.448L1183.59 380.259C1180.87 382.461 1177.13 381.727 1175.09 378.791C1173.05 375.855 1173.73 371.818 1176.45 369.616L1240.7 317.868C1242.74 316.033 1245.8 316.033 1248.18 317.868L1312.43 369.616C1315.15 371.818 1315.83 375.855 1313.79 378.791C1311.75 380.626 1310.05 381.727 1308.35 381.727Z" fill="#494748"/>
<path d="M1264.49 417.693H1223.36V473.111H1264.49V417.693Z" fill="#494748"/>
<path d="M836.833 461H824.254V474.579H836.833V461Z" fill="#309AEE" stroke="white" stroke-width="2.20238" stroke-miterlimit="10"/>
<path d="M824.254 461H811.676V474.579H824.254V461Z" fill="#309AEE" stroke="white" stroke-width="2.20238" stroke-miterlimit="10"/>
<path d="M811.676 461H799.098V474.579H811.676V461Z" fill="#309AEE" stroke="white" stroke-width="2.20238" stroke-miterlimit="10"/>
<path d="M799.438 461H786.86V474.579H799.438V461Z" fill="#309AEE" stroke="white" stroke-width="2.20238" stroke-miterlimit="10"/>
<path d="M836.833 447.421H824.254V461H836.833V447.421Z" fill="#309AEE" stroke="white" stroke-width="2.20238" stroke-miterlimit="10"/>
<path d="M824.254 447.421H811.676V461H824.254V447.421Z" fill="#309AEE" stroke="white" stroke-width="2.20238" stroke-miterlimit="10"/>
<path d="M811.676 447.421H799.098V461H811.676V447.421Z" fill="#309AEE" stroke="white" stroke-width="2.20238" stroke-miterlimit="10"/>
<path d="M799.438 447.421H786.86V461H799.438V447.421Z" fill="#309AEE" stroke="white" stroke-width="2.20238" stroke-miterlimit="10"/>
<path d="M836.833 433.842H824.254V447.421H836.833V433.842Z" fill="#309AEE" stroke="white" stroke-width="2.20238" stroke-miterlimit="10"/>
<path d="M824.254 433.842H811.676V447.421H824.254V433.842Z" fill="#309AEE" stroke="white" stroke-width="2.20238" stroke-miterlimit="10"/>
<path d="M811.676 433.842H799.098V447.421H811.676V433.842Z" fill="#309AEE" stroke="white" stroke-width="2.20238" stroke-miterlimit="10"/>
<path d="M799.438 433.842H786.86V447.421H799.438V433.842Z" fill="#309AEE" stroke="white" stroke-width="2.20238" stroke-miterlimit="10"/>
<path d="M898.025 461H885.447V474.579H898.025V461Z" fill="#309AEE" stroke="white" stroke-width="2.20238" stroke-miterlimit="10"/>
<path d="M885.446 461H872.868V474.579H885.446V461Z" fill="#309AEE" stroke="white" stroke-width="2.20238" stroke-miterlimit="10"/>
<path d="M873.208 461H860.63V474.579H873.208V461Z" fill="#309AEE" stroke="white" stroke-width="2.20238" stroke-miterlimit="10"/>
<path d="M860.63 461H848.052V474.579H860.63V461Z" fill="#309AEE" stroke="white" stroke-width="2.20238" stroke-miterlimit="10"/>
<path d="M898.025 447.421H885.447V461H898.025V447.421Z" fill="#309AEE" stroke="white" stroke-width="2.20238" stroke-miterlimit="10"/>
<path d="M885.446 447.421H872.868V461H885.446V447.421Z" fill="#309AEE" stroke="white" stroke-width="2.20238" stroke-miterlimit="10"/>
<path d="M873.208 447.421H860.63V461H873.208V447.421Z" fill="#309AEE" stroke="white" stroke-width="2.20238" stroke-miterlimit="10"/>
<path d="M860.63 447.421H848.052V461H860.63V447.421Z" fill="#309AEE" stroke="white" stroke-width="2.20238" stroke-miterlimit="10"/>
<path d="M898.025 433.842H885.447V447.421H898.025V433.842Z" fill="#309AEE" stroke="white" stroke-width="2.20238" stroke-miterlimit="10"/>
<path d="M885.446 433.842H872.868V447.421H885.446V433.842Z" fill="#309AEE" stroke="white" stroke-width="2.20238" stroke-miterlimit="10"/>
<path d="M873.208 433.842H860.63V447.421H873.208V433.842Z" fill="#309AEE" stroke="white" stroke-width="2.20238" stroke-miterlimit="10"/>
<path d="M860.63 433.842H848.051V447.421H860.63V433.842Z" fill="#309AEE" stroke="white" stroke-width="2.20238" stroke-miterlimit="10"/>
<path d="M535.634 473.479L277.609 388.7C261.971 383.562 241.574 383.929 226.616 389.434L6.32538 473.479H535.634Z" fill="#A5ADA5"/>
<path d="M80.0952 187.213V118.583C80.0952 107.206 89.6139 98.765 99.8125 100.967H100.153C113.071 104.27 108.991 102.068 123.949 103.536C139.247 105.004 153.525 101.334 169.843 102.435C188.881 103.903 192.96 115.647 169.843 116.381C150.466 117.115 111.031 111.61 111.031 121.519C111.031 131.061 153.525 120.418 154.205 129.593C154.885 137.301 122.929 129.96 103.552 131.795C98.7927 132.162 95.3931 136.567 95.3931 141.338V186.846H80.0952V187.213Z" fill="#CECECE"/>
<path d="M201.459 105.004C199.759 105.004 198.059 105.004 196.36 105.371C195 105.738 193.64 105.738 192.28 106.105C188.201 106.839 188.201 114.546 192.28 115.28C193.64 115.647 195 115.647 196.36 116.014C198.059 116.381 199.759 116.381 201.459 116.381C204.178 116.381 206.558 113.812 206.558 110.876C206.218 107.573 204.178 105.004 201.459 105.004Z" fill="#CECECE"/>
<path d="M164.064 127.024C163.384 127.024 162.364 127.024 161.684 127.391C160.324 127.391 158.964 128.492 158.964 130.327C158.964 131.795 159.984 133.263 161.684 133.263C162.364 133.263 163.384 133.263 164.064 133.263C165.423 133.263 166.783 131.795 166.783 130.327C166.783 128.492 165.763 126.657 164.064 127.024Z" fill="#CECECE"/>
<path d="M166.444 229.419V160.789C166.444 149.412 175.962 140.971 186.161 143.173H186.501C199.419 146.476 195.34 144.274 210.298 145.742C225.596 147.21 239.874 143.54 256.191 144.641C275.229 146.109 279.308 157.853 256.191 158.587C236.814 159.321 197.379 153.816 197.379 163.725C197.379 173.267 239.874 162.624 240.554 171.799C241.233 179.507 209.278 172.166 189.9 174.001C185.141 174.368 181.741 178.773 181.741 183.544V229.052H166.444V229.419Z" fill="#CECECE"/>
<path d="M287.467 147.577C285.768 147.577 284.068 147.577 282.368 147.944C281.008 148.311 279.648 148.311 278.289 148.678C274.209 149.412 274.209 157.119 278.289 157.853C279.648 158.22 281.008 158.22 282.368 158.587C284.068 158.954 285.768 158.954 287.467 158.954C290.187 158.954 292.567 156.385 292.567 153.449C292.567 150.146 290.187 147.577 287.467 147.577Z" fill="#CECECE"/>
<path d="M250.072 169.23C249.392 169.23 248.372 169.23 247.692 169.597C246.333 169.597 244.973 170.699 244.973 172.534C244.973 174.002 245.993 175.47 247.692 175.47C248.372 175.47 249.392 175.47 250.072 175.47C251.432 175.47 252.792 174.002 252.792 172.534C252.792 170.699 251.772 169.23 250.072 169.23Z" fill="#CECECE"/>
<path d="M671.955 476.78L413.93 418.427C398.292 414.757 377.895 415.123 362.937 419.161L142.647 476.78H671.955Z" fill="#919191"/>
<path d="M196.699 310.894L196.359 303.921L194.659 277.497L193.3 255.109C192.28 236.759 186.5 223.547 180.041 223.547H165.083C158.284 223.547 152.845 236.759 151.825 255.109L150.465 277.497L148.766 303.921L148.426 310.894L146.726 337.318L134.488 544.31H210.977L198.739 337.318L196.699 310.894Z" fill="#919191"/>
<path d="M196.359 303.554H148.425L150.125 277.497H194.659L196.359 303.554Z" fill="#9B4A48"/>
<path d="M196.699 310.894H148.086L146.386 336.952H198.059L196.699 310.894Z" fill="#9B4A48"/>
<path d="M248.712 270.891V225.749C248.712 218.409 254.831 212.537 261.63 214.372C261.63 214.372 261.63 214.372 261.97 214.372C270.469 216.574 267.75 215.106 277.608 216.207C287.807 217.308 296.986 214.739 307.524 215.473C319.762 216.207 322.482 224.281 307.524 224.648C294.606 225.015 268.769 221.712 268.769 227.951C268.769 234.191 296.646 227.217 296.986 233.09C297.326 238.228 276.588 233.457 263.67 234.558C260.61 234.925 258.231 237.494 258.231 240.797V270.891H248.712Z" fill="#CECECE"/>
<path d="M328.262 216.941C327.242 216.941 326.222 216.941 324.862 216.941C323.842 216.941 323.162 217.308 322.142 217.308C319.423 217.676 319.423 222.814 322.142 223.548C323.162 223.548 323.842 223.915 324.862 223.915C325.882 223.915 326.902 223.915 328.262 223.915C329.961 223.915 331.661 222.08 331.661 220.245C331.321 218.777 329.961 216.941 328.262 216.941Z" fill="#CECECE"/>
<path d="M303.785 231.255C303.105 231.255 302.765 231.255 302.085 231.255C301.065 231.255 300.385 231.989 300.385 233.09C300.385 234.191 301.065 234.925 302.085 234.925C302.765 234.925 303.105 234.925 303.785 234.925C304.805 234.925 305.485 234.191 305.485 233.09C305.485 232.356 304.805 231.255 303.785 231.255Z" fill="#CECECE"/>
<path d="M268.43 324.107L268.09 319.335L267.41 302.453L266.39 287.773C265.71 275.662 261.971 266.854 257.551 266.854H247.692C243.273 266.854 239.534 275.662 238.854 287.773L237.834 302.453L236.814 319.703L236.474 324.474L235.454 341.723L227.295 477.882H277.608L269.449 341.723L268.43 324.107Z" fill="#919191"/>
<path d="M268.429 319.703H236.814L237.834 302.453H267.41L268.429 319.703Z" fill="#9B4A48"/>
<path d="M268.429 324.107H236.814L235.794 341.723H269.449L268.429 324.107Z" fill="#9B4A48"/>
<path d="M110.691 258.046L110.351 251.072L108.991 224.648L107.631 202.261C106.611 183.91 101.172 170.698 95.0528 170.698H80.4347C73.9756 170.698 68.8763 183.91 67.8565 202.261L66.4966 224.648L65.1368 251.072L64.7969 258.046L63.437 284.47L51.8786 491.461H124.289L112.73 284.47L110.691 258.046Z" fill="#919191"/>
<path d="M110.351 251.073H65.1367L66.4965 224.648H108.651L110.351 251.073Z" fill="#9B4A48"/>
<path d="M110.69 258.045H64.7966L63.0969 284.469H112.05L110.69 258.045Z" fill="#9B4A48"/>
<path d="M55.2781 440.814H23.3224V472.744H55.2781V440.814Z" stroke="#7C797B" stroke-width="3.30357" stroke-miterlimit="10" stroke-linecap="round" stroke-linejoin="round"/>
<path d="M23.3224 440.814L55.2781 472.744" stroke="#7C797B" stroke-width="3.30357" stroke-miterlimit="10" stroke-linecap="round" stroke-linejoin="round"/>
<path d="M55.2781 440.814L23.3224 472.744" stroke="#7C797B" stroke-width="3.30357" stroke-miterlimit="10" stroke-linecap="round" stroke-linejoin="round"/>
<path d="M55.2781 408.884H23.3224V440.813H55.2781V408.884Z" stroke="#7C797B" stroke-width="3.30357" stroke-miterlimit="10" stroke-linecap="round" stroke-linejoin="round"/>
<path d="M23.3224 408.884L55.2781 440.813" stroke="#7C797B" stroke-width="3.30357" stroke-miterlimit="10" stroke-linecap="round" stroke-linejoin="round"/>
<path d="M55.2781 408.884L23.3224 440.813" stroke="#7C797B" stroke-width="3.30357" stroke-miterlimit="10" stroke-linecap="round" stroke-linejoin="round"/>
<path d="M55.2781 376.588H23.3224V408.517H55.2781V376.588Z" stroke="#7C797B" stroke-width="3.30357" stroke-miterlimit="10" stroke-linecap="round" stroke-linejoin="round"/>
<path d="M23.3224 376.588L55.2781 408.884" stroke="#7C797B" stroke-width="3.30357" stroke-miterlimit="10" stroke-linecap="round" stroke-linejoin="round"/>
<path d="M55.2781 376.588L23.3224 408.884" stroke="#7C797B" stroke-width="3.30357" stroke-miterlimit="10" stroke-linecap="round" stroke-linejoin="round"/>
<path d="M332.681 475.313H220.836V374.753C220.836 369.615 224.916 365.211 229.675 365.211H323.842C328.602 365.211 332.681 369.615 332.681 374.753V475.313Z" fill="#ADADAD"/>
<path d="M243.273 376.221H232.055V385.396H243.273V376.221Z" fill="#DADFE3"/>
<path d="M262.651 376.221H251.432V385.396H262.651V376.221Z" fill="#DADFE3"/>
<path d="M282.368 376.221H271.15V385.396H282.368V376.221Z" fill="#DADFE3"/>
<path d="M301.746 376.221H290.527V385.396H301.746V376.221Z" fill="#DADFE3"/>
<path d="M321.123 376.221H309.905V385.396H321.123V376.221Z" fill="#DADFE3"/>
<path d="M243.273 391.269H232.055V400.444H243.273V391.269Z" fill="#DADFE3"/>
<path d="M262.651 391.269H251.432V400.444H262.651V391.269Z" fill="#DADFE3"/>
<path d="M282.368 391.269H271.15V400.444H282.368V391.269Z" fill="#DADFE3"/>
<path d="M301.746 391.269H290.527V400.444H301.746V391.269Z" fill="#DADFE3"/>
<path d="M321.123 391.269H309.905V400.444H321.123V391.269Z" fill="#DADFE3"/>
<path d="M243.273 405.948H232.055V415.123H243.273V405.948Z" fill="#DADFE3"/>
<path d="M262.651 405.948H251.432V415.123H262.651V405.948Z" fill="#DADFE3"/>
<path d="M282.368 405.948H271.15V415.123H282.368V405.948Z" fill="#DADFE3"/>
<path d="M301.746 405.948H290.527V415.123H301.746V405.948Z" fill="#DADFE3"/>
<path d="M321.123 405.948H309.905V415.123H321.123V405.948Z" fill="#DADFE3"/>
<path d="M243.273 420.996H232.055V430.171H243.273V420.996Z" fill="#DADFE3"/>
<path d="M262.651 420.996H251.432V430.171H262.651V420.996Z" fill="#DADFE3"/>
<path d="M282.368 420.996H271.15V430.171H282.368V420.996Z" fill="#DADFE3"/>
<path d="M301.746 420.996H290.527V430.171H301.746V420.996Z" fill="#DADFE3"/>
<path d="M321.123 420.996H309.905V430.171H321.123V420.996Z" fill="#DADFE3"/>
<path d="M243.273 435.676H232.055V444.851H243.273V435.676Z" fill="#DADFE3"/>
<path d="M262.651 435.676H251.432V444.851H262.651V435.676Z" fill="#DADFE3"/>
<path d="M282.368 435.676H271.15V444.851H282.368V435.676Z" fill="#DADFE3"/>
<path d="M301.746 435.676H290.527V444.851H301.746V435.676Z" fill="#DADFE3"/>
<path d="M321.123 435.676H309.905V444.851H321.123V435.676Z" fill="#DADFE3"/>
<path d="M353.758 475.313H293.926V409.986C293.926 404.848 298.006 400.444 302.765 400.444H344.58C349.339 400.444 353.418 404.848 353.418 409.986V475.313H353.758Z" fill="#CECCCD"/>
<path d="M307.184 405.949H301.405V473.111H307.184V405.949Z" fill="#DADFE3"/>
<path d="M316.703 405.949H310.924V473.111H316.703V405.949Z" fill="#DADFE3"/>
<path d="M326.562 405.949H320.783V473.111H326.562V405.949Z" fill="#DADFE3"/>
<path d="M336.42 405.949H330.641V473.111H336.42V405.949Z" fill="#DADFE3"/>
<path d="M346.279 405.949H340.5V473.111H346.279V405.949Z" fill="#DADFE3"/>
<path d="M261.63 435.31H224.575V472.744H261.63V435.31Z" stroke="#7C797B" stroke-width="3.30357" stroke-miterlimit="10" stroke-linecap="round" stroke-linejoin="round"/>
<path d="M224.575 435.31L261.29 472.744" stroke="#7C797B" stroke-width="3.30357" stroke-miterlimit="10" stroke-linecap="round" stroke-linejoin="round"/>
<path d="M261.29 435.31L224.575 472.744" stroke="#7C797B" stroke-width="3.30357" stroke-miterlimit="10" stroke-linecap="round" stroke-linejoin="round"/>
<path d="M261.63 397.875H224.575V435.31H261.63V397.875Z" stroke="#7C797B" stroke-width="3.30357" stroke-miterlimit="10" stroke-linecap="round" stroke-linejoin="round"/>
<path d="M224.575 397.875L261.29 435.31" stroke="#7C797B" stroke-width="3.30357" stroke-miterlimit="10" stroke-linecap="round" stroke-linejoin="round"/>
<path d="M261.29 397.875L224.575 435.31" stroke="#7C797B" stroke-width="3.30357" stroke-miterlimit="10" stroke-linecap="round" stroke-linejoin="round"/>
<path d="M261.63 360.44H224.575V397.875H261.63V360.44Z" stroke="#7C797B" stroke-width="3.30357" stroke-miterlimit="10" stroke-linecap="round" stroke-linejoin="round"/>
<path d="M224.575 360.44L261.29 397.875" stroke="#7C797B" stroke-width="3.30357" stroke-miterlimit="10" stroke-linecap="round" stroke-linejoin="round"/>
<path d="M261.29 360.44L224.575 397.875" stroke="#7C797B" stroke-width="3.30357" stroke-miterlimit="10" stroke-linecap="round" stroke-linejoin="round"/>
<path d="M227.975 385.396V476.046H101.172V383.194C101.172 382.46 101.172 381.726 101.172 380.992C102.192 350.897 125.649 327.042 154.205 327.042H174.942C203.498 327.042 226.955 350.897 227.975 380.992V385.396Z" fill="#CECCCD"/>
<path d="M227.975 385.396H101.172V383.194C101.172 382.46 101.172 381.726 101.172 380.992H227.975V385.396Z" fill="#CE6721"/>
<g opacity="0.3">
<path d="M101.172 390.901H227.975" stroke="#7C797B" stroke-width="1.10119" stroke-miterlimit="10"/>
<path d="M101.172 398.608H227.975" stroke="#7C797B" stroke-width="1.10119" stroke-miterlimit="10"/>
<path d="M101.172 406.315H227.975" stroke="#7C797B" stroke-width="1.10119" stroke-miterlimit="10"/>
<path d="M101.172 414.023H227.975" stroke="#7C797B" stroke-width="1.10119" stroke-miterlimit="10"/>
<path d="M101.172 421.73H227.975" stroke="#7C797B" stroke-width="1.10119" stroke-miterlimit="10"/>
</g>
<path d="M181.401 451.089V476.046H147.745V450.355C147.745 449.988 147.745 449.988 147.745 449.621C148.085 441.18 154.204 434.574 162.023 434.574H167.463C174.942 434.574 181.401 441.18 181.741 449.621L181.401 451.089Z" fill="#B5B5B5"/>
<path d="M130.068 378.057C129.728 378.057 129.728 378.424 129.728 378.791V389.067C124.629 389.067 117.49 389.067 115.79 389.067V378.791C115.79 378.424 115.45 378.057 115.45 378.057C115.45 378.057 115.11 378.424 115.11 378.791V498.435C115.11 498.802 115.45 499.169 115.45 499.169C115.45 499.169 115.79 498.802 115.79 498.435V493.296C116.47 493.296 117.49 493.296 119.529 493.296C121.569 493.296 124.969 493.296 129.728 493.296V498.435C129.728 498.802 130.068 499.169 130.068 499.169C130.068 499.169 130.408 498.802 130.408 498.435V378.791C130.408 378.424 130.068 378.057 130.068 378.057ZM119.19 401.178C121.229 401.178 124.629 401.178 129.388 401.178V409.619C124.289 409.619 117.15 409.619 115.45 409.619V400.811C116.13 400.811 117.15 401.178 119.19 401.178ZM119.19 411.087C121.229 411.087 124.629 411.087 129.388 411.087V419.528C124.289 419.528 117.15 419.528 115.45 419.528V410.72C116.13 411.087 117.15 411.087 119.19 411.087ZM119.19 421.363C121.229 421.363 124.629 421.363 129.388 421.363V429.804C124.289 429.804 117.15 429.804 115.45 429.804V420.996C116.13 421.363 117.15 421.363 119.19 421.363ZM119.19 431.64C121.229 431.64 124.629 431.64 129.388 431.64V440.081C124.289 440.081 117.15 440.081 115.45 440.081V431.272C116.13 431.639 117.15 431.64 119.19 431.64ZM119.19 441.916C121.229 441.916 124.629 441.916 129.388 441.916V450.357C124.289 450.357 117.15 450.357 115.45 450.357V441.916C116.13 441.916 117.15 441.916 119.19 441.916ZM119.19 452.192C121.229 452.192 124.629 452.192 129.388 452.192V460.633C124.289 460.633 117.15 460.633 115.45 460.633V451.825C116.13 452.192 117.15 452.192 119.19 452.192ZM119.19 462.468C121.229 462.468 124.629 462.468 129.388 462.468V470.909C124.289 470.909 117.15 470.909 115.45 470.909V462.101C116.13 462.468 117.15 462.468 119.19 462.468ZM115.45 472.744C116.13 472.744 117.15 472.744 119.19 472.744C121.229 472.744 124.629 472.744 129.388 472.744V481.185C124.289 481.185 117.15 481.185 115.45 481.185V472.744ZM129.388 390.535V398.976C124.289 398.976 117.15 398.976 115.45 398.976V390.535C116.13 390.535 117.15 390.535 119.19 390.535C121.229 390.902 124.629 390.902 129.388 390.535ZM115.45 491.461V482.653C116.13 482.653 117.15 482.653 119.19 482.653C121.229 482.653 124.629 482.653 129.388 482.653V491.094C124.289 491.461 117.15 491.461 115.45 491.461Z" fill="#7C797B"/>
<path d="M284.067 451.457V474.946H255.511V451.09C255.511 450.723 255.511 450.723 255.511 450.356C255.851 442.649 260.951 436.41 267.41 436.41H272.169C278.628 436.41 284.067 442.649 284.067 450.356V451.457Z" fill="#CECCCD"/>
<path d="M284.067 451.458H255.511V451.091C255.511 450.724 255.511 450.724 255.511 450.357H284.067V451.458Z" fill="#CE6721"/>
<g opacity="0.3">
<path d="M255.171 452.925H284.067" stroke="#7C797B" stroke-width="1.10119" stroke-miterlimit="10"/>
<path d="M255.171 454.76H284.067" stroke="#7C797B" stroke-width="1.10119" stroke-miterlimit="10"/>
<path d="M255.171 456.595H284.067" stroke="#7C797B" stroke-width="1.10119" stroke-miterlimit="10"/>
<path d="M255.171 458.797H284.067" stroke="#7C797B" stroke-width="1.10119" stroke-miterlimit="10"/>
<path d="M255.171 460.632H284.067" stroke="#7C797B" stroke-width="1.10119" stroke-miterlimit="10"/>
</g>
<path d="M87.5742 441.181V473.478H44.0601V440.447C44.0601 440.08 44.0601 440.08 44.0601 439.713C44.4001 429.07 52.5589 420.629 62.4176 420.629H69.5567C79.4153 420.629 87.5742 429.07 87.9142 439.713L87.5742 441.181Z" fill="#CECCCD"/>
<path d="M87.5742 441.181H44.0601V440.447C44.0601 440.08 44.0601 440.08 44.0601 439.713H87.5742V441.181Z" fill="#CE6721"/>
<g opacity="0.3">
<path d="M44.0601 443.017H87.5742" stroke="#7C797B" stroke-width="1.10119" stroke-miterlimit="10"/>
<path d="M44.0601 445.586H87.5742" stroke="#7C797B" stroke-width="1.10119" stroke-miterlimit="10"/>
<path d="M44.0601 448.522H87.5742" stroke="#7C797B" stroke-width="1.10119" stroke-miterlimit="10"/>
<path d="M44.0601 451.091H87.5742" stroke="#7C797B" stroke-width="1.10119" stroke-miterlimit="10"/>
<path d="M44.0601 454.026H87.5742" stroke="#7C797B" stroke-width="1.10119" stroke-miterlimit="10"/>
</g>
<path d="M112.05 474.212H103.891V465.037C103.891 459.899 99.812 455.495 95.0527 455.495C90.2933 455.495 86.2139 459.899 86.2139 465.037V474.212H78.055V465.037C78.055 454.761 85.534 446.687 95.0527 446.687C104.571 446.687 112.05 455.128 112.05 465.037V474.212Z" fill="#494748"/>
<path d="M72.6158 474.212H64.4569V465.037C64.4569 459.899 60.3774 455.495 55.6181 455.495C50.8587 455.495 46.7793 459.899 46.7793 465.037V474.212H38.6204V465.037C38.6204 454.761 46.4393 446.687 55.6181 446.687C65.1368 446.687 72.6158 455.128 72.6158 465.037V474.212Z" fill="#494748"/>
<path d="M33.1813 474.212H25.0224V465.037C25.0224 459.899 20.943 455.495 16.1836 455.495C11.4242 455.495 7.3448 459.899 7.3448 465.037V474.212H-0.814102V465.037C-0.814102 454.761 6.66489 446.687 16.1836 446.687C25.7023 446.687 33.1813 455.128 33.1813 465.037V474.212Z" fill="#494748"/>
<path d="M343.899 474.212H335.74V465.037C335.74 459.899 331.661 455.495 326.901 455.495C322.142 455.495 318.063 459.899 318.063 465.037V474.212H309.904V465.037C309.904 454.761 317.723 446.687 326.901 446.687C336.42 446.687 343.899 455.128 343.899 465.037V474.212Z" fill="#494748"/>
<path d="M304.465 474.212H296.306V465.037C296.306 459.899 292.226 455.495 287.467 455.495C282.708 455.495 278.628 459.899 278.628 465.037V474.212H270.469V465.037C270.469 454.761 278.288 446.687 287.467 446.687C296.986 446.687 304.465 455.128 304.465 465.037V474.212Z" fill="#494748"/>
<path d="M438.068 461.735C436.368 461.001 433.648 461.001 432.289 462.469C431.949 462.469 429.569 462.469 429.229 462.836C428.889 463.57 428.889 466.506 427.529 467.607C425.829 469.075 428.889 470.543 429.909 470.543C430.589 470.543 435.348 470.543 436.708 470.543C437.728 470.543 438.408 469.809 439.088 468.708C439.428 468.341 439.428 467.607 439.768 467.24C440.108 466.139 440.448 466.139 440.787 465.405C441.807 463.57 439.088 462.102 438.068 461.735Z" fill="#494748"/>
<path d="M462.884 461.735C461.184 461.001 458.465 461.001 457.105 462.469C456.765 462.469 456.425 462.469 456.085 462.469C455.745 462.469 454.385 462.102 454.045 462.836C453.705 463.57 454.045 463.937 454.385 464.304C455.405 466.506 453.705 466.506 452.685 467.607C450.986 469.075 454.045 470.543 455.065 470.543C455.745 470.543 456.765 469.809 457.445 469.442C458.465 469.075 460.504 470.543 461.864 470.176C462.884 470.176 463.564 469.442 464.244 468.341C464.584 467.974 464.584 467.24 464.924 466.873C465.264 465.772 465.604 465.772 465.944 465.038C466.624 463.937 463.904 462.469 462.884 461.735Z" fill="#494748"/>
<path d="M456.425 470.542H436.028L435.008 441.182H457.785L456.425 470.542Z" fill="#F15C00"/>
<path d="M456.425 470.542H436.028L435.008 441.182H457.785L456.425 470.542Z" fill="#939393"/>
<path d="M436.028 470.542H440.107L439.767 441.182H435.008L436.028 470.542Z" fill="#ADADAD"/>
<path d="M456.425 470.542H452.345L452.685 441.182H457.784L456.425 470.542Z" fill="#ADADAD"/>
<path d="M448.606 470.542H444.187L443.847 441.182H448.606V470.542Z" fill="#ADADAD"/>
<path d="M450.306 434.943C449.966 433.475 448.606 432.374 447.246 432.741H446.226C444.867 432.741 443.847 434.209 443.507 435.31L450.306 434.943Z" fill="#ADADAD"/>
<path d="M459.983 434.283L433.533 436.295L433.82 440.688L460.27 438.676L459.983 434.283Z" fill="#ADADAD"/>
<path d="M457.785 470.543H465.264C465.264 470.543 467.304 469.442 466.284 468.341C465.264 467.24 463.904 465.405 463.224 465.772C462.544 466.506 459.825 464.304 459.485 465.772C459.145 467.24 458.805 466.873 458.125 467.607C457.445 468.708 456.085 470.543 457.785 470.543Z" fill="#CE6721"/>
<path d="M449.286 470.542H459.485C459.485 470.542 460.165 467.239 459.145 466.872C457.785 466.505 457.105 465.037 457.105 464.303C457.105 463.569 454.725 463.569 454.725 465.037C454.725 466.505 453.026 466.872 452.346 467.239C451.326 467.606 449.286 470.542 449.286 470.542Z" fill="#9B4A48"/>
<path d="M428.889 470.543H435.688C435.688 470.543 436.368 466.139 435.348 465.405C433.988 464.671 432.628 465.405 431.948 465.772C430.589 466.506 428.889 470.543 428.889 470.543Z" fill="#9B4A48"/>
<path opacity="0.2" d="M512.858 100.968C516.258 100.968 519.657 102.069 522.717 103.904C534.615 79.315 549.573 64.6348 566.231 64.6348C581.189 64.6348 595.127 76.746 606.345 96.9313C613.824 92.5272 621.983 89.9582 630.482 89.9582C645.1 89.9582 658.358 97.2983 668.557 109.042C672.976 104.271 678.416 100.968 684.195 100.968C691.334 100.968 697.793 105.372 702.552 112.713H671.617H665.497H613.824H589.348H531.555H518.977H494.5C498.92 105.372 505.379 100.968 512.858 100.968Z" fill="#C7EED4"/>
<path opacity="0.2" d="M1036.73 65.3686C1031.63 65.3686 1026.53 66.8367 1022.11 69.7727C1004.43 33.0721 981.654 11.0518 956.837 11.0518C934.4 11.0518 914.003 29.035 897.005 59.4965C886.127 52.8904 873.889 49.2203 860.97 49.2203C839.213 49.2203 819.496 59.8635 804.198 77.4798C797.739 70.1397 789.58 65.7356 781.081 65.7356C770.203 65.7356 760.684 72.3417 753.545 83.3519H799.779H808.957H885.787H922.502H1008.85H1027.55H1063.92C1057.12 71.9747 1047.27 65.3686 1036.73 65.3686Z" fill="#C7EED4"/>
<path d="M1286.94 108.225C1304.08 105.215 1315.87 88.8298 1313.27 71.6272C1310.68 54.4245 1294.69 42.919 1277.56 45.9289C1260.42 48.9389 1248.63 65.3244 1251.22 82.5271C1253.82 99.7297 1269.81 111.235 1286.94 108.225Z" fill="#C7EED4"/>
<path opacity="0.2" d="M1044.43 162.133C1061.83 162.133 1075.93 148.03 1075.93 130.633C1075.93 113.236 1061.83 99.1328 1044.43 99.1328C1027.03 99.1328 1012.93 113.236 1012.93 130.633C1012.93 148.03 1027.03 162.133 1044.43 162.133Z" fill="#C7EED4"/>
<path opacity="0.2" d="M230.695 129.227C235.114 129.227 239.194 130.695 242.933 132.897C257.891 102.069 276.929 83.3516 297.666 83.3516C316.363 83.3516 333.701 98.3988 347.979 124.089C357.158 118.584 367.357 115.281 378.235 115.281C396.593 115.281 413.25 124.089 426.169 139.136C431.608 132.897 438.407 129.227 445.546 129.227C454.725 129.227 462.884 134.732 468.663 143.908H429.908H422.089H357.158H326.222H253.812H238.174H207.578C213.357 135.099 221.516 129.227 230.695 129.227Z" fill="#C7EED4"/>
<path opacity="0.2" d="M509.117 90.6923C509.117 86.2882 512.517 82.6182 516.596 82.6182C520.676 82.6182 524.075 86.2882 524.075 90.6923C524.075 95.0964 520.676 98.7664 516.596 98.7664C512.517 98.7664 509.117 95.0964 509.117 90.6923Z" fill="#C7EED4"/>
</g>
<defs>
<clipPath id="clip0_1_234">
<rect width="1440" height="465" fill="white"/>
</clipPath>
</defs>
</svg>
