<svg width="1440" height="513" viewBox="0 0 1440 513" fill="none" xmlns="http://www.w3.org/2000/svg">
<path opacity="0.29" d="M1508.9 426.007C1506.34 415.736 1501.93 405.832 1493.86 399.23C1479.19 387.125 1457.55 390.426 1438.84 394.828C1438.48 352.277 1380.52 322.932 1346.04 347.875C1344.94 318.163 1325.13 289.918 1297.25 279.281C1269.37 268.643 1235.99 275.979 1215.08 297.621C1202.61 270.477 1174.37 251.402 1144.66 250.302C1114.94 249.202 1084.86 266.075 1070.56 292.119C1027.27 256.905 957.945 259.839 917.229 297.988C855.603 260.206 763.899 288.084 733.453 353.744C706.676 306.425 632.579 296.154 593.696 334.303C593.329 305.691 573.888 278.18 547.11 267.542C520.333 257.272 487.686 264.608 467.878 285.516C455.406 261.673 441.834 236.73 417.991 224.258C394.148 211.786 358.2 220.223 352.331 246.267C309.78 218.756 252.556 215.821 207.071 238.197C191.298 245.9 174.791 262.774 182.127 278.914C163.42 252.136 124.904 241.498 95.1919 254.704C65.4797 267.909 47.8725 303.857 55.5757 335.404C37.6016 325.866 13.3917 330.268 0.18631 345.674C-13.0191 361.081 -14.1196 385.657 -2.0146 401.797C-15.22 383.457 -40.8972 397.396 -55.203 414.636C-69.5089 431.876 -95.5529 512.209 -25.4909 523.581L1450.58 543.389C1496.8 529.817 1521.01 472.96 1508.9 426.007Z" fill="#F6FAF3"/>
<path d="M510.061 503.405V376.854C510.061 373.185 507.127 369.884 503.092 369.884H442.2C438.532 369.884 435.231 372.819 435.231 376.854V473.326C435.231 476.994 432.296 480.296 428.261 480.296H353.431C349.762 480.296 346.461 477.361 346.461 473.326V245.533C346.461 241.865 343.526 238.563 339.492 238.563H266.495C262.827 238.563 259.525 241.498 259.525 245.533V410.967C259.525 414.636 256.591 417.937 252.556 417.937H222.11C218.442 417.937 215.141 415.002 215.141 410.967V230.494C215.141 224.624 208.538 221.69 204.136 224.991L149.114 269.009C147.646 270.477 146.546 272.311 146.546 274.512V312.294C146.546 315.962 143.611 319.263 139.576 319.263H47.1385C43.4703 319.263 40.1689 322.198 40.1689 326.233V514.41C40.1689 518.078 43.1035 521.379 47.1385 521.379H503.459C507.127 521.379 510.428 518.445 510.428 514.41V503.405H510.061Z" fill="#D6EDD6"/>
<path d="M-3.48242 439.579V528.716C-3.48242 531.65 -1.28153 533.851 1.65301 533.851H550.778C553.712 533.851 555.913 531.65 555.913 528.716V450.584C555.913 447.649 553.712 445.448 550.778 445.448H515.197C512.262 445.448 510.061 447.649 510.061 450.584V478.829C510.061 481.763 507.86 483.964 504.926 483.964H467.51C464.576 483.964 462.375 481.763 462.375 478.829V349.342C462.375 346.408 460.174 344.207 457.24 344.207H424.96C422.025 344.207 419.824 346.408 419.824 349.342V452.418C419.824 455.352 417.623 457.553 414.689 457.553C411.754 457.553 409.553 455.352 409.553 452.418V272.678C409.553 269.743 407.352 267.542 404.418 267.542H327.753C324.819 267.542 322.618 269.743 322.618 272.678V510.008C322.618 512.943 320.417 515.144 317.482 515.144H285.202C282.268 515.144 280.067 512.943 280.067 510.008V381.989C280.067 379.055 277.866 376.854 274.932 376.854H197.166C194.232 376.854 192.031 379.055 192.031 381.989V476.995C192.031 479.929 189.83 482.13 186.896 482.13H134.441C131.506 482.13 129.305 479.929 129.305 476.995V254.704C129.305 251.769 127.104 249.568 124.17 249.568H58.5096C55.5751 249.568 53.3742 251.769 53.3742 254.704V429.308C53.3742 432.243 51.1733 434.444 48.2388 434.444H1.65301C-1.28153 434.811 -3.48242 437.012 -3.48242 439.579Z" fill="#CCE2CC"/>
<path d="M334.001 290.251H396.359V282.914H334.001V290.251Z" fill="#DADFE3"/>
<path d="M334.001 308.877H396.359V301.541H334.001V308.877Z" fill="#DADFE3"/>
<path d="M334.001 327.504H396.359V320.168H334.001V327.504Z" fill="#DADFE3"/>
<path d="M334.001 346.131H396.359V338.795H334.001V346.131Z" fill="#DADFE3"/>
<path d="M334.001 364.758H396.359V357.422H334.001V364.758Z" fill="#DADFE3"/>
<path d="M334.001 383.385H396.359V376.048H334.001V383.385Z" fill="#DADFE3"/>
<path d="M334.001 402.011H396.359V394.675H334.001V402.011Z" fill="#DADFE3"/>
<path d="M334.001 420.638H396.359V413.301H334.001V420.638Z" fill="#DADFE3"/>
<path d="M334.001 439.632H396.359V432.295H334.001V439.632Z" fill="#DADFE3"/>
<path d="M263.784 394.619H272.954V385.448H263.784V394.619Z" fill="#DADFE3"/>
<path d="M248.011 394.619H257.182V385.448H248.011V394.619Z" fill="#DADFE3"/>
<path d="M232.24 394.619H241.41V385.448H232.24V394.619Z" fill="#DADFE3"/>
<path d="M216.468 394.619H225.639V385.448H216.468V394.619Z" fill="#DADFE3"/>
<path d="M200.697 394.619H209.867V385.448H200.697V394.619Z" fill="#DADFE3"/>
<path d="M263.784 409.608H272.954V400.437H263.784V409.608Z" fill="#DADFE3"/>
<path d="M248.011 409.608H257.182V400.437H248.011V409.608Z" fill="#DADFE3"/>
<path d="M232.24 409.608H241.41V400.437H232.24V409.608Z" fill="#DADFE3"/>
<path d="M216.468 409.608H225.639V400.437H216.468V409.608Z" fill="#DADFE3"/>
<path d="M200.697 409.608H209.867V400.437H200.697V409.608Z" fill="#DADFE3"/>
<path d="M263.784 424.229H272.954V415.059H263.784V424.229Z" fill="#DADFE3"/>
<path d="M248.011 424.229H257.182V415.059H248.011V424.229Z" fill="#DADFE3"/>
<path d="M232.24 424.229H241.41V415.059H232.24V424.229Z" fill="#DADFE3"/>
<path d="M216.468 424.229H225.639V415.059H216.468V424.229Z" fill="#DADFE3"/>
<path d="M200.697 424.229H209.867V415.059H200.697V424.229Z" fill="#DADFE3"/>
<path d="M263.784 439.218H272.954V430.048H263.784V439.218Z" fill="#DADFE3"/>
<path d="M248.011 439.218H257.182V430.048H248.011V439.218Z" fill="#DADFE3"/>
<path d="M232.24 439.218H241.41V430.048H232.24V439.218Z" fill="#DADFE3"/>
<path d="M216.468 439.218H225.639V430.048H216.468V439.218Z" fill="#DADFE3"/>
<path d="M200.697 439.218H209.867V430.048H200.697V439.218Z" fill="#DADFE3"/>
<path d="M263.784 454.207H272.954V445.037H263.784V454.207Z" fill="#DADFE3"/>
<path d="M248.011 454.207H257.182V445.037H248.011V454.207Z" fill="#DADFE3"/>
<path d="M232.24 454.207H241.41V445.037H232.24V454.207Z" fill="#DADFE3"/>
<path d="M216.468 454.207H225.639V445.037H216.468V454.207Z" fill="#DADFE3"/>
<path d="M200.697 454.207H209.867V445.037H200.697V454.207Z" fill="#DADFE3"/>
<path d="M845.332 521.38C850.101 521.38 853.769 517.711 853.769 512.943V328.067C853.769 323.298 850.101 319.63 845.332 319.63H755.095C750.326 319.63 746.658 315.962 746.658 311.193V240.398C746.658 232.695 737.121 228.66 731.619 234.529L679.897 291.019C678.43 292.486 677.697 294.687 677.697 296.888V409.867C677.697 414.636 674.028 418.304 669.26 418.304H642.115C637.347 418.304 633.679 414.636 633.679 409.867V247.734C633.679 242.965 630.01 239.297 625.242 239.297H555.913C551.145 239.297 547.477 242.965 547.477 247.734V521.38H845.332Z" fill="#D6EDD6"/>
<path d="M897.42 440.68V530.183C897.42 533.117 895.219 535.318 892.285 535.318H343.16C340.225 535.318 338.024 533.117 338.024 530.183V452.051C338.024 449.116 340.225 446.915 343.16 446.915H378.741C381.676 446.915 383.877 449.116 383.877 452.051V480.296C383.877 483.23 386.077 485.431 389.012 485.431H426.427C429.362 485.431 431.563 483.23 431.563 480.296V350.809C431.563 347.875 433.764 345.674 436.698 345.674H468.978C471.913 345.674 474.113 347.875 474.113 350.809V453.885C474.113 456.819 476.314 459.02 479.249 459.02C482.183 459.02 484.384 456.819 484.384 453.885V274.145C484.384 271.21 486.585 269.009 489.52 269.009H566.185C569.119 269.009 571.32 271.21 571.32 274.145V511.475C571.32 514.41 573.521 516.611 576.455 516.611H608.735C611.67 516.611 613.871 514.41 613.871 511.475V383.456C613.871 380.522 616.072 378.321 619.006 378.321H696.771C699.706 378.321 701.907 380.522 701.907 383.456V478.462C701.907 481.396 704.108 483.597 707.042 483.597H759.864C762.798 483.597 764.999 481.396 764.999 478.462V256.171C764.999 253.236 767.2 251.035 770.135 251.035H835.795C838.729 251.035 840.93 253.236 840.93 256.171V430.775C840.93 433.71 843.131 435.911 846.066 435.911H892.652C895.219 435.911 897.42 438.112 897.42 440.68Z" fill="#CCE2CC"/>
<path d="M558.482 283.682H495.022V291.018H558.482V283.682Z" fill="#DADFE3"/>
<path d="M558.482 302.39H495.022V309.726H558.482V302.39Z" fill="#DADFE3"/>
<path d="M558.482 321.097H495.022V328.434H558.482V321.097Z" fill="#DADFE3"/>
<path d="M558.482 339.805H495.022V347.141H558.482V339.805Z" fill="#DADFE3"/>
<path d="M558.482 358.512H495.022V365.849H558.482V358.512Z" fill="#DADFE3"/>
<path d="M558.482 377.22H495.022V384.557H558.482V377.22Z" fill="#DADFE3"/>
<path d="M558.482 395.928H495.022V403.265H558.482V395.928Z" fill="#DADFE3"/>
<path d="M558.482 414.636H495.022V421.972H558.482V414.636Z" fill="#DADFE3"/>
<path d="M558.482 433.343H495.022V440.68H558.482V433.343Z" fill="#DADFE3"/>
<path d="M630.01 386.757H620.84V395.928H630.01V386.757Z" fill="#DADFE3"/>
<path d="M645.784 386.757H636.613V395.928H645.784V386.757Z" fill="#DADFE3"/>
<path d="M661.556 386.757H652.386V395.928H661.556V386.757Z" fill="#DADFE3"/>
<path d="M677.33 386.757H668.159V395.928H677.33V386.757Z" fill="#DADFE3"/>
<path d="M693.103 386.757H683.933V395.928H693.103V386.757Z" fill="#DADFE3"/>
<path d="M630.01 401.43H620.84V410.601H630.01V401.43Z" fill="#DADFE3"/>
<path d="M645.784 401.43H636.613V410.601H645.784V401.43Z" fill="#DADFE3"/>
<path d="M661.556 401.43H652.386V410.601H661.556V401.43Z" fill="#DADFE3"/>
<path d="M677.33 401.43H668.159V410.601H677.33V401.43Z" fill="#DADFE3"/>
<path d="M693.103 401.43H683.933V410.601H693.103V401.43Z" fill="#DADFE3"/>
<path d="M630.01 416.47H620.84V425.64H630.01V416.47Z" fill="#DADFE3"/>
<path d="M645.784 416.47H636.613V425.64H645.784V416.47Z" fill="#DADFE3"/>
<path d="M661.556 416.47H652.386V425.64H661.556V416.47Z" fill="#DADFE3"/>
<path d="M677.33 416.47H668.159V425.64H677.33V416.47Z" fill="#DADFE3"/>
<path d="M693.103 416.47H683.933V425.64H693.103V416.47Z" fill="#DADFE3"/>
<path d="M630.01 431.143H620.84V440.313H630.01V431.143Z" fill="#DADFE3"/>
<path d="M645.784 431.143H636.613V440.313H645.784V431.143Z" fill="#DADFE3"/>
<path d="M661.556 431.143H652.386V440.313H661.556V431.143Z" fill="#DADFE3"/>
<path d="M677.33 431.143H668.159V440.313H677.33V431.143Z" fill="#DADFE3"/>
<path d="M693.103 431.143H683.933V440.313H693.103V431.143Z" fill="#DADFE3"/>
<path d="M630.01 445.815H620.84V454.985H630.01V445.815Z" fill="#DADFE3"/>
<path d="M645.784 445.815H636.613V454.985H645.784V445.815Z" fill="#DADFE3"/>
<path d="M661.556 445.815H652.386V454.985H661.556V445.815Z" fill="#DADFE3"/>
<path d="M677.33 445.815H668.159V454.985H677.33V445.815Z" fill="#DADFE3"/>
<path d="M693.103 445.815H683.933V454.985H693.103V445.815Z" fill="#DADFE3"/>
<path d="M1419.4 517.712L1158.96 297.622C1143.19 284.049 1122.65 285.15 1107.24 299.822L884.948 517.712H1419.4Z" fill="#A8E0C5"/>
<path d="M1070.56 336.504C1052.58 336.504 1037.91 350.443 1037.91 367.684V422.34C1037.91 439.58 1052.58 453.519 1070.56 453.519C1088.53 453.519 1103.2 439.58 1103.2 422.34V367.684C1103.2 350.443 1088.53 336.504 1070.56 336.504Z" fill="#006738"/>
<path d="M1092.93 413.169C1092.93 411.335 1091.47 409.868 1089.63 409.868C1087.8 409.868 1086.33 411.335 1086.33 413.169C1086.33 425.641 1080.46 432.61 1074.23 434.444V399.964C1074.23 397.763 1072.39 396.296 1070.56 396.296C1068.36 396.296 1066.89 398.13 1066.89 399.964V434.444C1060.65 432.61 1054.78 425.641 1054.78 413.169C1054.78 411.335 1053.32 409.868 1051.48 409.868C1049.65 409.868 1048.18 411.335 1048.18 413.169C1048.18 421.606 1050.38 428.942 1054.78 434.078C1058.09 437.746 1062.12 440.314 1066.52 441.047V503.773H1074.23V441.047C1084.13 439.213 1092.93 429.676 1092.93 413.169Z" fill="#8E664C"/>
<path d="M1292.11 340.539C1274.14 340.539 1259.47 354.478 1259.47 371.718V426.374C1259.47 443.615 1274.14 457.554 1292.11 457.554C1310.09 457.554 1324.76 443.615 1324.76 426.374V371.718C1324.76 354.478 1310.09 340.539 1292.11 340.539Z" fill="#F26B0F"/>
<path d="M1314.49 417.204C1314.49 415.37 1313.02 413.902 1311.19 413.902C1309.35 413.902 1307.89 415.37 1307.89 417.204C1307.89 429.676 1302.02 436.645 1295.78 438.479V403.998C1295.78 401.797 1293.95 400.33 1292.11 400.33C1289.91 400.33 1288.45 402.164 1288.45 403.998V438.479C1282.21 436.645 1276.34 429.676 1276.34 417.204C1276.34 415.37 1274.87 413.902 1273.04 413.902C1271.21 413.902 1269.74 415.37 1269.74 417.204C1269.74 425.641 1271.94 432.977 1276.34 438.112C1279.64 441.78 1283.68 444.348 1288.08 445.082V507.807H1295.78V445.082C1305.69 443.248 1314.49 433.711 1314.49 417.204Z" fill="#603223"/>
<path d="M1387.49 370.251C1369.51 370.251 1354.84 384.19 1354.84 401.431V456.086C1354.84 473.327 1369.51 487.266 1387.49 487.266C1405.46 487.266 1420.13 473.327 1420.13 456.086V401.431C1420.13 384.19 1405.83 370.251 1387.49 370.251Z" fill="#03AD7B"/>
<path d="M1409.86 446.916C1409.86 445.082 1408.39 443.615 1406.56 443.615C1404.73 443.615 1403.26 445.082 1403.26 446.916C1403.26 459.388 1397.39 466.358 1391.15 468.192V433.711C1391.15 431.51 1389.32 430.043 1387.49 430.043C1385.29 430.043 1383.82 431.877 1383.82 433.711V468.192C1377.58 466.358 1371.71 459.388 1371.71 446.916C1371.71 445.082 1370.25 443.615 1368.41 443.615C1366.58 443.615 1365.11 445.082 1365.11 446.916C1365.11 455.353 1367.31 462.689 1371.71 467.825C1375.01 471.493 1379.05 474.061 1383.45 474.794V537.52H1391.15V474.794C1401.06 472.96 1409.86 463.423 1409.86 446.916Z" fill="#8E6340"/>
<path d="M1282.94 517.712L1004.16 337.605C987.29 326.6 965.281 327.334 948.774 339.439L710.71 517.712H1282.94Z" fill="#A8E0C5"/>
<path d="M941.438 366.95C923.464 366.95 908.791 380.889 908.791 398.129V452.785C908.791 470.025 923.464 483.965 941.438 483.965C959.412 483.965 974.084 470.025 974.084 452.785V398.129C974.084 380.889 959.779 366.95 941.438 366.95Z" fill="#F26B0F"/>
<path d="M963.813 443.615C963.813 441.781 962.346 440.313 960.512 440.313C958.678 440.313 957.21 441.781 957.21 443.615C957.21 456.087 951.341 463.056 945.105 464.89V430.409C945.105 428.208 943.271 426.741 941.437 426.741C939.236 426.741 937.769 428.575 937.769 430.409V464.89C931.533 463.056 925.664 456.087 925.664 443.615C925.664 441.781 924.197 440.313 922.363 440.313C920.529 440.313 919.062 441.781 919.062 443.615C919.062 452.052 921.262 459.388 925.664 464.523C928.966 468.192 933.001 470.759 937.402 471.493V534.219H945.105V471.493C955.009 469.292 963.813 459.755 963.813 443.615Z" fill="#603223"/>
<path d="M1006 517.712L791.043 452.785C777.837 448.75 760.964 449.117 748.492 453.519L564.717 517.712H1006Z" fill="#A8E0C5"/>
<path d="M1349.34 263.874C1321.83 263.874 1299.82 285.15 1299.82 311.194V394.094C1299.82 420.138 1321.83 441.413 1349.34 441.413C1376.85 441.413 1398.86 420.138 1398.86 394.094V311.194C1398.86 285.15 1376.85 263.874 1349.34 263.874Z" fill="#F7B935"/>
<path d="M1383.09 380.155C1383.09 377.587 1380.88 375.386 1378.32 375.386C1375.75 375.386 1373.55 377.587 1373.55 380.155C1373.55 399.229 1364.74 409.5 1355.21 412.435V359.98C1355.21 356.679 1352.64 354.111 1349.34 354.111C1346.04 354.111 1343.47 356.679 1343.47 359.98V412.435C1333.93 409.5 1325.13 399.229 1325.13 380.155C1325.13 377.587 1322.93 375.386 1320.36 375.386C1317.79 375.386 1315.59 377.587 1315.59 380.155C1315.59 392.994 1319.26 403.998 1325.86 411.701C1330.63 417.204 1336.87 420.872 1343.84 422.339V517.711H1355.21V422.339C1369.88 419.404 1383.09 405.099 1383.09 380.155Z" fill="#8E6340"/>
<path d="M1137.68 311.194C1117.51 311.194 1101 326.967 1101 346.041V407.3C1101 426.374 1117.51 442.147 1137.68 442.147C1157.86 442.147 1174.37 426.374 1174.37 407.3V346.041C1174 326.6 1157.86 311.194 1137.68 311.194Z" fill="#019444"/>
<path d="M1162.63 396.662C1162.63 394.828 1161.16 392.994 1158.96 392.994C1156.76 392.994 1155.29 394.461 1155.29 396.662C1155.29 410.601 1149.06 418.304 1141.72 420.505V381.989C1141.72 379.788 1139.89 377.954 1137.68 377.954C1135.48 377.954 1133.65 379.788 1133.65 381.989V420.505C1126.68 418.304 1120.08 410.601 1120.08 396.662C1120.08 394.828 1118.61 392.994 1116.41 392.994C1114.21 392.994 1112.74 394.461 1112.74 396.662C1112.74 406.199 1115.31 414.269 1120.44 420.138C1124.11 424.173 1128.51 427.108 1133.65 427.841V498.27H1142.09V427.841C1152.72 425.641 1162.63 415.003 1162.63 396.662Z" fill="#603223"/>
<path d="M1231.96 270.11C1208.11 270.11 1188.67 288.451 1188.67 311.194V383.457C1188.67 406.199 1208.11 424.54 1231.96 424.54C1255.8 424.54 1275.24 406.199 1275.24 383.457V311.194C1275.24 288.451 1255.8 270.11 1231.96 270.11Z" fill="#03AD7B"/>
<path d="M1261.3 370.985C1261.3 368.784 1259.47 366.583 1256.9 366.583C1254.33 366.583 1252.5 368.417 1252.5 370.985C1252.5 387.492 1245.16 396.295 1236.72 398.863V353.378C1236.72 350.81 1234.52 348.242 1231.59 348.242C1229.02 348.242 1226.45 350.443 1226.45 353.378V398.863C1218.02 396.295 1210.68 387.492 1210.68 370.985C1210.68 368.784 1208.85 366.583 1206.28 366.583C1204.08 366.583 1201.88 368.417 1201.88 370.985C1201.88 382.356 1204.81 391.893 1210.68 398.496C1215.08 403.265 1220.22 406.566 1226.09 407.667V490.567H1235.99V407.667C1249.93 405.099 1261.3 392.627 1261.3 370.985Z" fill="#8E6340"/>
<path d="M1006.36 284.783C982.521 284.783 963.08 303.124 963.08 325.867V398.13C963.08 420.872 982.521 439.213 1006.36 439.213C1030.21 439.213 1049.65 420.872 1049.65 398.13V325.867C1049.65 303.124 1030.21 284.783 1006.36 284.783Z" fill="#F7B935"/>
<path d="M1035.71 385.658C1035.71 383.457 1033.88 381.256 1031.31 381.256C1028.74 381.256 1026.91 383.09 1026.91 385.658C1026.91 402.165 1019.57 410.968 1011.13 413.536V368.051C1011.13 365.483 1008.93 362.915 1006 362.915C1003.43 362.915 1000.86 365.116 1000.86 368.051V413.536C992.425 410.968 985.089 402.165 985.089 385.658C985.089 383.457 983.255 381.256 980.687 381.256C978.486 381.256 976.285 383.09 976.285 385.658C976.285 397.029 979.22 406.567 985.089 413.169C989.491 417.938 994.626 421.239 1000.5 422.34V505.24H1010.4V422.34C1024.34 419.772 1035.71 407.3 1035.71 385.658Z" fill="#8E6340"/>
<path d="M888.616 336.504C870.642 336.504 855.97 350.443 855.97 367.684V422.34C855.97 439.58 870.642 453.519 888.616 453.519C906.59 453.519 921.263 439.58 921.263 422.34V367.684C921.63 350.443 906.957 336.504 888.616 336.504Z" fill="#006738"/>
<path d="M910.992 413.169C910.992 411.335 909.525 409.868 907.691 409.868C905.857 409.868 904.389 411.335 904.389 413.169C904.389 425.641 898.52 432.61 892.284 434.444V399.964C892.284 397.763 890.45 396.296 888.616 396.296C886.415 396.296 884.948 398.13 884.948 399.964V434.444C878.712 432.61 872.843 425.641 872.843 413.169C872.843 411.335 871.376 409.868 869.542 409.868C867.708 409.868 866.24 411.335 866.24 413.169C866.24 421.606 868.441 428.942 872.843 434.078C876.144 437.746 880.179 440.314 884.581 441.047V503.773H892.284V441.047C902.188 439.213 910.992 429.676 910.992 413.169Z" fill="#8E664C"/>
<path d="M820.021 297.255C796.178 297.255 776.736 315.596 776.736 338.339V410.601C776.736 433.344 796.178 451.685 820.021 451.685C843.864 451.685 863.305 433.344 863.305 410.601V338.339C863.305 315.596 843.864 297.255 820.021 297.255Z" fill="#03AD7B"/>
<path d="M849.366 398.13C849.366 395.929 847.532 393.728 844.964 393.728C842.396 393.728 840.562 395.562 840.562 398.13C840.562 414.636 833.226 423.44 824.789 426.008V380.522C824.789 377.955 822.588 375.387 819.654 375.387C817.086 375.387 814.518 377.588 814.518 380.522V426.008C806.081 423.44 798.745 414.636 798.745 398.13C798.745 395.929 796.911 393.728 794.343 393.728C792.142 393.728 789.941 395.562 789.941 398.13C789.941 409.501 792.876 419.038 798.745 425.641C803.147 430.41 808.282 433.711 814.151 434.811V517.712H824.055V434.811C837.994 432.244 849.366 419.772 849.366 398.13Z" fill="#8E6340"/>
<path d="M718.78 230.128H711.811V249.569H718.78V230.128Z" fill="#C6BFB0"/>
<path d="M719.514 192.345H710.71V215.455H719.514V192.345Z" fill="#C6BFB0"/>
<path d="M686.542 226.568L689.621 234.815L711.27 226.731L708.191 218.484L686.542 226.568Z" fill="#C6BFB0"/>
<path d="M722.217 218.907L719.138 227.154L740.787 235.238L743.866 226.991L722.217 218.907Z" fill="#C6BFB0"/>
<path d="M971.15 118.615C971.15 115.314 968.216 112.746 965.281 112.746C961.98 112.746 959.412 115.314 959.412 118.615L955.744 202.249C955.377 208.119 959.045 213.254 963.447 213.254H967.482C971.884 213.254 975.552 208.119 975.185 202.249L971.15 118.615Z" fill="#E7E7E7"/>
<path d="M856.703 266.076C853.768 267.543 852.301 270.844 853.401 273.779C854.502 276.713 857.803 278.181 861.105 277.447L940.704 251.77C946.206 249.936 949.874 244.8 948.407 240.765L946.94 237.097C945.473 232.695 939.237 231.228 933.734 233.796L856.703 266.076Z" fill="#E7E7E7"/>
<path d="M1073.86 266.076C1076.79 267.543 1078.26 270.844 1077.16 273.779C1076.06 276.713 1072.76 278.181 1069.46 277.447L989.858 251.77C984.356 249.936 980.688 244.8 982.155 240.765L983.622 237.097C985.089 232.695 991.325 231.228 996.828 233.796L1073.86 266.076Z" fill="#E7E7E7"/>
<path d="M977.753 505.24H952.81L959.046 252.503H971.517L977.753 505.24Z" fill="#E7E7E7"/>
<path d="M1187.21 150.895C1187.21 148.327 1185 146.126 1182.07 146.126C1179.5 146.126 1177.3 148.327 1176.93 150.895L1174 220.957C1173.63 226.093 1176.57 230.128 1180.6 230.128H1183.9C1187.57 230.128 1190.51 225.726 1190.51 220.957L1187.21 150.895Z" fill="#E7E7E7"/>
<path d="M1091.83 274.145C1089.26 275.246 1088.16 278.18 1088.9 280.381C1090 282.949 1092.57 284.049 1095.13 283.316L1161.53 261.673C1166.3 260.206 1169.23 255.804 1167.76 252.503L1166.66 249.202C1165.2 245.533 1160.43 244.433 1155.66 246.267L1091.83 274.145Z" fill="#E7E7E7"/>
<path d="M1273.04 274.146C1275.61 275.246 1276.71 278.181 1275.97 280.381C1274.87 282.949 1272.31 284.05 1269.74 283.316L1203.35 261.674C1198.58 260.207 1195.64 255.805 1197.11 252.503L1198.21 249.202C1199.68 245.534 1204.45 244.433 1209.21 246.268L1273.04 274.146Z" fill="#E7E7E7"/>
<path d="M1192.71 474.061H1172.17L1177.3 262.774H1187.57L1192.71 474.061Z" fill="#E7E7E7"/>
<path d="M721.348 98.0733C721.348 94.4051 718.413 91.8374 714.745 91.8374C711.443 91.8374 708.509 94.7719 708.142 98.0733L704.107 189.044C703.74 195.647 707.775 201.149 712.544 201.149H716.946C721.714 201.149 725.749 195.647 725.383 189.044L721.348 98.0733Z" fill="#E7E7E7"/>
<path d="M597.363 258.005C594.062 259.473 592.595 263.141 593.695 266.442C594.796 269.744 598.464 271.578 601.765 270.477L688.334 242.599C694.57 240.765 698.238 235.263 696.404 230.494L694.937 226.459C693.103 221.691 686.867 220.223 680.631 222.791L597.363 258.005Z" fill="#E7E7E7"/>
<path d="M832.86 258.006C836.162 259.473 837.629 263.141 836.529 266.442C835.428 269.744 831.76 271.578 828.459 270.477L741.89 242.599C735.654 240.765 731.986 235.263 733.82 230.494L735.287 226.459C737.121 221.691 743.357 220.224 749.593 222.791L832.86 258.006Z" fill="#E7E7E7"/>
<path d="M728.684 517.712H701.539L708.509 242.966H721.714L728.684 517.712Z" fill="#E7E7E7"/>
<path d="M715.112 233.796C721.797 233.796 727.217 228.376 727.217 221.691C727.217 215.005 721.797 209.586 715.112 209.586C708.426 209.586 703.007 215.005 703.007 221.691C703.007 228.376 708.426 233.796 715.112 233.796Z" fill="white"/>
<path d="M1185 252.87H1179.87V267.909H1185V252.87Z" fill="#C6BFB0"/>
<path d="M1186.1 223.891H1179.13V241.499H1186.1V223.891Z" fill="#C6BFB0"/>
<path d="M1160.47 250.236L1162.91 256.765L1179.4 250.606L1176.97 244.077L1160.47 250.236Z" fill="#C6BFB0"/>
<path d="M1187.95 243.846L1185.52 250.375L1202.01 256.534L1204.45 250.005L1187.95 243.846Z" fill="#C6BFB0"/>
<path d="M1191.61 246.634C1191.61 251.77 1187.57 255.805 1182.44 255.805C1177.3 255.805 1173.27 251.77 1173.27 246.634C1173.27 241.499 1177.3 237.464 1182.44 237.464C1187.57 237.464 1191.61 241.499 1191.61 246.634Z" fill="white"/>
<path d="M968.582 240.398H962.346V258.372H968.582V240.398Z" fill="#C6BFB0"/>
<path d="M969.316 205.918H961.246V227.193H969.316V205.918Z" fill="#C6BFB0"/>
<path d="M938.935 237.546L941.758 245.105L961.689 237.663L958.866 230.103L938.935 237.546Z" fill="#C6BFB0"/>
<path d="M971.781 230.064L968.958 237.624L988.889 245.066L991.712 237.506L971.781 230.064Z" fill="#C6BFB0"/>
<path d="M965.281 244.067C971.358 244.067 976.285 239.14 976.285 233.062C976.285 226.984 971.358 222.057 965.281 222.057C959.203 222.057 954.276 226.984 954.276 233.062C954.276 239.14 959.203 244.067 965.281 244.067Z" fill="white"/>
<path d="M897.419 426.008V517.712H758.763V426.008L760.597 424.54L797.278 397.029L799.846 394.828L828.091 373.553L856.703 394.828L859.271 397.029L897.419 426.008Z" fill="#4F9EB6"/>
<path d="M897.419 424.174H758.763V427.475H897.419V424.174Z" fill="white"/>
<path d="M829.925 375.754H826.624V426.008H829.925V375.754Z" fill="white"/>
<path d="M796.544 427.475H793.243V517.345H796.544V427.475Z" fill="white"/>
<path d="M897.419 458.654H758.763V461.956H897.419V458.654Z" fill="white"/>
<path d="M863.306 427.475H860.005V517.345H863.306V427.475Z" fill="white"/>
<path d="M829.558 424.54L828.091 426.008L826.991 427.108L797.278 397.029L799.846 394.828L828.091 423.44L829.558 424.54Z" fill="white"/>
<path d="M859.271 397.029L829.559 427.108L828.092 426.008L826.991 424.54L828.092 423.44L856.703 394.828L859.271 397.029Z" fill="white"/>
<path d="M897.419 426.008V429.309C895.952 429.309 894.485 428.942 893.385 427.842L828.091 378.688L762.798 427.842C761.697 428.575 760.23 429.309 758.763 429.309V426.008L760.597 424.54L796.912 397.029L799.479 395.195L828.091 373.553L856.336 395.195L858.904 397.029L897.419 426.008Z" fill="white"/>
<path d="M897.42 426.007C895.952 426.007 894.485 425.641 893.385 424.54L828.091 375.754L762.798 424.54C759.863 426.741 755.828 426.007 753.627 423.073C751.426 420.138 752.16 416.103 755.095 413.902L824.423 362.181C826.624 360.347 829.925 360.347 832.493 362.181L901.821 413.902C904.756 416.103 905.49 420.138 903.289 423.073C901.455 424.907 899.62 426.007 897.42 426.007Z" fill="#494748"/>
<path d="M850.467 461.955H806.082V517.345H850.467V461.955Z" fill="#494748"/>
<path d="M1011.87 459.388C1008.56 459.388 1005.26 459.755 1001.96 460.488C999.027 450.951 993.525 442.514 986.556 435.545C975.551 424.54 960.145 417.571 943.271 417.571C933.734 417.571 924.564 419.771 916.494 423.806C916.494 417.571 914.66 410.968 907.69 404.732C907.69 404.732 897.786 416.47 903.288 430.776C897.419 426.374 888.982 423.44 878.345 427.841C878.345 427.841 883.113 438.112 894.485 441.78C892.284 444.348 890.816 447.283 888.982 450.584C887.882 450.217 886.415 449.85 885.314 449.85C879.445 449.85 874.677 454.619 874.31 460.488C871.008 459.755 867.707 459.388 864.039 459.388C846.799 459.388 831.759 468.925 823.689 482.864C819.654 489.834 817.453 497.537 817.453 505.973C817.453 510.008 818.187 513.677 818.92 517.712H1056.62C1057.72 514.043 1058.09 510.008 1058.09 505.973C1058.45 479.929 1037.54 459.388 1011.87 459.388Z" fill="#019444"/>
<path d="M1093.67 508.174C1093.67 511.476 1093.3 514.41 1092.57 517.345H901.821C901.087 514.41 900.721 511.109 900.721 508.174C900.721 501.205 902.555 494.969 905.856 489.467C912.459 478.095 924.197 470.759 938.136 470.759C944.005 470.759 949.14 472.226 954.276 474.427C959.778 453.152 978.853 437.379 1001.96 437.379C1015.53 437.379 1027.64 442.881 1036.44 451.685C1041.95 457.187 1046.35 464.156 1048.55 471.493C1051.12 470.759 1053.68 470.759 1056.25 470.759C1077.16 470.759 1093.67 487.633 1093.67 508.174Z" fill="#006738"/>
<path d="M983.621 511.476C983.621 513.677 983.254 515.511 982.887 517.345H862.571C862.205 515.511 861.838 513.677 861.838 511.476C861.838 507.074 862.938 503.039 865.139 499.738C869.174 492.769 876.877 488 885.681 488C889.349 488 892.65 488.734 895.585 490.201C898.886 476.629 910.991 466.725 925.664 466.725C934.101 466.725 941.804 470.026 947.306 475.895C950.974 479.196 953.542 483.598 955.009 488.367C956.477 488 958.311 488 960.145 488C972.983 488 983.621 498.638 983.621 511.476Z" fill="#4BBC62"/>
<path d="M860.004 468.925C860.004 468.925 853.034 475.161 854.135 485.065C851.2 481.397 846.432 477.729 838.729 477.362C838.729 477.362 838.729 494.969 858.903 497.17C858.903 497.17 871.742 483.598 860.004 468.925Z" fill="#4BBC62"/>
<path d="M957.944 408.4C957.944 408.4 952.075 410.234 949.874 416.837C949.14 413.536 947.306 410.234 942.537 408.033C942.537 408.033 937.769 418.671 949.507 425.641C949.507 425.274 960.878 420.505 957.944 408.4Z" fill="#4BBC62"/>
<path d="M1042.68 442.881C1042.68 442.881 1036.81 441.047 1031.31 444.715C1032.41 441.781 1032.78 437.746 1030.57 433.344C1030.57 433.344 1020.3 439.213 1025.81 451.685C1025.81 451.685 1037.91 454.62 1042.68 442.881Z" fill="#019444"/>
<path d="M999.028 457.554C999.028 457.554 994.259 461.955 994.993 468.558C993.158 465.99 989.857 463.789 984.722 463.423C984.722 463.423 984.722 475.161 998.294 476.628C998.294 476.261 1006.73 467.091 999.028 457.554Z" fill="#019444"/>
<path d="M980.687 480.297C980.687 480.297 974.451 480.663 970.783 486.166C970.783 482.864 970.049 479.196 966.381 475.528C966.381 475.528 958.678 484.699 968.215 494.236C968.215 494.603 980.687 492.768 980.687 480.297Z" fill="#4BBC62"/>
<path d="M1062.12 466.357C1062.12 466.357 1058.45 467.091 1056.62 470.392C1056.62 468.558 1055.52 466.357 1053.32 464.523C1053.32 464.523 1049.65 470.392 1055.52 475.161C1055.52 475.161 1062.49 473.694 1062.12 466.357Z" fill="#019444"/>
<path d="M907.69 448.016C907.69 448.016 904.389 453.519 906.956 459.755C904.389 457.92 900.72 456.453 895.585 457.554C895.585 457.554 898.886 468.925 912.459 466.724C912.092 466.724 917.594 455.353 907.69 448.016Z" fill="#4BBC62"/>
<path d="M1369.15 514.043C1369.15 515.511 1369.15 516.978 1368.78 518.445H1203.34C1200.41 513.31 1198.58 507.441 1198.58 500.838C1198.58 481.397 1214.35 465.623 1233.79 465.623C1242.23 465.623 1249.93 468.558 1256.17 473.693C1263.87 459.754 1278.54 450.584 1295.42 450.584C1319.63 450.584 1339.43 470.025 1340.17 494.235C1342.74 493.135 1345.3 492.768 1347.87 492.768C1359.61 492.401 1369.15 501.938 1369.15 514.043Z" fill="#019444"/>
<path d="M1398.49 492.401C1395.56 492.401 1392.99 492.768 1390.79 493.868C1390.05 469.658 1370.25 450.217 1346.04 450.217C1329.16 450.217 1314.49 459.754 1306.79 473.327C1300.55 468.191 1292.85 465.257 1284.41 465.257C1282.58 465.257 1280.74 465.257 1279.28 465.623C1280.74 459.388 1280.01 451.318 1272.31 443.614C1272.31 443.614 1265.7 451.318 1266.44 461.222C1262.77 457.553 1257.27 454.986 1249.2 454.986C1249.2 454.986 1250.3 468.191 1261.3 473.693C1253.97 480.296 1249.2 489.466 1249.2 500.104C1249.2 506.34 1251.03 512.576 1253.97 517.711H1419.4C1419.77 516.244 1419.77 514.777 1419.77 513.31C1420.13 501.938 1410.23 492.401 1398.49 492.401Z" fill="#4BBC62"/>
<path d="M1344.57 515.878C1344.57 516.978 1344.57 517.712 1344.2 518.445H1245.9C1244.06 515.511 1242.96 511.843 1242.96 508.174C1242.96 496.436 1252.5 487.266 1263.87 487.266C1269 487.266 1273.41 489.1 1277.07 492.035C1281.48 483.965 1290.28 478.095 1300.55 478.095C1314.86 478.095 1326.6 489.467 1327.33 504.139C1328.8 503.773 1330.26 503.406 1332.1 503.406C1338.7 503.039 1344.57 508.541 1344.57 515.878Z" fill="#006738"/>
<path d="M1212.15 494.235C1212.15 494.235 1212.52 497.536 1215.08 500.104C1213.25 500.104 1211.05 500.837 1209.21 502.305C1209.21 502.305 1215.82 510.008 1225.35 503.405C1225.35 503.772 1222.42 493.868 1212.15 494.235Z" fill="#4BBC62"/>
<path d="M1240.39 472.593C1240.39 472.593 1238.93 474.427 1238.93 476.995C1237.83 476.261 1236.72 475.528 1234.89 475.161C1234.89 475.161 1234.16 482.497 1241.86 483.965C1241.49 483.598 1245.53 477.362 1240.39 472.593Z" fill="#4BBC62"/>
<path d="M1308.99 459.387C1308.99 459.387 1305.69 460.121 1303.49 462.689C1303.12 460.854 1302.39 459.02 1300.92 456.819C1300.92 456.819 1293.58 464.156 1300.92 472.959C1300.55 472.959 1310.09 469.658 1308.99 459.387Z" fill="#006738"/>
<path d="M1339.8 478.462C1339.8 478.462 1337.6 480.663 1336.5 484.331C1335.4 482.864 1333.56 481.397 1331.36 480.663C1331.36 480.663 1328.8 490.567 1339.43 494.602C1339.43 494.602 1346.04 486.532 1339.8 478.462Z" fill="#019444"/>
<path d="M1362.91 467.825C1362.91 467.825 1360.71 468.558 1358.88 470.759C1358.51 469.292 1357.78 468.192 1356.31 466.724C1356.31 466.724 1351.54 472.593 1357.41 478.462C1357.78 478.462 1364.74 475.161 1362.91 467.825Z" fill="#019444"/>
<path d="M1397.76 489.1C1397.76 489.1 1395.19 489.1 1392.99 490.2C1393.36 488.733 1392.99 487.266 1392.26 485.432C1392.26 485.432 1385.29 488.733 1388.59 496.803C1388.95 496.803 1396.29 496.436 1397.76 489.1Z" fill="#019444"/>
<path d="M1214.72 514.043C1214.72 515.511 1214.72 516.978 1214.35 518.445H1048.92C1045.98 513.31 1044.15 507.441 1044.15 500.838C1044.15 481.397 1059.92 465.623 1079.36 465.623C1087.8 465.623 1095.5 468.558 1101.74 473.693C1109.44 459.754 1124.11 450.584 1140.99 450.584C1165.2 450.584 1185 470.025 1185.74 494.235C1188.31 493.135 1190.87 492.768 1193.44 492.768C1205.18 492.401 1214.72 501.938 1214.72 514.043Z" fill="#019444"/>
<path d="M1244.06 492.401C1241.13 492.401 1238.56 492.768 1236.36 493.868C1235.63 469.658 1215.82 450.217 1191.61 450.217C1174.73 450.217 1160.06 459.754 1152.36 473.327C1146.12 468.191 1138.42 465.257 1129.98 465.257C1128.15 465.257 1126.31 465.257 1124.85 465.623C1126.31 459.388 1125.58 451.318 1117.88 443.614C1117.88 443.614 1111.27 451.318 1112.01 461.222C1108.34 457.553 1102.84 454.986 1094.77 454.986C1094.77 454.986 1095.87 468.191 1106.87 473.693C1099.54 480.296 1094.77 489.466 1094.77 500.104C1094.77 506.34 1096.6 512.576 1099.54 517.711H1264.97C1265.34 516.244 1265.34 514.777 1265.34 513.31C1265.34 501.938 1255.8 492.401 1244.06 492.401Z" fill="#4BBC62"/>
<path d="M1189.77 515.878C1189.77 516.978 1189.77 517.712 1189.41 518.445H1091.1C1089.26 515.511 1088.16 511.843 1088.16 508.174C1088.16 496.436 1097.7 487.266 1109.07 487.266C1114.21 487.266 1118.61 489.1 1122.28 492.035C1126.68 483.965 1135.48 478.095 1145.75 478.095C1160.06 478.095 1171.8 489.467 1172.53 504.139C1174 503.773 1175.47 503.406 1177.3 503.406C1184.27 503.039 1189.77 508.541 1189.77 515.878Z" fill="#006738"/>
<path d="M1057.35 494.235C1057.35 494.235 1057.72 497.536 1060.29 500.104C1058.45 500.104 1056.25 500.837 1054.42 502.305C1054.42 502.305 1061.02 510.008 1070.56 503.405C1070.56 503.772 1067.62 493.868 1057.35 494.235Z" fill="#4BBC62"/>
<path d="M1085.6 472.593C1085.6 472.593 1084.13 474.427 1084.13 476.995C1083.03 476.261 1081.93 475.528 1080.09 475.161C1080.09 475.161 1079.36 482.497 1087.06 483.965C1087.06 483.598 1090.73 477.362 1085.6 472.593Z" fill="#4BBC62"/>
<path d="M1154.19 459.387C1154.19 459.387 1150.89 460.121 1148.69 462.689C1148.32 460.854 1147.59 459.02 1146.12 456.819C1146.12 456.819 1138.79 464.156 1146.12 472.959C1145.76 472.959 1155.66 469.658 1154.19 459.387Z" fill="#006738"/>
<path d="M1185 478.462C1185 478.462 1182.8 480.663 1181.7 484.331C1180.6 482.864 1178.77 481.397 1176.57 480.663C1176.57 480.663 1174 490.567 1184.64 494.602C1184.64 494.235 1191.24 486.532 1185 478.462Z" fill="#019444"/>
<path d="M1208.11 467.825C1208.11 467.825 1205.91 468.558 1204.08 470.759C1203.71 469.292 1202.98 468.192 1201.51 466.724C1201.51 466.724 1196.74 472.593 1202.61 478.462C1202.98 478.462 1209.95 475.161 1208.11 467.825Z" fill="#019444"/>
<path d="M1242.96 489.1C1242.96 489.1 1240.39 489.1 1238.19 490.2C1238.56 488.733 1238.19 487.266 1237.46 485.432C1237.46 485.432 1230.49 488.733 1233.79 496.803C1234.16 496.803 1241.86 496.436 1242.96 489.1Z" fill="#019444"/>
<path d="M1128.88 426.008V517.712H990.224V426.008L991.691 424.54L1028.37 397.029L1030.94 394.828L1059.55 373.553L1087.8 394.828L1090.36 397.029L1128.88 426.008Z" fill="#C93F35"/>
<path d="M1128.88 424.174H990.224V427.475H1128.88V424.174Z" fill="white"/>
<path d="M1061.02 375.754H1057.72V426.008H1061.02V375.754Z" fill="white"/>
<path d="M1027.64 427.475H1024.34V517.345H1027.64V427.475Z" fill="white"/>
<path d="M1128.88 458.654H990.224V461.956H1128.88V458.654Z" fill="white"/>
<path d="M1094.4 427.475H1091.1V517.345H1094.4V427.475Z" fill="white"/>
<path d="M1060.65 424.54L1059.55 426.008L1058.09 427.108L1028.37 397.029L1030.94 394.828L1059.55 423.44L1060.65 424.54Z" fill="white"/>
<path d="M1090.36 397.029L1060.65 427.108L1059.55 426.008L1058.08 424.54L1059.55 423.44L1087.8 394.828L1090.36 397.029Z" fill="white"/>
<path d="M1128.88 426.008V429.309C1127.41 429.309 1125.95 428.942 1124.85 427.842L1059.55 378.688L994.259 427.842C993.158 428.575 991.691 429.309 990.224 429.309V426.008L992.058 424.54L1028.37 397.029L1030.94 395.195L1059.55 373.553L1087.8 395.195L1090.36 397.029L1128.88 426.008Z" fill="white"/>
<path d="M1128.88 426.007C1127.41 426.007 1125.95 425.641 1124.85 424.54L1059.55 375.754L994.259 424.54C991.324 426.741 987.289 426.007 985.088 423.073C982.887 420.138 983.621 416.103 986.556 413.902L1055.88 362.181C1058.08 360.347 1061.39 360.347 1063.95 362.181L1133.28 413.902C1136.22 416.103 1136.95 420.138 1134.75 423.073C1132.55 424.907 1130.71 426.007 1128.88 426.007Z" fill="#494748"/>
<path d="M1081.56 461.955H1037.18V517.345H1081.56V461.955Z" fill="#494748"/>
<path d="M1282.94 426.008V517.712H1144.29V426.008L1145.75 424.54L1182.44 397.029L1185 394.828L1213.62 373.553L1241.86 394.828L1244.43 397.029L1282.94 426.008Z" fill="#F7B935"/>
<path d="M1282.94 424.174H1144.29V427.475H1282.94V424.174Z" fill="white"/>
<path d="M1215.08 375.754H1211.78V426.008H1215.08V375.754Z" fill="white"/>
<path d="M1181.7 427.475H1178.4V517.345H1181.7V427.475Z" fill="white"/>
<path d="M1282.94 458.654H1144.29V461.956H1282.94V458.654Z" fill="white"/>
<path d="M1248.46 427.475H1245.16V517.345H1248.46V427.475Z" fill="white"/>
<path d="M1214.72 424.54L1213.62 426.008L1212.15 427.108L1182.44 397.029L1185 394.828L1213.62 423.44L1214.72 424.54Z" fill="white"/>
<path d="M1244.43 397.029L1214.72 427.108L1213.62 426.008L1212.15 424.54L1213.62 423.44L1241.86 394.828L1244.43 397.029Z" fill="white"/>
<path d="M1282.94 426.008V429.309C1281.48 429.309 1280.01 428.942 1278.91 427.842L1213.62 378.688L1148.32 427.842C1147.22 428.575 1145.75 429.309 1144.29 429.309V426.008L1146.12 424.54L1182.44 397.029L1185 395.195L1213.62 373.553L1241.86 395.195L1244.43 397.029L1282.94 426.008Z" fill="white"/>
<path d="M1282.94 426.007C1281.48 426.007 1280.01 425.641 1278.91 424.54L1213.62 375.754L1148.32 424.54C1145.39 426.741 1141.35 426.007 1139.15 423.073C1136.95 420.138 1137.68 416.103 1140.62 413.902L1209.95 362.181C1212.15 360.347 1215.45 360.347 1218.02 362.181L1287.35 413.902C1290.28 416.103 1291.01 420.138 1288.81 423.073C1286.61 424.907 1284.78 426.007 1282.94 426.007Z" fill="#494748"/>
<path d="M1235.62 461.955H1191.24V517.345H1235.62V461.955Z" fill="#494748"/>
<path d="M774.169 505.24H760.597V518.812H774.169V505.24Z" fill="#309AEE" stroke="white" stroke-width="2.20238" stroke-miterlimit="10"/>
<path d="M760.597 505.24H747.024V518.812H760.597V505.24Z" fill="#309AEE" stroke="white" stroke-width="2.20238" stroke-miterlimit="10"/>
<path d="M747.024 505.24H733.452V518.812H747.024V505.24Z" fill="#309AEE" stroke="white" stroke-width="2.20238" stroke-miterlimit="10"/>
<path d="M733.819 505.24H720.247V518.812H733.819V505.24Z" fill="#309AEE" stroke="white" stroke-width="2.20238" stroke-miterlimit="10"/>
<path d="M774.169 491.668H760.597V505.24H774.169V491.668Z" fill="#309AEE" stroke="white" stroke-width="2.20238" stroke-miterlimit="10"/>
<path d="M760.597 491.668H747.024V505.24H760.597V491.668Z" fill="#309AEE" stroke="white" stroke-width="2.20238" stroke-miterlimit="10"/>
<path d="M747.024 491.668H733.452V505.24H747.024V491.668Z" fill="#309AEE" stroke="white" stroke-width="2.20238" stroke-miterlimit="10"/>
<path d="M733.819 491.668H720.247V505.24H733.819V491.668Z" fill="#309AEE" stroke="white" stroke-width="2.20238" stroke-miterlimit="10"/>
<path d="M774.169 478.095H760.597V491.668H774.169V478.095Z" fill="#309AEE" stroke="white" stroke-width="2.20238" stroke-miterlimit="10"/>
<path d="M760.597 478.095H747.024V491.668H760.597V478.095Z" fill="#309AEE" stroke="white" stroke-width="2.20238" stroke-miterlimit="10"/>
<path d="M747.024 478.095H733.452V491.668H747.024V478.095Z" fill="#309AEE" stroke="white" stroke-width="2.20238" stroke-miterlimit="10"/>
<path d="M733.819 478.095H720.247V491.668H733.819V478.095Z" fill="#309AEE" stroke="white" stroke-width="2.20238" stroke-miterlimit="10"/>
<path d="M840.196 505.24H826.624V518.812H840.196V505.24Z" fill="#309AEE" stroke="white" stroke-width="2.20238" stroke-miterlimit="10"/>
<path d="M826.624 505.24H813.052V518.812H826.624V505.24Z" fill="#309AEE" stroke="white" stroke-width="2.20238" stroke-miterlimit="10"/>
<path d="M813.419 505.24H799.847V518.812H813.419V505.24Z" fill="#309AEE" stroke="white" stroke-width="2.20238" stroke-miterlimit="10"/>
<path d="M799.847 505.24H786.274V518.812H799.847V505.24Z" fill="#309AEE" stroke="white" stroke-width="2.20238" stroke-miterlimit="10"/>
<path d="M840.196 491.668H826.624V505.24H840.196V491.668Z" fill="#309AEE" stroke="white" stroke-width="2.20238" stroke-miterlimit="10"/>
<path d="M826.624 491.668H813.052V505.24H826.624V491.668Z" fill="#309AEE" stroke="white" stroke-width="2.20238" stroke-miterlimit="10"/>
<path d="M813.419 491.668H799.847V505.24H813.419V491.668Z" fill="#309AEE" stroke="white" stroke-width="2.20238" stroke-miterlimit="10"/>
<path d="M799.847 491.668H786.274V505.24H799.847V491.668Z" fill="#309AEE" stroke="white" stroke-width="2.20238" stroke-miterlimit="10"/>
<path d="M840.196 478.095H826.624V491.668H840.196V478.095Z" fill="#309AEE" stroke="white" stroke-width="2.20238" stroke-miterlimit="10"/>
<path d="M826.624 478.095H813.052V491.668H826.624V478.095Z" fill="#309AEE" stroke="white" stroke-width="2.20238" stroke-miterlimit="10"/>
<path d="M813.419 478.095H799.847V491.668H813.419V478.095Z" fill="#309AEE" stroke="white" stroke-width="2.20238" stroke-miterlimit="10"/>
<path d="M799.847 478.095H786.274V491.668H799.847V478.095Z" fill="#309AEE" stroke="white" stroke-width="2.20238" stroke-miterlimit="10"/>
<path d="M598.832 517.712L320.418 432.977C303.545 427.842 281.536 428.209 265.396 433.711L27.6982 517.712H598.832Z" fill="#A5ADA5"/>
<path d="M107.297 231.595V163C107.297 151.628 117.568 143.192 128.572 145.393H128.939C142.878 148.694 138.476 146.493 154.616 147.96C171.123 149.428 186.529 145.759 204.137 146.86C224.678 148.327 229.08 160.065 204.137 160.799C183.228 161.532 140.677 156.03 140.677 165.934C140.677 175.472 186.529 164.834 187.263 174.004C187.997 181.707 153.516 174.371 132.607 176.205C127.472 176.572 123.804 180.974 123.804 185.742V231.228H107.297V231.595Z" fill="#CECECE"/>
<path d="M238.25 149.427C236.416 149.427 234.582 149.427 232.748 149.794C231.281 150.161 229.814 150.161 228.346 150.528C223.944 151.261 223.944 158.965 228.346 159.698C229.814 160.065 231.281 160.065 232.748 160.432C234.582 160.799 236.416 160.799 238.25 160.799C241.185 160.799 243.753 158.231 243.753 155.296C243.386 151.995 241.185 149.427 238.25 149.427Z" fill="#CECECE"/>
<path d="M197.901 171.436C197.167 171.436 196.067 171.437 195.333 171.803C193.866 171.803 192.398 172.904 192.398 174.738C192.398 176.205 193.499 177.672 195.333 177.672C196.067 177.672 197.167 177.672 197.901 177.672C199.368 177.672 200.835 176.205 200.835 174.738C200.835 172.904 199.735 171.07 197.901 171.436Z" fill="#CECECE"/>
<path d="M200.469 273.778V205.184C200.469 193.812 210.74 185.375 221.744 187.576H222.111C236.05 190.878 231.648 188.677 247.788 190.144C264.295 191.611 279.701 187.943 297.308 189.044C317.85 190.511 322.252 202.249 297.308 202.983C276.4 203.716 233.849 198.214 233.849 208.118C233.849 217.655 279.701 207.018 280.435 216.188C281.168 223.891 246.688 216.555 225.779 218.389C220.644 218.756 216.976 223.158 216.976 227.926V273.412H200.469V273.778Z" fill="#CECECE"/>
<path d="M331.056 191.978C329.222 191.978 327.388 191.978 325.554 192.345C324.086 192.712 322.619 192.712 321.152 193.079C316.75 193.812 316.75 201.515 321.152 202.249C322.619 202.616 324.086 202.616 325.554 202.983C327.388 203.349 329.222 203.349 331.056 203.349C333.991 203.349 336.558 200.782 336.558 197.847C336.558 194.546 333.991 191.978 331.056 191.978Z" fill="#CECECE"/>
<path d="M290.705 213.62C289.972 213.62 288.871 213.62 288.138 213.987C286.67 213.987 285.203 215.087 285.203 216.922C285.203 218.389 286.304 219.856 288.138 219.856C288.871 219.856 289.972 219.856 290.705 219.856C292.173 219.856 293.64 218.389 293.64 216.922C293.64 215.087 292.539 213.62 290.705 213.62Z" fill="#CECECE"/>
<path d="M745.925 521.013L467.511 462.689C450.637 459.021 428.628 459.388 412.488 463.423L174.791 521.013H745.925Z" fill="#919191"/>
<path d="M233.115 355.212L232.748 348.242L230.914 321.831L229.447 299.455C228.346 281.115 222.11 267.909 215.141 267.909H199.001C191.664 267.909 185.795 281.115 184.695 299.455L183.228 321.831L181.394 348.242L181.027 355.212L179.193 381.622L165.987 588.507H248.521L235.316 381.622L233.115 355.212Z" fill="#919191"/>
<path d="M232.748 347.875H181.026L182.86 321.832H230.913L232.748 347.875Z" fill="#9B4A48"/>
<path d="M233.115 355.212H180.66L178.826 381.256H234.582L233.115 355.212Z" fill="#9B4A48"/>
<path d="M289.238 315.229V270.11C289.238 262.774 295.841 256.905 303.177 258.739C303.177 258.739 303.177 258.739 303.544 258.739C312.715 260.94 309.78 259.473 320.418 260.573C331.422 261.674 341.326 259.106 352.698 259.839C365.903 260.573 368.838 268.643 352.698 269.01C338.759 269.377 310.88 266.075 310.88 272.311C310.88 278.547 340.959 271.578 341.326 277.447C341.693 282.582 319.317 277.814 305.378 278.914C302.077 279.281 299.509 281.848 299.509 285.15V315.229H289.238Z" fill="#CECECE"/>
<path d="M375.074 261.307C373.974 261.307 372.873 261.307 371.406 261.307C370.305 261.307 369.572 261.674 368.471 261.674C365.537 262.041 365.537 267.176 368.471 267.91C369.572 267.91 370.305 268.276 371.406 268.276C372.506 268.276 373.607 268.276 375.074 268.276C376.908 268.276 378.742 266.442 378.742 264.608C378.375 263.141 376.908 261.307 375.074 261.307Z" fill="#CECECE"/>
<path d="M348.663 275.613C347.93 275.613 347.563 275.613 346.829 275.613C345.729 275.613 344.995 276.346 344.995 277.447C344.995 278.547 345.729 279.281 346.829 279.281C347.563 279.281 347.93 279.281 348.663 279.281C349.764 279.281 350.497 278.547 350.497 277.447C350.497 276.713 349.764 275.613 348.663 275.613Z" fill="#CECECE"/>
<path d="M310.514 368.417L310.147 363.649L309.413 346.775L308.313 332.102C307.579 319.997 303.544 311.194 298.776 311.194H288.138C283.369 311.194 279.334 319.997 278.601 332.102L277.5 346.775L276.4 364.016L276.033 368.784L274.933 386.025L266.129 522.113H320.418L311.614 386.025L310.514 368.417Z" fill="#919191"/>
<path d="M310.513 364.015H276.399L277.5 346.775H309.413L310.513 364.015Z" fill="#9B4A48"/>
<path d="M310.513 368.417H276.399L275.299 386.024H311.614L310.513 368.417Z" fill="#9B4A48"/>
<path d="M140.31 302.39L139.943 295.421L138.476 269.01L137.009 246.634C135.908 228.293 130.039 215.088 123.436 215.088H107.663C100.694 215.088 95.1914 228.293 94.091 246.634L92.6237 269.01L91.1564 295.421L90.7896 302.39L89.3224 328.801L76.8506 535.686H154.983L142.511 328.801L140.31 302.39Z" fill="#919191"/>
<path d="M139.943 295.421H91.1562L92.6235 269.01H138.109L139.943 295.421Z" fill="#9B4A48"/>
<path d="M140.309 302.39H90.7892L88.9551 328.801H141.777L140.309 302.39Z" fill="#9B4A48"/>
<path d="M80.5189 485.065H46.0381V516.978H80.5189V485.065Z" stroke="#7C797B" stroke-width="3.30357" stroke-miterlimit="10" stroke-linecap="round" stroke-linejoin="round"/>
<path d="M46.0381 485.065L80.5189 516.978" stroke="#7C797B" stroke-width="3.30357" stroke-miterlimit="10" stroke-linecap="round" stroke-linejoin="round"/>
<path d="M80.5189 485.065L46.0381 516.978" stroke="#7C797B" stroke-width="3.30357" stroke-miterlimit="10" stroke-linecap="round" stroke-linejoin="round"/>
<path d="M80.5189 453.152H46.0381V485.065H80.5189V453.152Z" stroke="#7C797B" stroke-width="3.30357" stroke-miterlimit="10" stroke-linecap="round" stroke-linejoin="round"/>
<path d="M46.0381 453.152L80.5189 485.065" stroke="#7C797B" stroke-width="3.30357" stroke-miterlimit="10" stroke-linecap="round" stroke-linejoin="round"/>
<path d="M80.5189 453.152L46.0381 485.065" stroke="#7C797B" stroke-width="3.30357" stroke-miterlimit="10" stroke-linecap="round" stroke-linejoin="round"/>
<path d="M80.5189 420.872H46.0381V452.785H80.5189V420.872Z" stroke="#7C797B" stroke-width="3.30357" stroke-miterlimit="10" stroke-linecap="round" stroke-linejoin="round"/>
<path d="M46.0381 420.872L80.5189 453.152" stroke="#7C797B" stroke-width="3.30357" stroke-miterlimit="10" stroke-linecap="round" stroke-linejoin="round"/>
<path d="M80.5189 420.872L46.0381 453.152" stroke="#7C797B" stroke-width="3.30357" stroke-miterlimit="10" stroke-linecap="round" stroke-linejoin="round"/>
<path d="M379.842 519.546H259.159V419.038C259.159 413.903 263.561 409.501 268.696 409.501H370.305C375.44 409.501 379.842 413.903 379.842 419.038V519.546Z" fill="#ADADAD"/>
<path d="M283.37 420.505H271.265V429.676H283.37V420.505Z" fill="#DADFE3"/>
<path d="M304.278 420.505H292.173V429.676H304.278V420.505Z" fill="#DADFE3"/>
<path d="M325.553 420.505H313.448V429.676H325.553V420.505Z" fill="#DADFE3"/>
<path d="M346.462 420.505H334.357V429.676H346.462V420.505Z" fill="#DADFE3"/>
<path d="M367.371 420.505H355.266V429.676H367.371V420.505Z" fill="#DADFE3"/>
<path d="M283.37 435.545H271.265V444.715H283.37V435.545Z" fill="#DADFE3"/>
<path d="M304.278 435.545H292.173V444.715H304.278V435.545Z" fill="#DADFE3"/>
<path d="M325.553 435.545H313.448V444.715H325.553V435.545Z" fill="#DADFE3"/>
<path d="M346.462 435.545H334.357V444.715H346.462V435.545Z" fill="#DADFE3"/>
<path d="M367.371 435.545H355.266V444.715H367.371V435.545Z" fill="#DADFE3"/>
<path d="M283.37 450.217H271.265V459.388H283.37V450.217Z" fill="#DADFE3"/>
<path d="M304.278 450.217H292.173V459.388H304.278V450.217Z" fill="#DADFE3"/>
<path d="M325.553 450.217H313.448V459.388H325.553V450.217Z" fill="#DADFE3"/>
<path d="M346.462 450.217H334.357V459.388H346.462V450.217Z" fill="#DADFE3"/>
<path d="M367.371 450.217H355.266V459.388H367.371V450.217Z" fill="#DADFE3"/>
<path d="M283.37 465.257H271.265V474.428H283.37V465.257Z" fill="#DADFE3"/>
<path d="M304.278 465.257H292.173V474.428H304.278V465.257Z" fill="#DADFE3"/>
<path d="M325.553 465.257H313.448V474.428H325.553V465.257Z" fill="#DADFE3"/>
<path d="M346.462 465.257H334.357V474.428H346.462V465.257Z" fill="#DADFE3"/>
<path d="M367.371 465.257H355.266V474.428H367.371V465.257Z" fill="#DADFE3"/>
<path d="M283.37 479.93H271.265V489.1H283.37V479.93Z" fill="#DADFE3"/>
<path d="M304.278 479.93H292.173V489.1H304.278V479.93Z" fill="#DADFE3"/>
<path d="M325.553 479.93H313.448V489.1H325.553V479.93Z" fill="#DADFE3"/>
<path d="M346.462 479.93H334.357V489.1H346.462V479.93Z" fill="#DADFE3"/>
<path d="M367.371 479.93H355.266V489.1H367.371V479.93Z" fill="#DADFE3"/>
<path d="M402.585 519.546H338.025V454.252C338.025 449.117 342.427 444.715 347.563 444.715H392.681C397.817 444.715 402.218 449.117 402.218 454.252V519.546H402.585Z" fill="#CECCCD"/>
<path d="M352.331 450.217H346.095V517.345H352.331V450.217Z" fill="#DADFE3"/>
<path d="M362.601 450.217H356.365V517.345H362.601V450.217Z" fill="#DADFE3"/>
<path d="M373.239 450.217H367.003V517.345H373.239V450.217Z" fill="#DADFE3"/>
<path d="M383.877 450.217H377.641V517.345H383.877V450.217Z" fill="#DADFE3"/>
<path d="M394.514 450.217H388.278V517.345H394.514V450.217Z" fill="#DADFE3"/>
<path d="M303.177 479.562H263.194V516.978H303.177V479.562Z" stroke="#7C797B" stroke-width="3.30357" stroke-miterlimit="10" stroke-linecap="round" stroke-linejoin="round"/>
<path d="M263.194 479.562L302.811 516.978" stroke="#7C797B" stroke-width="3.30357" stroke-miterlimit="10" stroke-linecap="round" stroke-linejoin="round"/>
<path d="M302.811 479.562L263.194 516.978" stroke="#7C797B" stroke-width="3.30357" stroke-miterlimit="10" stroke-linecap="round" stroke-linejoin="round"/>
<path d="M303.177 442.147H263.194V479.563H303.177V442.147Z" stroke="#7C797B" stroke-width="3.30357" stroke-miterlimit="10" stroke-linecap="round" stroke-linejoin="round"/>
<path d="M263.194 442.147L302.811 479.563" stroke="#7C797B" stroke-width="3.30357" stroke-miterlimit="10" stroke-linecap="round" stroke-linejoin="round"/>
<path d="M302.811 442.147L263.194 479.563" stroke="#7C797B" stroke-width="3.30357" stroke-miterlimit="10" stroke-linecap="round" stroke-linejoin="round"/>
<path d="M303.177 404.732H263.194V442.147H303.177V404.732Z" stroke="#7C797B" stroke-width="3.30357" stroke-miterlimit="10" stroke-linecap="round" stroke-linejoin="round"/>
<path d="M263.194 404.732L302.811 442.147" stroke="#7C797B" stroke-width="3.30357" stroke-miterlimit="10" stroke-linecap="round" stroke-linejoin="round"/>
<path d="M302.811 404.732L263.194 442.147" stroke="#7C797B" stroke-width="3.30357" stroke-miterlimit="10" stroke-linecap="round" stroke-linejoin="round"/>
<path d="M266.863 429.676V520.279H130.04V427.475C130.04 426.741 130.04 426.007 130.04 425.274C131.14 395.195 156.451 371.352 187.263 371.352H209.639C240.452 371.352 265.762 395.195 266.863 425.274V429.676Z" fill="#CECCCD"/>
<path d="M266.863 429.676H130.04V427.475C130.04 426.741 130.04 426.008 130.04 425.274H266.863V429.676Z" fill="#CE6721"/>
<g opacity="0.3">
<path d="M130.04 435.178H266.863" stroke="#7C797B" stroke-width="1.10119" stroke-miterlimit="10"/>
<path d="M130.04 442.88H266.863" stroke="#7C797B" stroke-width="1.10119" stroke-miterlimit="10"/>
<path d="M130.04 450.584H266.863" stroke="#7C797B" stroke-width="1.10119" stroke-miterlimit="10"/>
<path d="M130.04 458.287H266.863" stroke="#7C797B" stroke-width="1.10119" stroke-miterlimit="10"/>
<path d="M130.04 465.991H266.863" stroke="#7C797B" stroke-width="1.10119" stroke-miterlimit="10"/>
</g>
<path d="M216.609 495.336V520.279H180.294V494.602C180.294 494.235 180.294 494.235 180.294 493.868C180.661 485.432 187.263 478.829 195.7 478.829H201.569C209.639 478.829 216.609 485.432 216.976 493.868L216.609 495.336Z" fill="#B5B5B5"/>
<path d="M161.219 422.339C160.852 422.339 160.852 422.706 160.852 423.073V433.344C155.35 433.344 147.647 433.344 145.813 433.344V423.073C145.813 422.706 145.446 422.339 145.446 422.339C145.446 422.339 145.079 422.706 145.079 423.073V542.655C145.079 543.022 145.446 543.389 145.446 543.389C145.446 543.389 145.813 543.022 145.813 542.655V537.52C146.546 537.52 147.647 537.52 149.848 537.52C152.049 537.52 155.717 537.52 160.852 537.52V542.655C160.852 543.022 161.219 543.389 161.219 543.389C161.219 543.389 161.586 543.022 161.586 542.655V423.073C161.586 422.706 161.219 422.339 161.219 422.339ZM149.481 445.449C151.682 445.449 155.35 445.449 160.485 445.449V453.886C154.983 453.886 147.28 453.886 145.446 453.886V445.082C146.18 445.082 147.28 445.449 149.481 445.449ZM149.481 455.353C151.682 455.353 155.35 455.353 160.485 455.353V463.79C154.983 463.79 147.28 463.79 145.446 463.79V454.986C146.18 455.353 147.28 455.353 149.481 455.353ZM149.481 465.624C151.682 465.624 155.35 465.624 160.485 465.624V474.061C154.983 474.061 147.28 474.061 145.446 474.061V465.257C146.18 465.624 147.28 465.624 149.481 465.624ZM149.481 475.895C151.682 475.895 155.35 475.895 160.485 475.895V484.331C154.983 484.331 147.28 484.331 145.446 484.331V475.528C146.18 475.895 147.28 475.895 149.481 475.895ZM149.481 486.165C151.682 486.165 155.35 486.165 160.485 486.165V494.602C154.983 494.602 147.28 494.602 145.446 494.602V486.165C146.18 486.165 147.28 486.165 149.481 486.165ZM149.481 496.436C151.682 496.436 155.35 496.436 160.485 496.436V504.873C154.983 504.873 147.28 504.873 145.446 504.873V496.07C146.18 496.436 147.28 496.436 149.481 496.436ZM149.481 506.707C151.682 506.707 155.35 506.707 160.485 506.707V515.144C154.983 515.144 147.28 515.144 145.446 515.144V506.34C146.18 506.707 147.28 506.707 149.481 506.707ZM145.446 516.978C146.18 516.978 147.28 516.978 149.481 516.978C151.682 516.978 155.35 516.978 160.485 516.978V525.415C154.983 525.415 147.28 525.415 145.446 525.415V516.978ZM160.485 434.811V443.248C154.983 443.248 147.28 443.248 145.446 443.248V434.811C146.18 434.811 147.28 434.811 149.481 434.811C151.682 435.178 155.35 435.178 160.485 434.811ZM145.446 535.686V526.882C146.18 526.882 147.28 526.882 149.481 526.882C151.682 526.882 155.35 526.882 160.485 526.882V535.319C154.983 535.686 147.28 535.686 145.446 535.686Z" fill="#7C797B"/>
<path d="M327.388 495.703V519.179H296.575V495.336C296.575 494.969 296.575 494.969 296.575 494.602C296.942 486.899 302.444 480.663 309.414 480.663H314.549C321.519 480.663 327.388 486.899 327.388 494.602V495.703Z" fill="#CECCCD"/>
<path d="M327.388 495.703H296.575V495.336C296.575 494.969 296.575 494.969 296.575 494.602H327.388V495.703Z" fill="#CE6721"/>
<g opacity="0.3">
<path d="M296.208 497.17H327.387" stroke="#7C797B" stroke-width="1.10119" stroke-miterlimit="10"/>
<path d="M296.208 499.004H327.387" stroke="#7C797B" stroke-width="1.10119" stroke-miterlimit="10"/>
<path d="M296.208 500.838H327.387" stroke="#7C797B" stroke-width="1.10119" stroke-miterlimit="10"/>
<path d="M296.208 503.039H327.387" stroke="#7C797B" stroke-width="1.10119" stroke-miterlimit="10"/>
<path d="M296.208 504.873H327.387" stroke="#7C797B" stroke-width="1.10119" stroke-miterlimit="10"/>
</g>
<path d="M115.367 485.432V517.712H68.4141V484.698C68.4141 484.331 68.4141 484.331 68.4141 483.964C68.7809 473.327 77.5845 464.89 88.2222 464.89H95.9253C106.563 464.89 115.367 473.327 115.733 483.964L115.367 485.432Z" fill="#CECCCD"/>
<path d="M115.367 485.432H68.4141V484.698C68.4141 484.331 68.4141 484.331 68.4141 483.964H115.367V485.432Z" fill="#CE6721"/>
<g opacity="0.3">
<path d="M68.4141 487.266H115.367" stroke="#7C797B" stroke-width="1.10119" stroke-miterlimit="10"/>
<path d="M68.4141 489.834H115.367" stroke="#7C797B" stroke-width="1.10119" stroke-miterlimit="10"/>
<path d="M68.4141 492.768H115.367" stroke="#7C797B" stroke-width="1.10119" stroke-miterlimit="10"/>
<path d="M68.4141 495.336H115.367" stroke="#7C797B" stroke-width="1.10119" stroke-miterlimit="10"/>
<path d="M68.4141 498.27H115.367" stroke="#7C797B" stroke-width="1.10119" stroke-miterlimit="10"/>
</g>
<path d="M141.777 518.445H132.974V509.275C132.974 504.139 128.572 499.738 123.437 499.738C118.301 499.738 113.899 504.139 113.899 509.275V518.445H105.096V509.275C105.096 499.004 113.166 490.934 123.437 490.934C133.707 490.934 141.777 499.371 141.777 509.275V518.445Z" fill="#494748"/>
<path d="M113.899 518.446H104.362C102.528 518.446 101.428 516.978 101.428 515.511C101.428 513.677 102.895 512.577 104.362 512.577H113.899C115.734 512.577 116.834 514.044 116.834 515.511C116.834 516.978 115.367 518.446 113.899 518.446Z" fill="#9B4A48"/>
<path d="M141.777 518.446H132.24C130.406 518.446 129.306 516.978 129.306 515.511C129.306 513.677 130.773 512.577 132.24 512.577H141.777C143.612 512.577 144.712 514.044 144.712 515.511C144.712 516.978 143.245 518.446 141.777 518.446Z" fill="#9B4A48"/>
<path d="M99.2266 518.445H90.423V509.275C90.423 504.139 86.0212 499.738 80.8858 499.738C75.7503 499.738 71.3485 504.139 71.3485 509.275V518.445H62.5449V509.275C62.5449 499.004 70.9817 490.934 80.8858 490.934C91.1566 490.934 99.2266 499.371 99.2266 509.275V518.445Z" fill="#494748"/>
<path d="M71.3487 518.446H61.8115C59.9774 518.446 58.877 516.978 58.877 515.511C58.877 513.677 60.3442 512.577 61.8115 512.577H71.3487C73.1828 512.577 74.2833 514.044 74.2833 515.511C74.2833 516.978 72.816 518.446 71.3487 518.446Z" fill="#9B4A48"/>
<path d="M99.2266 518.446H89.6894C87.8553 518.446 86.7549 516.978 86.7549 515.511C86.7549 513.677 88.2221 512.577 89.6894 512.577H99.2266C101.061 512.577 102.161 514.044 102.161 515.511C102.161 516.978 101.061 518.446 99.2266 518.446Z" fill="#9B4A48"/>
<path d="M56.6758 518.445H47.8722V509.275C47.8722 504.139 43.4704 499.738 38.335 499.738C33.1995 499.738 28.7978 504.139 28.7978 509.275V518.445H19.9941V509.275C19.9941 499.004 28.0641 490.934 38.335 490.934C48.6059 490.934 56.6758 499.371 56.6758 509.275V518.445Z" fill="#494748"/>
<path d="M28.798 518.446H19.2607C17.4266 518.446 16.3262 516.978 16.3262 515.511C16.3262 513.677 17.7935 512.577 19.2607 512.577H28.798C30.632 512.577 31.7325 514.044 31.7325 515.511C31.7325 516.978 30.2652 518.446 28.798 518.446Z" fill="#9B4A48"/>
<path d="M56.6759 518.446H47.1386C45.3045 518.446 44.2041 516.978 44.2041 515.511C44.2041 513.677 45.6714 512.577 47.1386 512.577H56.6759C58.51 512.577 59.6104 514.044 59.6104 515.511C59.9772 516.978 58.51 518.446 56.6759 518.446Z" fill="#9B4A48"/>
<path d="M391.946 518.445H383.143V509.275C383.143 504.139 378.741 499.738 373.605 499.738C368.47 499.738 364.068 504.139 364.068 509.275V518.445H355.265V509.275C355.265 499.004 363.701 490.934 373.605 490.934C383.876 490.934 391.946 499.371 391.946 509.275V518.445Z" fill="#494748"/>
<path d="M364.068 518.446H354.531C352.697 518.446 351.597 516.978 351.597 515.511C351.597 513.677 353.064 512.577 354.531 512.577H364.068C365.903 512.577 367.003 514.044 367.003 515.511C367.003 516.978 365.536 518.446 364.068 518.446Z" fill="#9B4A48"/>
<path d="M391.947 518.446H382.776C380.942 518.446 379.842 516.978 379.842 515.511C379.842 513.677 381.309 512.577 382.776 512.577H392.314C394.148 512.577 395.248 514.044 395.248 515.511C394.881 516.978 393.781 518.446 391.947 518.446Z" fill="#9B4A48"/>
<path d="M349.396 518.445H340.592V509.275C340.592 504.139 336.19 499.738 331.055 499.738C325.919 499.738 321.518 504.139 321.518 509.275V518.445H312.714V509.275C312.714 499.004 321.151 490.934 331.055 490.934C341.326 490.934 349.396 499.371 349.396 509.275V518.445Z" fill="#494748"/>
<path d="M321.518 518.446H311.98C310.146 518.446 309.046 516.978 309.046 515.511C309.046 513.677 310.513 512.577 311.98 512.577H321.518C323.352 512.577 324.452 514.044 324.452 515.511C324.452 516.978 322.985 518.446 321.518 518.446Z" fill="#9B4A48"/>
<path d="M349.396 518.446H339.858C338.024 518.446 336.924 516.978 336.924 515.511C336.924 513.677 338.391 512.577 339.858 512.577H349.396C351.23 512.577 352.33 514.044 352.33 515.511C352.697 516.978 351.23 518.446 349.396 518.446Z" fill="#9B4A48"/>
<path d="M415.789 505.974C413.955 505.24 411.021 505.24 409.553 506.708C409.187 506.708 406.619 506.708 406.252 507.075C405.885 507.808 405.885 510.743 404.418 511.843C402.584 513.31 405.885 514.778 406.986 514.778C407.719 514.778 412.855 514.778 414.322 514.778C415.423 514.778 416.156 514.044 416.89 512.944C417.257 512.577 417.257 511.843 417.623 511.476C417.99 510.376 418.357 510.376 418.724 509.642C419.824 507.808 416.89 506.341 415.789 505.974Z" fill="#494748"/>
<path d="M442.567 505.974C440.733 505.24 437.798 505.24 436.331 506.708C435.964 506.708 435.598 506.708 435.231 506.708C434.864 506.708 433.397 506.341 433.03 507.075C432.663 507.808 433.03 508.175 433.397 508.542C434.497 510.743 432.663 510.743 431.563 511.843C429.728 513.31 433.03 514.778 434.13 514.778C434.864 514.778 435.964 514.044 436.698 513.677C437.798 513.31 439.999 514.778 441.467 514.411C442.567 514.411 443.301 513.677 444.034 512.577C444.401 512.21 444.401 511.476 444.768 511.109C445.135 510.009 445.502 510.009 445.868 509.275C446.602 508.175 443.668 506.708 442.567 505.974Z" fill="#494748"/>
<path d="M435.597 514.778H413.588L412.487 485.432H437.064L435.597 514.778Z" fill="#F15C00"/>
<path d="M435.597 514.778H413.588L412.487 485.432H437.064L435.597 514.778Z" fill="#939393"/>
<path d="M413.588 514.778H417.99L417.623 485.432H412.487L413.588 514.778Z" fill="#ADADAD"/>
<path d="M435.596 514.778H431.194L431.561 485.432H437.063L435.596 514.778Z" fill="#ADADAD"/>
<path d="M427.16 514.778H422.391L422.024 485.432H427.16V514.778Z" fill="#ADADAD"/>
<path d="M428.995 479.196C428.628 477.729 427.16 476.629 425.693 476.996H424.593C423.125 476.996 422.025 478.463 421.658 479.563L428.995 479.196Z" fill="#ADADAD"/>
<path d="M439.437 478.536L410.896 480.548L411.206 484.938L439.746 482.927L439.437 478.536Z" fill="#ADADAD"/>
<path d="M437.064 514.777H445.134C445.134 514.777 447.335 513.677 446.235 512.577C445.134 511.476 443.667 509.642 442.933 510.009C442.2 510.742 439.265 508.542 438.898 510.009C438.532 511.476 438.165 511.109 437.431 511.843C436.698 512.943 435.23 514.777 437.064 514.777Z" fill="#CE6721"/>
<path d="M409.553 514.777H416.523C416.523 514.777 418.357 513.677 417.623 512.943C416.89 512.21 417.623 510.743 413.588 510.376C412.488 510.376 410.654 511.843 409.92 512.577C409.553 513.31 408.086 514.777 409.553 514.777Z" fill="#CE6721"/>
<path d="M427.895 514.777H438.899C438.899 514.777 439.633 511.476 438.532 511.109C437.065 510.742 436.331 509.275 436.331 508.541C436.331 507.808 433.764 507.808 433.764 509.275C433.764 510.742 431.929 511.109 431.196 511.476C430.095 511.843 427.895 514.777 427.895 514.777Z" fill="#9B4A48"/>
<path d="M405.886 514.777H413.222C413.222 514.777 413.956 510.376 412.855 509.642C411.388 508.908 409.921 509.642 409.187 510.009C407.72 510.742 405.886 514.777 405.886 514.777Z" fill="#9B4A48"/>
<path d="M891.918 139.89C887.516 139.89 883.481 140.991 879.813 143.192C865.14 115.314 846.432 98.0731 825.891 98.0731C807.55 98.0731 790.31 112.012 776.37 135.122C767.2 129.986 757.296 127.052 746.658 127.052C728.684 127.052 712.544 135.122 699.706 148.694C694.204 143.192 687.601 139.523 680.631 139.523C671.828 139.523 663.758 144.659 657.889 152.729H696.038H703.741H767.567H798.013H869.542H884.948H915.027C909.158 145.026 901.088 139.89 891.918 139.89Z" fill="#C7EED4"/>
<path opacity="0.2" d="M1353.37 179.507C1349.71 179.507 1346.04 180.607 1342.74 182.441C1329.9 157.864 1313.76 143.192 1295.78 143.192C1279.64 143.192 1264.6 155.297 1252.5 175.472C1244.43 171.07 1235.63 168.502 1226.45 168.502C1210.68 168.502 1196.38 175.838 1185.37 187.577C1180.6 182.808 1174.73 179.507 1168.5 179.507C1160.79 179.507 1153.82 183.908 1148.69 191.245H1182.07H1188.67H1244.43H1270.84H1333.2H1346.77H1373.18C1368.05 184.275 1361.08 179.507 1353.37 179.507Z" fill="#C7EED4"/>
<path opacity="0.2" d="M496.49 90.37C500.158 90.37 503.826 91.4704 507.127 93.3044C519.966 68.7277 536.106 54.0551 554.08 54.0551C570.22 54.0551 585.259 66.16 597.364 86.3349C605.434 81.9331 614.238 79.3655 623.408 79.3655C639.182 79.3655 653.487 86.7018 664.492 98.4399C669.26 93.6713 675.13 90.37 681.365 90.37C689.069 90.37 696.038 94.7718 701.174 102.108H667.793H661.19H605.434H579.024H516.665H503.092H476.682C481.45 94.7718 488.42 90.37 496.49 90.37Z" fill="#C7EED4"/>
<path opacity="0.2" d="M1061.75 54.7889C1056.25 54.7889 1050.75 56.2562 1045.98 59.1907C1026.91 22.509 1002.33 0.5 975.552 0.5C951.342 0.5 929.333 18.474 910.992 48.9198C899.254 42.3171 886.049 38.6489 872.109 38.6489C848.633 38.6489 827.358 49.2866 810.851 66.8938C803.881 59.5575 795.078 55.1557 785.908 55.1557C774.169 55.1557 763.898 61.7584 756.195 72.7629H806.082H815.986H898.887H938.503H1031.67H1051.85H1091.1C1083.76 61.3916 1073.13 54.7889 1061.75 54.7889Z" fill="#C7EED4"/>
<path d="M1329.41 98.0123C1346.6 95.2143 1358.27 79.0059 1355.48 61.8099C1352.68 44.6138 1336.47 32.942 1319.27 35.7401C1302.08 38.5381 1290.4 54.7465 1293.2 71.9425C1296 89.1385 1312.21 100.81 1329.41 98.0123Z" fill="#C7EED4"/>
<path opacity="0.2" d="M1069.82 156.03C1088.46 156.03 1103.57 140.921 1103.57 122.283C1103.57 103.645 1088.46 88.5355 1069.82 88.5355C1051.19 88.5355 1036.08 103.645 1036.08 122.283C1036.08 140.921 1051.19 156.03 1069.82 156.03Z" fill="#C7EED4"/>
<path d="M60.7105 88.169C64.0118 88.169 66.9464 88.9026 69.5141 90.7367C80.1518 70.1949 94.0908 57.7231 109.13 57.7231C122.703 57.7231 135.174 67.994 145.445 84.8676C152.048 81.1994 159.384 78.9985 167.454 78.9985C180.66 78.9985 192.765 84.8676 201.935 94.7716C205.97 90.7366 210.739 88.169 215.874 88.169C222.477 88.169 228.346 91.8371 232.748 98.073H204.87H199.367H152.048H129.672H77.2172H65.8459H43.8369C48.2387 91.8371 54.1078 88.169 60.7105 88.169Z" fill="#C7EED4"/>
<path opacity="0.2" d="M192.03 118.615C196.799 118.615 201.201 120.082 205.236 122.283C221.376 91.4706 241.918 72.7629 264.293 72.7629C284.468 72.7629 303.176 87.8024 318.582 113.48C328.486 107.977 339.491 104.676 351.229 104.676C371.037 104.676 389.011 113.48 402.95 128.519C408.819 122.283 416.156 118.615 423.859 118.615C433.763 118.615 442.566 124.117 448.802 133.288H406.985H398.548H328.486H295.106H216.974H200.1H167.087C173.323 124.484 182.126 118.615 192.03 118.615Z" fill="#C7EED4"/>
<path opacity="0.2" d="M492.453 135.122C492.453 130.721 496.121 127.052 500.523 127.052C504.925 127.052 508.593 130.721 508.593 135.122C508.593 139.524 504.925 143.192 500.523 143.192C496.121 143.192 492.453 139.524 492.453 135.122Z" fill="#C7EED4"/>
</svg>
