<svg id="Layer_1" data-name="Layer 1" xmlns="http://www.w3.org/2000/svg" xmlns:xlink="http://www.w3.org/1999/xlink" viewBox="0 0 1440 513"><defs><style>.cls-1,.cls-28,.cls-33{fill:none;}.cls-2{clip-path:url(#clip-path);}.cls-3{fill:#f6faf3;opacity:0.29;}.cls-3,.cls-39{isolation:isolate;}.cls-4{fill:#d6edd6;}.cls-5{fill:#cce2cc;}.cls-6{fill:#dadfe3;}.cls-7{fill:#a8e0c5;}.cls-8{fill:#006738;}.cls-9{fill:#8e664c;}.cls-10{fill:#f26b0f;}.cls-11{fill:#603223;}.cls-12{fill:#03ad7b;}.cls-13{fill:#8e6340;}.cls-14{fill:#f7b935;}.cls-15{fill:#019444;}.cls-16{fill:#c6bfb0;}.cls-17{fill:#e7e7e7;}.cls-18{fill:#fff;}.cls-19{fill:#4f9eb6;}.cls-20{fill:#494748;}.cls-21{fill:#4bbc62;}.cls-22{fill:#c93f35;}.cls-23{fill:#309aee;stroke:#fff;stroke-width:2.2px;}.cls-23,.cls-33{stroke-miterlimit:10;}.cls-24{fill:#a5ada5;}.cls-25{fill:#cecece;}.cls-26{fill:#919191;}.cls-27{fill:#9b4a48;}.cls-28,.cls-33{stroke:#7c797b;}.cls-28{stroke-linecap:round;stroke-linejoin:round;stroke-width:3.3px;}.cls-29{fill:#adadad;}.cls-30{fill:#cecccd;}.cls-31{fill:#ce6721;}.cls-32{opacity:0.3;}.cls-33{stroke-width:1.1px;}.cls-34{fill:#b5b5b5;}.cls-35{fill:#7c797b;}.cls-36{fill:#f15c00;}.cls-37{fill:#939393;}.cls-38,.cls-39{fill:#c7eed4;}.cls-39{opacity:0.2;}</style><clipPath id="clip-path"><rect class="cls-1" x="-1.03" y="-0.17" width="1444.65" height="512.52"/></clipPath></defs><title>loginfooter</title><g class="cls-2"><path class="cls-3" d="M1508.9,426c-2.56-10.27-7-20.18-15-26.78-14.67-12.11-36.31-8.8-55-4.4-.36-42.55-58.32-71.9-92.8-47-1.1-29.71-20.91-57.95-48.79-68.59s-61.26-3.3-82.17,18.34c-12.47-27.14-40.71-46.22-70.42-47.32s-59.8,15.77-74.1,41.82C1027.27,256.9,958,259.84,917.23,298c-61.63-37.78-153.33-9.91-183.78,55.75-26.77-47.32-100.87-57.59-139.75-19.44-.37-28.61-19.81-56.12-46.59-66.76-26.78-10.27-59.42-2.93-79.23,18-12.47-23.85-26.05-48.79-49.89-61.26s-59.79-4-65.66,22c-42.55-27.51-99.77-30.45-145.26-8.07-15.77,7.7-32.28,24.57-24.94,40.71-18.71-26.77-57.23-37.41-86.94-24.21s-47.32,49.16-39.61,80.7c-18-9.53-42.19-5.13-55.39,10.27s-14.31,40-2.2,56.13c-13.21-18.34-38.89-4.4-53.19,12.84s-40.35,97.57,29.71,108.94l1476.07,19.81C1496.8,529.82,1521,473,1508.9,426Z"/><path class="cls-4" d="M510.06,503.4V376.85a7,7,0,0,0-7-7H442.2a7,7,0,0,0-7,7v96.48a7,7,0,0,1-7,7H353.43a7,7,0,0,1-7-7V245.53a7,7,0,0,0-7-7h-73a7,7,0,0,0-7,7V411a7,7,0,0,1-7,7H222.11a7,7,0,0,1-7-7V230.49a6.86,6.86,0,0,0-11-5.5l-55,44a7.82,7.82,0,0,0-2.56,5.5v37.78a7,7,0,0,1-7,7H47.14a7,7,0,0,0-7,7V514.41a7,7,0,0,0,7,7H503.46a7,7,0,0,0,7-7v-11Z"/><path class="cls-5" d="M-3.48,439.58v89.14a5,5,0,0,0,5.13,5.13H550.78a5,5,0,0,0,5.13-5.13V450.58a5,5,0,0,0-5.13-5.13H515.2a5,5,0,0,0-5.14,5.13v28.25a5,5,0,0,1-5.13,5.13H467.51a5,5,0,0,1-5.13-5.13V349.34a5,5,0,0,0-5.14-5.13H425a5,5,0,0,0-5.14,5.13V452.42a5.14,5.14,0,0,1-10.27,0V272.68a5,5,0,0,0-5.13-5.14H327.75a5,5,0,0,0-5.13,5.14V510a5,5,0,0,1-5.14,5.13H285.2a5,5,0,0,1-5.13-5.13V382a5,5,0,0,0-5.14-5.14H197.17A5,5,0,0,0,192,382v95a5,5,0,0,1-5.13,5.14H134.44A5,5,0,0,1,129.3,477V254.7a5,5,0,0,0-5.13-5.13H58.51a5,5,0,0,0-5.14,5.13V429.31a5,5,0,0,1-5.13,5.13H1.65C-1.28,434.81-3.48,437-3.48,439.58Z"/><path class="cls-6" d="M334,290.25h62.36v-7.34H334Z"/><path class="cls-6" d="M334,308.88h62.36v-7.34H334Z"/><path class="cls-6" d="M334,327.5h62.36v-7.33H334Z"/><path class="cls-6" d="M334,346.13h62.36v-7.34H334Z"/><path class="cls-6" d="M334,364.76h62.36v-7.34H334Z"/><path class="cls-6" d="M334,383.38h62.36v-7.33H334Z"/><path class="cls-6" d="M334,402h62.36v-7.34H334Z"/><path class="cls-6" d="M334,420.64h62.36V413.3H334Z"/><path class="cls-6" d="M334,439.63h62.36v-7.34H334Z"/><path class="cls-6" d="M263.78,394.62H273v-9.17h-9.17Z"/><path class="cls-6" d="M248,394.62h9.17v-9.17H248Z"/><path class="cls-6" d="M232.24,394.62h9.17v-9.17h-9.17Z"/><path class="cls-6" d="M216.47,394.62h9.17v-9.17h-9.17Z"/><path class="cls-6" d="M200.7,394.62h9.17v-9.17H200.7Z"/><path class="cls-6" d="M263.78,409.61H273v-9.17h-9.17Z"/><path class="cls-6" d="M248,409.61h9.17v-9.17H248Z"/><path class="cls-6" d="M232.24,409.61h9.17v-9.17h-9.17Z"/><path class="cls-6" d="M216.47,409.61h9.17v-9.17h-9.17Z"/><path class="cls-6" d="M200.7,409.61h9.17v-9.17H200.7Z"/><path class="cls-6" d="M263.78,424.23H273v-9.17h-9.17Z"/><path class="cls-6" d="M248,424.23h9.17v-9.17H248Z"/><path class="cls-6" d="M232.24,424.23h9.17v-9.17h-9.17Z"/><path class="cls-6" d="M216.47,424.23h9.17v-9.17h-9.17Z"/><path class="cls-6" d="M200.7,424.23h9.17v-9.17H200.7Z"/><path class="cls-6" d="M263.78,439.22H273v-9.17h-9.17Z"/><path class="cls-6" d="M248,439.22h9.17v-9.17H248Z"/><path class="cls-6" d="M232.24,439.22h9.17v-9.17h-9.17Z"/><path class="cls-6" d="M216.47,439.22h9.17v-9.17h-9.17Z"/><path class="cls-6" d="M200.7,439.22h9.17v-9.17H200.7Z"/><path class="cls-6" d="M263.78,454.21H273V445h-9.17Z"/><path class="cls-6" d="M248,454.21h9.17V445H248Z"/><path class="cls-6" d="M232.24,454.21h9.17V445h-9.17Z"/><path class="cls-6" d="M216.47,454.21h9.17V445h-9.17Z"/><path class="cls-6" d="M200.7,454.21h9.17V445H200.7Z"/><path class="cls-4" d="M845.33,521.38a8.3,8.3,0,0,0,8.44-8.44V328.07a8.3,8.3,0,0,0-8.44-8.44H755.09a8.3,8.3,0,0,1-8.43-8.44V240.4a8.68,8.68,0,0,0-15-5.87L679.9,291a8.33,8.33,0,0,0-2.2,5.87v113a8.3,8.3,0,0,1-8.44,8.43H642.11a8.29,8.29,0,0,1-8.43-8.43V247.73a8.3,8.3,0,0,0-8.44-8.43H555.91a8.29,8.29,0,0,0-8.43,8.43V521.38Z"/><path class="cls-5" d="M897.42,440.68v89.5a5,5,0,0,1-5.14,5.14H343.16a5,5,0,0,1-5.14-5.14V452.05a5,5,0,0,1,5.14-5.14h35.58a5,5,0,0,1,5.14,5.14V480.3a5,5,0,0,0,5.13,5.13h37.42a5,5,0,0,0,5.13-5.13V350.81a5,5,0,0,1,5.14-5.14H469a5,5,0,0,1,5.13,5.14V453.88a5.14,5.14,0,1,0,10.27,0V274.14a5,5,0,0,1,5.14-5.13h76.66a5,5,0,0,1,5.14,5.13V511.47a5,5,0,0,0,5.14,5.14h32.27a5,5,0,0,0,5.14-5.14v-128a5,5,0,0,1,5.14-5.14h77.76a5,5,0,0,1,5.14,5.14v95A5,5,0,0,0,707,483.6h52.82a5,5,0,0,0,5.14-5.14V256.17a5,5,0,0,1,5.14-5.14h65.65a5,5,0,0,1,5.14,5.14v174.6a5,5,0,0,0,5.14,5.14h46.58A4.85,4.85,0,0,1,897.42,440.68Z"/><path class="cls-6" d="M558.48,283.68H495V291h63.46Z"/><path class="cls-6" d="M558.48,302.39H495v7.34h63.46Z"/><path class="cls-6" d="M558.48,321.1H495v7.33h63.46Z"/><path class="cls-6" d="M558.48,339.8H495v7.34h63.46Z"/><path class="cls-6" d="M558.48,358.51H495v7.34h63.46Z"/><path class="cls-6" d="M558.48,377.22H495v7.34h63.46Z"/><path class="cls-6" d="M558.48,395.93H495v7.34h63.46Z"/><path class="cls-6" d="M558.48,414.64H495V422h63.46Z"/><path class="cls-6" d="M558.48,433.34H495v7.34h63.46Z"/><path class="cls-6" d="M630,386.76h-9.17v9.17H630Z"/><path class="cls-6" d="M645.78,386.76h-9.17v9.17h9.17Z"/><path class="cls-6" d="M661.56,386.76h-9.17v9.17h9.17Z"/><path class="cls-6" d="M677.33,386.76h-9.17v9.17h9.17Z"/><path class="cls-6" d="M693.1,386.76h-9.17v9.17h9.17Z"/><path class="cls-6" d="M630,401.43h-9.17v9.17H630Z"/><path class="cls-6" d="M645.78,401.43h-9.17v9.17h9.17Z"/><path class="cls-6" d="M661.56,401.43h-9.17v9.17h9.17Z"/><path class="cls-6" d="M677.33,401.43h-9.17v9.17h9.17Z"/><path class="cls-6" d="M693.1,401.43h-9.17v9.17h9.17Z"/><path class="cls-6" d="M630,416.47h-9.17v9.17H630Z"/><path class="cls-6" d="M645.78,416.47h-9.17v9.17h9.17Z"/><path class="cls-6" d="M661.56,416.47h-9.17v9.17h9.17Z"/><path class="cls-6" d="M677.33,416.47h-9.17v9.17h9.17Z"/><path class="cls-6" d="M693.1,416.47h-9.17v9.17h9.17Z"/><path class="cls-6" d="M630,431.14h-9.17v9.17H630Z"/><path class="cls-6" d="M645.78,431.14h-9.17v9.17h9.17Z"/><path class="cls-6" d="M661.56,431.14h-9.17v9.17h9.17Z"/><path class="cls-6" d="M677.33,431.14h-9.17v9.17h9.17Z"/><path class="cls-6" d="M693.1,431.14h-9.17v9.17h9.17Z"/><path class="cls-6" d="M630,445.81h-9.17V455H630Z"/><path class="cls-6" d="M645.78,445.81h-9.17V455h9.17Z"/><path class="cls-6" d="M661.56,445.81h-9.17V455h9.17Z"/><path class="cls-6" d="M677.33,445.81h-9.17V455h9.17Z"/><path class="cls-6" d="M693.1,445.81h-9.17V455h9.17Z"/><path class="cls-7" d="M1419.4,517.71,1159,297.62c-15.77-13.57-36.31-12.47-51.72,2.2L885,517.71Z"/><path class="cls-8" d="M1070.56,336.5c-18,0-32.65,13.94-32.65,31.18v54.66c0,17.24,14.67,31.18,32.65,31.18s32.64-13.94,32.64-31.18V367.68C1103.2,350.44,1088.53,336.5,1070.56,336.5Z"/><path class="cls-9" d="M1092.93,413.17a3.3,3.3,0,1,0-6.6,0c0,12.47-5.87,19.44-12.1,21.27V400a3.67,3.67,0,0,0-7.34,0v34.48c-6.24-1.83-12.11-8.8-12.11-21.27a3.3,3.3,0,1,0-6.6,0c0,8.44,2.2,15.77,6.6,20.91a20.76,20.76,0,0,0,11.74,7v62.72h7.71V441.05C1084.13,439.21,1092.93,429.68,1092.93,413.17Z"/><path class="cls-10" d="M1292.11,340.54c-18,0-32.64,13.94-32.64,31.18v54.65c0,17.24,14.67,31.18,32.64,31.18s32.65-13.94,32.65-31.18V371.72C1324.76,354.48,1310.09,340.54,1292.11,340.54Z"/><path class="cls-11" d="M1314.49,417.2a3.3,3.3,0,0,0-6.6,0c0,12.48-5.87,19.44-12.11,21.28V404a3.67,3.67,0,1,0-7.33,0v34.48c-6.24-1.84-12.11-8.8-12.11-21.28a3.3,3.3,0,0,0-6.6,0c0,8.44,2.2,15.78,6.6,20.91a20.67,20.67,0,0,0,11.74,7v62.73h7.7V445.08C1305.69,443.25,1314.49,433.71,1314.49,417.2Z"/><path class="cls-12" d="M1387.49,370.25c-18,0-32.65,13.94-32.65,31.18v54.66c0,17.24,14.67,31.18,32.65,31.18s32.64-13.94,32.64-31.18V401.43C1420.13,384.19,1405.83,370.25,1387.49,370.25Z"/><path class="cls-13" d="M1409.86,446.92a3.3,3.3,0,1,0-6.6,0c0,12.47-5.87,19.44-12.11,21.27V433.71a3.67,3.67,0,1,0-7.33,0v34.48c-6.24-1.83-12.11-8.8-12.11-21.27a3.3,3.3,0,1,0-6.6,0c0,8.43,2.2,15.77,6.6,20.9a20.67,20.67,0,0,0,11.74,7v62.73h7.7V474.79C1401.06,473,1409.86,463.42,1409.86,446.92Z"/><path class="cls-7" d="M1282.94,517.71,1004.16,337.6a48.64,48.64,0,0,0-55.39,1.84L710.71,517.71Z"/><path class="cls-10" d="M941.44,367c-18,0-32.65,13.94-32.65,31.18v54.65c0,17.24,14.67,31.18,32.65,31.18s32.64-13.94,32.64-31.18V398.13C974.08,380.89,959.78,367,941.44,367Z"/><path class="cls-11" d="M963.81,443.61a3.3,3.3,0,0,0-6.6,0c0,12.48-5.87,19.45-12.11,21.28V430.41a3.67,3.67,0,1,0-7.33,0v34.48c-6.24-1.83-12.11-8.8-12.11-21.28a3.3,3.3,0,1,0-6.6,0c0,8.44,2.2,15.78,6.6,20.91a20.7,20.7,0,0,0,11.74,7v62.73h7.7V471.49C955,469.29,963.81,459.75,963.81,443.61Z"/><path class="cls-7" d="M1006,517.71,791,452.78c-13.2-4-30.08-3.66-42.55.74L564.72,517.71Z"/><path class="cls-14" d="M1349.34,263.87c-27.51,0-49.52,21.28-49.52,47.32v82.9c0,26.05,22,47.32,49.52,47.32s49.52-21.27,49.52-47.32v-82.9C1398.86,285.15,1376.85,263.87,1349.34,263.87Z"/><path class="cls-13" d="M1383.09,380.15a4.77,4.77,0,0,0-9.54,0c0,19.08-8.81,29.35-18.34,32.28V360a5.87,5.87,0,0,0-11.74,0v52.45c-9.54-2.93-18.34-13.2-18.34-32.28a4.77,4.77,0,0,0-9.54,0c0,12.84,3.67,23.85,10.27,31.55a32.57,32.57,0,0,0,18,10.64v95.37h11.37V422.34C1369.88,419.4,1383.09,405.1,1383.09,380.15Z"/><path class="cls-15" d="M1137.68,311.19C1117.51,311.19,1101,327,1101,346V407.3c0,19.07,16.51,34.85,36.68,34.85s36.69-15.78,36.69-34.85V346C1174,326.6,1157.86,311.19,1137.68,311.19Z"/><path class="cls-11" d="M1162.63,396.66A3.68,3.68,0,0,0,1159,393a3.47,3.47,0,0,0-3.67,3.67c0,13.94-6.23,21.64-13.57,23.84V382a4,4,0,1,0-8.07,0V420.5c-7-2.2-13.57-9.9-13.57-23.84a3.68,3.68,0,0,0-3.67-3.67,3.47,3.47,0,0,0-3.67,3.67c0,9.54,2.57,17.61,7.7,23.48,3.67,4,8.07,7,13.21,7.7v70.43h8.44V427.84C1152.72,425.64,1162.63,415,1162.63,396.66Z"/><path class="cls-12" d="M1232,270.11c-23.85,0-43.29,18.34-43.29,41.08v72.27c0,22.74,19.44,41.08,43.29,41.08s43.28-18.34,43.28-41.08V311.19C1275.24,288.45,1255.8,270.11,1232,270.11Z"/><path class="cls-13" d="M1261.3,371a4.46,4.46,0,0,0-4.4-4.4,4.24,4.24,0,0,0-4.4,4.4c0,16.51-7.34,25.31-15.78,27.88V353.38a5.14,5.14,0,1,0-10.27,0v45.48c-8.43-2.57-15.77-11.37-15.77-27.88a4.4,4.4,0,0,0-8.8,0c0,11.38,2.93,20.91,8.8,27.52,4.4,4.77,9.54,8.07,15.41,9.17v82.9h9.9v-82.9C1249.93,405.1,1261.3,392.63,1261.3,371Z"/><path class="cls-14" d="M1006.36,284.78c-23.84,0-43.28,18.34-43.28,41.09v72.26c0,22.74,19.44,41.08,43.28,41.08s43.29-18.34,43.29-41.08V325.87C1049.65,303.12,1030.21,284.78,1006.36,284.78Z"/><path class="cls-13" d="M1035.71,385.66a4.46,4.46,0,0,0-4.4-4.4,4.23,4.23,0,0,0-4.4,4.4c0,16.5-7.34,25.31-15.78,27.88V368.05a5.14,5.14,0,1,0-10.27,0v45.49c-8.44-2.57-15.77-11.38-15.77-27.88a4.41,4.41,0,0,0-8.81,0c0,11.37,2.94,20.91,8.81,27.51,4.4,4.77,9.54,8.07,15.41,9.17v82.9h9.9v-82.9C1024.34,419.77,1035.71,407.3,1035.71,385.66Z"/><path class="cls-8" d="M888.62,336.5c-18,0-32.65,13.94-32.65,31.18v54.66c0,17.24,14.67,31.18,32.65,31.18s32.64-13.94,32.64-31.18V367.68C921.63,350.44,907,336.5,888.62,336.5Z"/><path class="cls-9" d="M911,413.17a3.3,3.3,0,1,0-6.6,0c0,12.47-5.87,19.44-12.11,21.27V400a3.67,3.67,0,0,0-7.33,0v34.48c-6.24-1.83-12.11-8.8-12.11-21.27a3.3,3.3,0,0,0-6.6,0c0,8.44,2.2,15.77,6.6,20.91a20.73,20.73,0,0,0,11.74,7v62.72h7.7V441.05C902.19,439.21,911,429.68,911,413.17Z"/><path class="cls-12" d="M820,297.25c-23.84,0-43.28,18.35-43.28,41.09V410.6c0,22.74,19.44,41.08,43.28,41.08s43.28-18.34,43.28-41.08V338.34C863.3,315.6,843.86,297.25,820,297.25Z"/><path class="cls-13" d="M849.37,398.13a4.47,4.47,0,0,0-4.41-4.4,4.24,4.24,0,0,0-4.4,4.4c0,16.51-7.33,25.31-15.77,27.88V380.52a5.14,5.14,0,0,0-10.27,0V426c-8.44-2.57-15.78-11.37-15.78-27.88a4.4,4.4,0,0,0-8.8,0c0,11.37,2.94,20.91,8.8,27.51,4.41,4.77,9.54,8.07,15.41,9.17v82.9h9.9v-82.9C838,432.24,849.37,419.77,849.37,398.13Z"/><path class="cls-16" d="M718.78,230.13h-7v19.44h7Z"/><path class="cls-16" d="M719.51,192.34h-8.8v23.11h8.8Z"/><path class="cls-16" d="M686.54,226.57l3.08,8.24,21.65-8.08-3.08-8.25Z"/><path class="cls-16" d="M722.22,218.91l-3.08,8.24,21.65,8.09,3.08-8.25Z"/><path class="cls-17" d="M971.15,118.61a6,6,0,0,0-5.87-5.86,5.79,5.79,0,0,0-5.87,5.86l-3.67,83.64c-.36,5.87,3.3,11,7.71,11h4c4.4,0,8.07-5.13,7.7-11Z"/><path class="cls-17" d="M856.7,266.08a6.26,6.26,0,0,0-3.3,7.7c1.1,2.93,4.4,4.4,7.7,3.67l79.6-25.68c5.51-1.83,9.17-7,7.71-11l-1.47-3.66c-1.47-4.41-7.7-5.87-13.21-3.3Z"/><path class="cls-17" d="M1073.86,266.08a6.26,6.26,0,0,1,3.3,7.7c-1.1,2.93-4.4,4.4-7.7,3.67l-79.6-25.68c-5.5-1.83-9.17-7-7.7-11l1.46-3.66c1.47-4.41,7.71-5.87,13.21-3.3Z"/><path class="cls-17" d="M977.75,505.24H952.81l6.24-252.74h12.47Z"/><path class="cls-17" d="M1187.21,150.89a5,5,0,0,0-5.14-4.76,5.48,5.48,0,0,0-5.14,4.76L1174,221c-.37,5.13,2.57,9.17,6.6,9.17h3.3c3.67,0,6.61-4.4,6.61-9.17Z"/><path class="cls-17" d="M1091.83,274.14a5.22,5.22,0,0,0-2.93,6.24,5.06,5.06,0,0,0,6.23,2.94l66.4-21.65c4.77-1.46,7.7-5.87,6.23-9.17l-1.1-3.3c-1.46-3.67-6.23-4.77-11-2.93Z"/><path class="cls-17" d="M1273,274.15a5.2,5.2,0,0,1,2.93,6.23,5.06,5.06,0,0,1-6.23,2.94l-66.39-21.65c-4.77-1.46-7.71-5.87-6.24-9.17l1.1-3.3c1.47-3.67,6.24-4.77,11-2.93Z"/><path class="cls-17" d="M1192.71,474.06h-20.54l5.13-211.29h10.27Z"/><path class="cls-17" d="M721.35,98.07a6.28,6.28,0,0,0-6.61-6.23,7.05,7.05,0,0,0-6.6,6.23l-4,91c-.37,6.61,3.67,12.11,8.43,12.11H717c4.76,0,8.8-5.5,8.43-12.11Z"/><path class="cls-17" d="M597.36,258a6.8,6.8,0,0,0-3.66,8.44,6.44,6.44,0,0,0,8.07,4l86.56-27.88c6.24-1.84,9.91-7.34,8.07-12.11l-1.46-4c-1.84-4.77-8.07-6.24-14.31-3.67Z"/><path class="cls-17" d="M832.86,258a6.8,6.8,0,0,1,3.67,8.43,6.44,6.44,0,0,1-8.07,4L741.89,242.6c-6.24-1.84-9.9-7.34-8.07-12.11l1.47-4c1.83-4.77,8.07-6.24,14.3-3.67Z"/><path class="cls-17" d="M728.68,517.71H701.54l7-274.74h13.2Z"/><path class="cls-18" d="M715.11,233.8A12.11,12.11,0,1,0,703,221.69,12.11,12.11,0,0,0,715.11,233.8Z"/><path class="cls-16" d="M1185,252.87h-5.13v15H1185Z"/><path class="cls-16" d="M1186.1,223.89h-7V241.5h7Z"/><path class="cls-16" d="M1160.47,250.24l2.44,6.53,16.49-6.16-2.43-6.53Z"/><path class="cls-16" d="M1188,243.85l-2.43,6.52,16.49,6.16,2.44-6.53Z"/><path class="cls-18" d="M1191.61,246.63a9.17,9.17,0,1,1-9.17-9.17A9.08,9.08,0,0,1,1191.61,246.63Z"/><path class="cls-16" d="M968.58,240.4h-6.23v18h6.23Z"/><path class="cls-16" d="M969.32,205.92h-8.07v21.27h8.07Z"/><path class="cls-16" d="M938.93,237.55l2.83,7.55,19.93-7.44-2.82-7.56Z"/><path class="cls-16" d="M971.78,230.06,969,237.62l19.93,7.45,2.82-7.56Z"/><path class="cls-18" d="M965.28,244.07a11,11,0,1,0-11-11A11,11,0,0,0,965.28,244.07Z"/><path class="cls-19" d="M897.42,426v91.7H758.76V426l1.84-1.47L797.28,397l2.57-2.2,28.24-21.28,28.61,21.28,2.57,2.2Z"/><path class="cls-18" d="M897.42,424.17H758.76v3.3H897.42Z"/><path class="cls-18" d="M829.92,375.75h-3.3V426h3.3Z"/><path class="cls-18" d="M796.54,427.47h-3.3v89.87h3.3Z"/><path class="cls-18" d="M897.42,458.65H758.76V462H897.42Z"/><path class="cls-18" d="M863.31,427.47H860v89.87h3.3Z"/><path class="cls-18" d="M829.56,424.54,828.09,426l-1.1,1.1L797.28,397l2.57-2.2,28.24,28.61Z"/><path class="cls-18" d="M859.27,397l-29.71,30.08-1.47-1.1-1.1-1.47,1.1-1.1,28.61-28.61Z"/><path class="cls-18" d="M897.42,426v3.3a5.49,5.49,0,0,1-4-1.47l-65.3-49.15L762.8,427.84a7.73,7.73,0,0,1-4,1.47V426l1.84-1.47L796.91,397l2.57-1.84,28.61-21.64,28.25,21.64L858.9,397Z"/><path class="cls-20" d="M897.42,426a5.49,5.49,0,0,1-4-1.47l-65.3-48.79L762.8,424.54a6.57,6.57,0,0,1-7.71-10.64l69.33-51.72a6.61,6.61,0,0,1,8.07,0l69.33,51.72a6.51,6.51,0,0,1,1.47,9.17C901.46,424.91,899.62,426,897.42,426Z"/><path class="cls-20" d="M850.47,462H806.08v55.39h44.39Z"/><path class="cls-15" d="M1011.87,459.39a45.13,45.13,0,0,0-9.91,1.1,62.19,62.19,0,0,0-58.69-42.92,59.84,59.84,0,0,0-26.78,6.24c0-6.24-1.83-12.84-8.8-19.08,0,0-9.9,11.74-4.4,26-5.87-4.41-14.31-7.34-24.95-2.94,0,0,4.77,10.27,16.14,13.94-2.2,2.57-3.66,5.5-5.5,8.8a13.28,13.28,0,0,0-3.67-.73,11.22,11.22,0,0,0-11,10.64,46,46,0,0,0-10.27-1.1,46.71,46.71,0,0,0-40.35,23.47A45.41,45.41,0,0,0,817.45,506a64.44,64.44,0,0,0,1.47,11.74h237.7a41.23,41.23,0,0,0,1.47-11.74A45.89,45.89,0,0,0,1011.87,459.39Z"/><path class="cls-8" d="M1093.67,508.17a37,37,0,0,1-1.1,9.17H901.82a39.3,39.3,0,0,1-1.1-9.17,35.66,35.66,0,0,1,5.14-18.7,36.84,36.84,0,0,1,32.28-18.71,40,40,0,0,1,16.14,3.67A49.19,49.19,0,0,1,1002,437.38a49.07,49.07,0,0,1,46.59,34.11,27.57,27.57,0,0,1,7.7-.73A37.34,37.34,0,0,1,1093.67,508.17Z"/><path class="cls-21" d="M983.62,511.48a28.87,28.87,0,0,1-.73,5.86H862.57a28.87,28.87,0,0,1-.73-5.86,20.94,20.94,0,0,1,3.3-11.74A23.73,23.73,0,0,1,885.68,488a21.84,21.84,0,0,1,9.91,2.2,30.74,30.74,0,0,1,30.07-23.48,29.4,29.4,0,0,1,21.65,9.17,27.74,27.74,0,0,1,7.7,12.48,22.39,22.39,0,0,1,5.14-.37A23.64,23.64,0,0,1,983.62,511.48Z"/><path class="cls-21" d="M860,468.92a20,20,0,0,0-5.86,16.14,20.2,20.2,0,0,0-15.41-7.7s0,17.61,20.17,19.81C858.9,497.17,871.74,483.6,860,468.92Z"/><path class="cls-21" d="M957.94,408.4a13.56,13.56,0,0,0-8.07,8.44,12.08,12.08,0,0,0-7.33-8.81s-4.77,10.64,7,17.61C949.51,425.27,960.88,420.5,957.94,408.4Z"/><path class="cls-15" d="M1042.68,442.88a14.36,14.36,0,0,0-11.37,1.83,13.94,13.94,0,0,0-.74-11.37s-10.27,5.87-4.76,18.34C1025.81,451.68,1037.91,454.62,1042.68,442.88Z"/><path class="cls-15" d="M999,457.55a14,14,0,0,0-4,11c-1.83-2.57-5.13-4.77-10.27-5.14,0,0,0,11.74,13.57,13.21C998.29,476.26,1006.73,467.09,999,457.55Z"/><path class="cls-21" d="M980.69,480.3a13.8,13.8,0,0,0-9.91,5.87,14,14,0,0,0-4.4-10.64s-7.7,9.17,1.84,18.71C968.22,494.6,980.69,492.77,980.69,480.3Z"/><path class="cls-15" d="M1062.12,466.36a8.8,8.8,0,0,0-5.5,4c0-1.83-1.1-4-3.3-5.87a8.08,8.08,0,0,0,2.2,10.64S1062.49,473.69,1062.12,466.36Z"/><path class="cls-21" d="M907.69,448a14,14,0,0,0-.73,11.73,13.73,13.73,0,0,0-11.37-2.2s3.3,11.37,16.87,9.17C912.09,466.72,917.59,455.35,907.69,448Z"/><path class="cls-15" d="M1369.15,514a17.66,17.66,0,0,1-.37,4.4H1203.34a35.17,35.17,0,0,1,52.83-44.75,44.81,44.81,0,0,1,84,20.54,19.14,19.14,0,0,1,7.7-1.46C1359.61,492.4,1369.15,501.94,1369.15,514Z"/><path class="cls-21" d="M1398.49,492.4a17,17,0,0,0-7.7,1.47,44.81,44.81,0,0,0-84-20.54,34.84,34.84,0,0,0-22.38-8.07,22.91,22.91,0,0,0-5.13.36c1.46-6.23.73-14.3-7-22,0,0-6.61,7.71-5.87,17.61-3.67-3.67-9.17-6.23-17.24-6.23,0,0,1.1,13.2,12.1,18.7a35.29,35.29,0,0,0-12.1,26.41,36.05,36.05,0,0,0,4.77,17.61H1419.4a17.7,17.7,0,0,0,.37-4.4C1420.13,501.94,1410.23,492.4,1398.49,492.4Z"/><path class="cls-8" d="M1344.57,515.88a5.36,5.36,0,0,1-.37,2.56h-98.3a19.65,19.65,0,0,1-2.94-10.27A20.85,20.85,0,0,1,1277.07,492a26.77,26.77,0,0,1,50.26,12.11,18.44,18.44,0,0,1,4.77-.73C1338.7,503,1344.57,508.54,1344.57,515.88Z"/><path class="cls-21" d="M1212.15,494.23a10.87,10.87,0,0,0,2.93,5.87,9.83,9.83,0,0,0-5.87,2.2s6.61,7.71,16.14,1.1C1225.35,503.77,1222.42,493.87,1212.15,494.23Z"/><path class="cls-21" d="M1240.39,472.59a7.72,7.72,0,0,0-1.46,4.4,10.46,10.46,0,0,0-4-1.83s-.73,7.34,7,8.8C1241.49,483.6,1245.53,477.36,1240.39,472.59Z"/><path class="cls-8" d="M1309,459.39a11.26,11.26,0,0,0-5.5,3.3,15.89,15.89,0,0,0-2.57-5.87s-7.34,7.34,0,16.14C1300.55,473,1310.09,469.66,1309,459.39Z"/><path class="cls-15" d="M1339.8,478.46a15.1,15.1,0,0,0-3.3,5.87,11,11,0,0,0-5.14-3.67s-2.56,9.91,8.07,13.94C1339.43,494.6,1346,486.53,1339.8,478.46Z"/><path class="cls-15" d="M1362.91,467.82a10,10,0,0,0-4,2.94,8.34,8.34,0,0,0-2.57-4,8.64,8.64,0,0,0,1.1,11.74C1357.78,478.46,1364.74,475.16,1362.91,467.82Z"/><path class="cls-15" d="M1397.76,489.1a12.12,12.12,0,0,0-4.77,1.1c.37-1.47,0-2.93-.73-4.77,0,0-7,3.3-3.67,11.37C1389,496.8,1396.29,496.44,1397.76,489.1Z"/><path class="cls-15" d="M1214.72,514a17.66,17.66,0,0,1-.37,4.4H1048.92a35.16,35.16,0,0,1,52.82-44.75,44.81,44.81,0,0,1,84,20.54,19.14,19.14,0,0,1,7.7-1.46C1205.18,492.4,1214.72,501.94,1214.72,514Z"/><path class="cls-21" d="M1244.06,492.4a17,17,0,0,0-7.7,1.47,44.81,44.81,0,0,0-84-20.54,34.84,34.84,0,0,0-22.38-8.07,22.91,22.91,0,0,0-5.13.36c1.46-6.23.73-14.3-7-22,0,0-6.61,7.71-5.87,17.61-3.67-3.67-9.17-6.23-17.24-6.23,0,0,1.1,13.2,12.1,18.7a35.29,35.29,0,0,0-12.1,26.41,36.05,36.05,0,0,0,4.77,17.61H1265a17.7,17.7,0,0,0,.37-4.4A21.22,21.22,0,0,0,1244.06,492.4Z"/><path class="cls-8" d="M1189.77,515.88a5.49,5.49,0,0,1-.36,2.56H1091.1a19.65,19.65,0,0,1-2.94-10.27A20.86,20.86,0,0,1,1122.28,492a26.77,26.77,0,0,1,50.25,12.11,18.51,18.51,0,0,1,4.77-.73C1184.27,503,1189.77,508.54,1189.77,515.88Z"/><path class="cls-21" d="M1057.35,494.23a10.84,10.84,0,0,0,2.94,5.87,9.78,9.78,0,0,0-5.87,2.2s6.6,7.71,16.14,1.1C1070.56,503.77,1067.62,493.87,1057.35,494.23Z"/><path class="cls-21" d="M1085.6,472.59a7.69,7.69,0,0,0-1.47,4.4,10.39,10.39,0,0,0-4-1.83s-.73,7.34,7,8.8C1087.06,483.6,1090.73,477.36,1085.6,472.59Z"/><path class="cls-8" d="M1154.19,459.39a11.26,11.26,0,0,0-5.5,3.3,15.89,15.89,0,0,0-2.57-5.87s-7.33,7.34,0,16.14C1145.76,473,1155.66,469.66,1154.19,459.39Z"/><path class="cls-15" d="M1185,478.46a15.1,15.1,0,0,0-3.3,5.87,11,11,0,0,0-5.13-3.67s-2.57,9.91,8.07,13.94C1184.64,494.23,1191.24,486.53,1185,478.46Z"/><path class="cls-15" d="M1208.11,467.82a10,10,0,0,0-4,2.94,8.34,8.34,0,0,0-2.57-4,8.64,8.64,0,0,0,1.1,11.74C1203,478.46,1210,475.16,1208.11,467.82Z"/><path class="cls-15" d="M1243,489.1a12.12,12.12,0,0,0-4.77,1.1c.37-1.47,0-2.93-.73-4.77,0,0-7,3.3-3.67,11.37C1234.16,496.8,1241.86,496.44,1243,489.1Z"/><path class="cls-22" d="M1128.88,426v91.7H990.22V426l1.47-1.47L1028.37,397l2.57-2.2,28.61-21.28,28.25,21.28,2.56,2.2Z"/><path class="cls-18" d="M1128.88,424.17H990.22v3.3h138.66Z"/><path class="cls-18" d="M1061,375.75h-3.3V426h3.3Z"/><path class="cls-18" d="M1027.64,427.47h-3.3v89.87h3.3Z"/><path class="cls-18" d="M1128.88,458.65H990.22V462h138.66Z"/><path class="cls-18" d="M1094.4,427.47h-3.3v89.87h3.3Z"/><path class="cls-18" d="M1060.65,424.54l-1.1,1.47-1.46,1.1L1028.37,397l2.57-2.2,28.61,28.61Z"/><path class="cls-18" d="M1090.36,397l-29.71,30.08-1.1-1.1-1.47-1.47,1.47-1.1,28.25-28.61Z"/><path class="cls-18" d="M1128.88,426v3.3a5.5,5.5,0,0,1-4-1.47l-65.3-49.15-65.29,49.15a7.73,7.73,0,0,1-4,1.47V426l1.84-1.47L1028.37,397l2.57-1.84,28.61-21.64,28.25,21.64,2.56,1.84Z"/><path class="cls-20" d="M1128.88,426a5.5,5.5,0,0,1-4-1.47l-65.3-48.79-65.29,48.79a6.57,6.57,0,1,1-7.7-10.64l69.32-51.72a6.61,6.61,0,0,1,8.07,0l69.33,51.72a6.51,6.51,0,0,1,1.47,9.17C1132.55,424.91,1130.71,426,1128.88,426Z"/><path class="cls-20" d="M1081.56,462h-44.38v55.39h44.38Z"/><path class="cls-14" d="M1282.94,426v91.7H1144.29V426l1.46-1.47L1182.44,397l2.56-2.2,28.62-21.28,28.24,21.28,2.57,2.2Z"/><path class="cls-18" d="M1282.94,424.17H1144.29v3.3h138.65Z"/><path class="cls-18" d="M1215.08,375.75h-3.3V426h3.3Z"/><path class="cls-18" d="M1181.7,427.47h-3.3v89.87h3.3Z"/><path class="cls-18" d="M1282.94,458.65H1144.29V462h138.65Z"/><path class="cls-18" d="M1248.46,427.47h-3.3v89.87h3.3Z"/><path class="cls-18" d="M1214.72,424.54l-1.1,1.47-1.47,1.1L1182.44,397l2.56-2.2,28.62,28.61Z"/><path class="cls-18" d="M1244.43,397l-29.71,30.08-1.1-1.1-1.47-1.47,1.47-1.1,28.24-28.61Z"/><path class="cls-18" d="M1282.94,426v3.3a5.52,5.52,0,0,1-4-1.47l-65.29-49.15-65.3,49.15a7.73,7.73,0,0,1-4,1.47V426l1.83-1.47L1182.44,397l2.56-1.84,28.62-21.64,28.24,21.64,2.57,1.84Z"/><path class="cls-20" d="M1282.94,426a5.52,5.52,0,0,1-4-1.47l-65.29-48.79-65.3,48.79a6.57,6.57,0,1,1-7.7-10.64L1210,362.18a6.61,6.61,0,0,1,8.07,0l69.33,51.72a6.52,6.52,0,0,1,1.46,9.17C1286.61,424.91,1284.78,426,1282.94,426Z"/><path class="cls-20" d="M1235.62,462h-44.38v55.39h44.38Z"/><path class="cls-23" d="M774.17,505.24H760.6v13.57h13.57Z"/><path class="cls-23" d="M760.6,505.24H747v13.57H760.6Z"/><path class="cls-23" d="M747,505.24H733.45v13.57H747Z"/><path class="cls-23" d="M733.82,505.24H720.25v13.57h13.57Z"/><path class="cls-23" d="M774.17,491.67H760.6v13.57h13.57Z"/><path class="cls-23" d="M760.6,491.67H747v13.57H760.6Z"/><path class="cls-23" d="M747,491.67H733.45v13.57H747Z"/><path class="cls-23" d="M733.82,491.67H720.25v13.57h13.57Z"/><path class="cls-23" d="M774.17,478.09H760.6v13.58h13.57Z"/><path class="cls-23" d="M760.6,478.09H747v13.58H760.6Z"/><path class="cls-23" d="M747,478.09H733.45v13.58H747Z"/><path class="cls-23" d="M733.82,478.09H720.25v13.58h13.57Z"/><path class="cls-23" d="M840.2,505.24H826.62v13.57H840.2Z"/><path class="cls-23" d="M826.62,505.24H813.05v13.57h13.57Z"/><path class="cls-23" d="M813.42,505.24H799.85v13.57h13.57Z"/><path class="cls-23" d="M799.85,505.24H786.27v13.57h13.58Z"/><path class="cls-23" d="M840.2,491.67H826.62v13.57H840.2Z"/><path class="cls-23" d="M826.62,491.67H813.05v13.57h13.57Z"/><path class="cls-23" d="M813.42,491.67H799.85v13.57h13.57Z"/><path class="cls-23" d="M799.85,491.67H786.27v13.57h13.58Z"/><path class="cls-23" d="M840.2,478.09H826.62v13.58H840.2Z"/><path class="cls-23" d="M826.62,478.09H813.05v13.58h13.57Z"/><path class="cls-23" d="M813.42,478.09H799.85v13.58h13.57Z"/><path class="cls-23" d="M799.85,478.09H786.27v13.58h13.58Z"/><path class="cls-24" d="M598.83,517.71,320.42,433c-16.87-5.14-38.88-4.77-55,.73l-237.7,84Z"/><path class="cls-25" d="M107.3,231.59V163a17.83,17.83,0,0,1,21.27-17.61h.37c13.94,3.3,9.54,1.1,25.68,2.57,16.5,1.47,31.91-2.2,49.52-1.1,20.54,1.47,24.94,13.2,0,13.94-20.91.73-63.46-4.77-63.46,5.13,0,9.54,45.85-1.1,46.58,8.07.74,7.71-33.74.37-54.65,2.2a9.58,9.58,0,0,0-8.81,9.54v45.49H107.3Z"/><path class="cls-25" d="M238.25,149.43a28.26,28.26,0,0,0-5.5.36c-1.47.37-2.94.37-4.4.74-4.41.73-4.41,8.43,0,9.17,1.46.36,2.93.36,4.4.73a27.51,27.51,0,0,0,5.5.37,5.64,5.64,0,0,0,5.5-5.5C243.39,152,241.18,149.43,238.25,149.43Z"/><path class="cls-25" d="M197.9,171.44a6.39,6.39,0,0,0-2.57.36,2.94,2.94,0,0,0,0,5.87h2.57a3.16,3.16,0,0,0,2.94-2.93C200.84,172.9,199.74,171.07,197.9,171.44Z"/><path class="cls-25" d="M200.47,273.78v-68.6a17.81,17.81,0,0,1,21.27-17.6h.37c13.94,3.3,9.54,1.1,25.68,2.56,16.51,1.47,31.91-2.2,49.52-1.1,20.54,1.47,24.94,13.21,0,13.94-20.91.74-63.46-4.77-63.46,5.14,0,9.53,45.85-1.1,46.58,8.07.74,7.7-33.74.36-54.65,2.2a9.57,9.57,0,0,0-8.8,9.54v45.48H200.47Z"/><path class="cls-25" d="M331.06,192a28.36,28.36,0,0,0-5.51.36c-1.46.37-2.93.37-4.4.74-4.4.73-4.4,8.43,0,9.17,1.47.37,2.94.37,4.4.73a27.61,27.61,0,0,0,5.51.37,5.64,5.64,0,0,0,5.5-5.5A5.73,5.73,0,0,0,331.06,192Z"/><path class="cls-25" d="M290.7,213.62a6.16,6.16,0,0,0-2.56.37,2.94,2.94,0,1,0,0,5.87h2.56a3.16,3.16,0,0,0,2.94-2.94A3,3,0,0,0,290.7,213.62Z"/><path class="cls-26" d="M745.92,521,467.51,462.69c-16.87-3.67-38.88-3.3-55,.73L174.79,521Z"/><path class="cls-26" d="M233.12,355.21l-.37-7-1.84-26.41-1.46-22.38c-1.1-18.34-7.34-31.54-14.31-31.54H199c-7.34,0-13.21,13.2-14.3,31.54l-1.47,22.38-1.84,26.41-.36,7-1.84,26.41L166,588.51h82.53l-13.2-206.89Z"/><path class="cls-27" d="M232.75,347.87H181l1.83-26h48Z"/><path class="cls-27" d="M233.12,355.21H180.66l-1.83,26.05h55.75Z"/><path class="cls-25" d="M289.24,315.23V270.11c0-7.34,6.6-13.21,13.94-11.37h.36c9.17,2.2,6.24.73,16.88,1.83,11,1.1,20.91-1.46,32.28-.73,13.2.73,16.14,8.8,0,9.17-13.94.37-41.82-2.94-41.82,3.3s30.08-.73,30.45,5.14c.36,5.13-22,.36-35.95,1.46a6.37,6.37,0,0,0-5.87,6.24v30.08Z"/><path class="cls-25" d="M375.07,261.31h-3.66c-1.11,0-1.84.36-2.94.36-2.93.37-2.93,5.51,0,6.24,1.1,0,1.83.37,2.94.37h3.66a4,4,0,0,0,3.67-3.67C378.38,263.14,376.91,261.31,375.07,261.31Z"/><path class="cls-25" d="M348.66,275.61h-1.83a1.84,1.84,0,1,0,0,3.67h1.83a1.73,1.73,0,0,0,1.84-1.83A2,2,0,0,0,348.66,275.61Z"/><path class="cls-26" d="M310.51,368.42l-.36-4.77-.74-16.88-1.1-14.67c-.73-12.1-4.77-20.91-9.53-20.91H288.14c-4.77,0-8.81,8.81-9.54,20.91l-1.1,14.67L276.4,364l-.37,4.76L274.93,386l-8.8,136.09h54.29L311.61,386Z"/><path class="cls-27" d="M310.51,364H276.4l1.1-17.25h31.91Z"/><path class="cls-27" d="M310.51,368.42H276.4L275.3,386h36.31Z"/><path class="cls-26" d="M140.31,302.39l-.37-7L138.48,269,137,246.63c-1.1-18.34-7-31.54-13.57-31.54H107.66c-7,0-12.47,13.2-13.57,31.54L92.62,269l-1.46,26.41-.37,7L89.32,328.8,76.85,535.69H155L142.51,328.8Z"/><path class="cls-27" d="M139.94,295.42H91.16L92.62,269h45.49Z"/><path class="cls-27" d="M140.31,302.39H90.79L89,328.8h52.82Z"/><path class="cls-28" d="M80.52,485.06H46V517H80.52Z"/><path class="cls-28" d="M46,485.06,80.52,517"/><path class="cls-28" d="M80.52,485.06,46,517"/><path class="cls-28" d="M80.52,453.15H46v31.91H80.52Z"/><path class="cls-28" d="M46,453.15l34.48,31.91"/><path class="cls-28" d="M80.52,453.15,46,485.06"/><path class="cls-28" d="M80.52,420.87H46v31.91H80.52Z"/><path class="cls-28" d="M46,420.87l34.48,32.28"/><path class="cls-28" d="M80.52,420.87,46,453.15"/><path class="cls-29" d="M379.84,519.55H259.16V419a9.71,9.71,0,0,1,9.54-9.54H370.3a9.71,9.71,0,0,1,9.54,9.54Z"/><path class="cls-6" d="M283.37,420.5h-12.1v9.18h12.1Z"/><path class="cls-6" d="M304.28,420.5H292.17v9.18h12.11Z"/><path class="cls-6" d="M325.55,420.5h-12.1v9.18h12.1Z"/><path class="cls-6" d="M346.46,420.5h-12.1v9.18h12.1Z"/><path class="cls-6" d="M367.37,420.5h-12.1v9.18h12.1Z"/><path class="cls-6" d="M283.37,435.54h-12.1v9.17h12.1Z"/><path class="cls-6" d="M304.28,435.54H292.17v9.17h12.11Z"/><path class="cls-6" d="M325.55,435.54h-12.1v9.17h12.1Z"/><path class="cls-6" d="M346.46,435.54h-12.1v9.17h12.1Z"/><path class="cls-6" d="M367.37,435.54h-12.1v9.17h12.1Z"/><path class="cls-6" d="M283.37,450.22h-12.1v9.17h12.1Z"/><path class="cls-6" d="M304.28,450.22H292.17v9.17h12.11Z"/><path class="cls-6" d="M325.55,450.22h-12.1v9.17h12.1Z"/><path class="cls-6" d="M346.46,450.22h-12.1v9.17h12.1Z"/><path class="cls-6" d="M367.37,450.22h-12.1v9.17h12.1Z"/><path class="cls-6" d="M283.37,465.26h-12.1v9.17h12.1Z"/><path class="cls-6" d="M304.28,465.26H292.17v9.17h12.11Z"/><path class="cls-6" d="M325.55,465.26h-12.1v9.17h12.1Z"/><path class="cls-6" d="M346.46,465.26h-12.1v9.17h12.1Z"/><path class="cls-6" d="M367.37,465.26h-12.1v9.17h12.1Z"/><path class="cls-6" d="M283.37,479.93h-12.1v9.17h12.1Z"/><path class="cls-6" d="M304.28,479.93H292.17v9.17h12.11Z"/><path class="cls-6" d="M325.55,479.93h-12.1v9.17h12.1Z"/><path class="cls-6" d="M346.46,479.93h-12.1v9.17h12.1Z"/><path class="cls-6" d="M367.37,479.93h-12.1v9.17h12.1Z"/><path class="cls-30" d="M402.58,519.55H338v-65.3a9.72,9.72,0,0,1,9.54-9.54h45.12a9.72,9.72,0,0,1,9.54,9.54v65.3Z"/><path class="cls-6" d="M352.33,450.22H346.1v67.12h6.23Z"/><path class="cls-6" d="M362.6,450.22h-6.24v67.12h6.24Z"/><path class="cls-6" d="M373.24,450.22H367v67.12h6.24Z"/><path class="cls-6" d="M383.88,450.22h-6.24v67.12h6.24Z"/><path class="cls-6" d="M394.51,450.22h-6.23v67.12h6.23Z"/><path class="cls-28" d="M303.18,479.56h-40V517h40Z"/><path class="cls-28" d="M263.19,479.56,302.81,517"/><path class="cls-28" d="M302.81,479.56,263.19,517"/><path class="cls-28" d="M303.18,442.15h-40v37.41h40Z"/><path class="cls-28" d="M263.19,442.15l39.62,37.41"/><path class="cls-28" d="M302.81,442.15l-39.62,37.41"/><path class="cls-28" d="M303.18,404.73h-40v37.42h40Z"/><path class="cls-28" d="M263.19,404.73l39.62,37.42"/><path class="cls-28" d="M302.81,404.73l-39.62,37.42"/><path class="cls-30" d="M266.86,429.68v90.6H130v-95c1.1-30.08,26.41-53.92,57.22-53.92h22.38c30.81,0,56.12,23.84,57.22,53.92Z"/><path class="cls-31" d="M266.86,429.68H130v-4.41H266.86Z"/><g class="cls-32"><path class="cls-33" d="M130,435.18H266.86"/><path class="cls-33" d="M130,442.88H266.86"/><path class="cls-33" d="M130,450.58H266.86"/><path class="cls-33" d="M130,458.29H266.86"/><path class="cls-33" d="M130,466H266.86"/></g><path class="cls-34" d="M216.61,495.34v24.94H180.29V493.87a15.43,15.43,0,0,1,15.41-15h5.87a15.68,15.68,0,0,1,15.41,15Z"/><path class="cls-35" d="M161.22,422.34c-.37,0-.37.37-.37.73v10.27h-15V423.07a1.3,1.3,0,0,0-.36-.73,1.29,1.29,0,0,0-.37.73V542.66a1.29,1.29,0,0,0,.37.73,1.3,1.3,0,0,0,.36-.73v-5.14h15v5.14a1.29,1.29,0,0,0,.37.73,1.29,1.29,0,0,0,.37-.73V423.07A1.29,1.29,0,0,0,161.22,422.34Zm-11.74,23.11h11v8.44h-15v-8.81A37.66,37.66,0,0,0,149.48,445.45Zm0,9.9h11v8.44h-15V455C146.18,455.35,147.28,455.35,149.48,455.35Zm0,10.27h11v8.44h-15v-8.8C146.18,465.62,147.28,465.62,149.48,465.62Zm0,10.27h11v8.44h-15v-8.8C146.18,475.89,147.28,475.89,149.48,475.89Zm0,10.27h11v8.44h-15v-8.44Zm0,10.28h11v8.43h-15v-8.8C146.18,496.44,147.28,496.44,149.48,496.44Zm0,10.27h11v8.43h-15v-8.8C146.18,506.71,147.28,506.71,149.48,506.71Zm-4,10.27h15v8.43h-15Zm15-82.17v8.44h-15v-8.44h4A52.56,52.56,0,0,0,160.49,434.81Zm-15,100.88v-8.81h15v8.44C155,535.69,147.28,535.69,145.45,535.69Z"/><path class="cls-30" d="M327.39,495.7v23.48H296.58V494.6c.36-7.7,5.86-13.94,12.83-13.94h5.14c7,0,12.84,6.24,12.84,13.94Z"/><path class="cls-31" d="M327.39,495.7H296.58v-1.1h30.81Z"/><g class="cls-32"><path class="cls-33" d="M296.21,497.17h31.18"/><path class="cls-33" d="M296.21,499h31.18"/><path class="cls-33" d="M296.21,500.84h31.18"/><path class="cls-33" d="M296.21,503h31.18"/><path class="cls-33" d="M296.21,504.87h31.18"/></g><path class="cls-30" d="M115.37,485.43v32.28h-47V484a19.82,19.82,0,0,1,19.81-19.07h7.71A19.81,19.81,0,0,1,115.73,484Z"/><path class="cls-31" d="M115.37,485.43h-47V484h47Z"/><g class="cls-32"><path class="cls-33" d="M68.41,487.27h47"/><path class="cls-33" d="M68.41,489.83h47"/><path class="cls-33" d="M68.41,492.77h47"/><path class="cls-33" d="M68.41,495.34h47"/><path class="cls-33" d="M68.41,498.27h47"/></g><path class="cls-20" d="M141.78,518.44H133v-9.17a9.54,9.54,0,0,0-19.07,0v9.17h-8.8v-9.17a18.16,18.16,0,0,1,18.34-18.34,18.4,18.4,0,0,1,18.34,18.34Z"/><path class="cls-27" d="M113.9,518.45h-9.54a2.94,2.94,0,0,1,0-5.87h9.54a2.89,2.89,0,0,1,2.93,2.93A3.15,3.15,0,0,1,113.9,518.45Z"/><path class="cls-27" d="M141.78,518.45h-9.54a2.94,2.94,0,0,1,0-5.87h9.54a2.89,2.89,0,0,1,2.93,2.93A3.16,3.16,0,0,1,141.78,518.45Z"/><path class="cls-20" d="M99.23,518.44H90.42v-9.17a9.54,9.54,0,0,0-19.07,0v9.17H62.54v-9.17a18.35,18.35,0,0,1,36.69,0Z"/><path class="cls-27" d="M71.35,518.45H61.81a2.94,2.94,0,0,1,0-5.87h9.54a2.89,2.89,0,0,1,2.93,2.93A3.15,3.15,0,0,1,71.35,518.45Z"/><path class="cls-27" d="M99.23,518.45H89.69a2.94,2.94,0,1,1,0-5.87h9.54a2.94,2.94,0,0,1,0,5.87Z"/><path class="cls-20" d="M56.68,518.44H47.87v-9.17a9.54,9.54,0,0,0-19.07,0v9.17H20v-9.17a18.16,18.16,0,0,1,18.34-18.34,18.4,18.4,0,0,1,18.35,18.34Z"/><path class="cls-27" d="M28.8,518.45H19.26a2.94,2.94,0,0,1,0-5.87H28.8a2.89,2.89,0,0,1,2.93,2.93A3.15,3.15,0,0,1,28.8,518.45Z"/><path class="cls-27" d="M56.68,518.45H47.14a2.94,2.94,0,1,1,0-5.87h9.54a2.89,2.89,0,0,1,2.93,2.93C60,517,58.51,518.45,56.68,518.45Z"/><path class="cls-20" d="M392,518.44h-8.81v-9.17a9.54,9.54,0,0,0-19.07,0v9.17h-8.8v-9.17a18.34,18.34,0,1,1,36.68,0Z"/><path class="cls-27" d="M364.07,518.45h-9.54a2.94,2.94,0,0,1,0-5.87h9.54a2.89,2.89,0,0,1,2.93,2.93A3.15,3.15,0,0,1,364.07,518.45Z"/><path class="cls-27" d="M392,518.45h-9.17a2.94,2.94,0,1,1,0-5.87h9.53a2.89,2.89,0,0,1,2.94,2.93A3.53,3.53,0,0,1,392,518.45Z"/><path class="cls-20" d="M349.4,518.44h-8.81v-9.17a9.54,9.54,0,0,0-19.07,0v9.17h-8.81v-9.17a18.35,18.35,0,0,1,36.69,0Z"/><path class="cls-27" d="M321.52,518.45H312a2.94,2.94,0,0,1,0-5.87h9.54a2.89,2.89,0,0,1,2.93,2.93A3.16,3.16,0,0,1,321.52,518.45Z"/><path class="cls-27" d="M349.4,518.45h-9.54a2.94,2.94,0,1,1,0-5.87h9.54a2.89,2.89,0,0,1,2.93,2.93C352.7,517,351.23,518.45,349.4,518.45Z"/><path class="cls-20" d="M415.79,506c-1.84-.73-4.77-.73-6.24.74-.36,0-2.93,0-3.3.36-.36.74-.36,3.67-1.83,4.77-1.84,1.47,1.47,2.94,2.57,2.94h7.33c1.1,0,1.84-.74,2.57-1.84.37-.36.37-1.1.73-1.46.37-1.1.74-1.1,1.1-1.84C419.82,507.81,416.89,506.34,415.79,506Z"/><path class="cls-20" d="M442.57,506c-1.84-.73-4.77-.73-6.24.74h-1.1c-.37,0-1.83-.37-2.2.36s0,1.1.37,1.47c1.1,2.2-.74,2.2-1.84,3.3-1.83,1.47,1.47,2.94,2.57,2.94a8,8,0,0,0,2.57-1.1c1.1-.37,3.3,1.1,4.77.73,1.1,0,1.83-.73,2.56-1.83.37-.37.37-1.1.74-1.47.37-1.1.73-1.1,1.1-1.84C446.6,508.17,443.67,506.71,442.57,506Z"/><path class="cls-36" d="M435.6,514.78h-22l-1.1-29.35h24.57Z"/><path class="cls-37" d="M435.6,514.78h-22l-1.1-29.35h24.57Z"/><path class="cls-29" d="M413.59,514.78H418l-.37-29.35h-5.13Z"/><path class="cls-29" d="M435.6,514.78h-4.41l.37-29.35h5.5Z"/><path class="cls-29" d="M427.16,514.78h-4.77L422,485.43h5.14Z"/><path class="cls-29" d="M429,479.2a2.84,2.84,0,0,0-3.3-2.2h-1.1c-1.46,0-2.57,1.46-2.93,2.56Z"/><path class="cls-29" d="M439.44,478.54l-28.54,2,.31,4.39,28.54-2Z"/><path class="cls-31" d="M437.06,514.78h8.07s2.2-1.1,1.1-2.2-2.56-2.94-3.3-2.57c-.73.73-3.66-1.47-4,0s-.73,1.1-1.47,1.83C436.7,512.94,435.23,514.78,437.06,514.78Z"/><path class="cls-31" d="M409.55,514.78h7s1.84-1.1,1.1-1.84,0-2.2-4-2.56c-1.1,0-2.94,1.46-3.67,2.2C409.55,513.31,408.09,514.78,409.55,514.78Z"/><path class="cls-27" d="M427.89,514.78h11s.73-3.3-.37-3.67a3,3,0,0,1-2.2-2.57c0-.73-2.57-.73-2.57.73s-1.83,1.84-2.56,2.21C430.1,511.84,427.89,514.78,427.89,514.78Z"/><path class="cls-27" d="M405.89,514.78h7.33s.74-4.4-.36-5.14a4,4,0,0,0-3.67.37C407.72,510.74,405.89,514.78,405.89,514.78Z"/><path class="cls-38" d="M891.92,139.89a23.12,23.12,0,0,0-12.11,3.3c-14.67-27.88-33.38-45.12-53.92-45.12-18.34,0-35.58,13.94-49.52,37.05a60.21,60.21,0,0,0-29.71-8.07c-18,0-34.12,8.07-46.95,21.64-5.51-5.5-12.11-9.17-19.08-9.17-8.8,0-16.87,5.14-22.74,13.21H915C909.16,145,901.09,139.89,891.92,139.89Z"/><path class="cls-39" d="M1353.37,179.51a22.14,22.14,0,0,0-10.63,2.93c-12.84-24.58-29-39.25-47-39.25-16.14,0-31.18,12.11-43.28,32.28a54.27,54.27,0,0,0-26-7c-15.77,0-30.07,7.34-41.08,19.08-4.77-4.77-10.64-8.07-16.87-8.07-7.71,0-14.68,4.4-19.81,11.73h224.49C1368.05,184.27,1361.08,179.51,1353.37,179.51Z"/><path class="cls-39" d="M496.49,90.37a22.14,22.14,0,0,1,10.64,2.93c12.84-24.57,29-39.24,47-39.24,16.14,0,31.18,12.1,43.28,32.27a54.29,54.29,0,0,1,26-7c15.77,0,30.08,7.33,41.08,19.07,4.77-4.77,10.64-8.07,16.87-8.07,7.71,0,14.68,4.4,19.81,11.74H476.68C481.45,94.77,488.42,90.37,496.49,90.37Z"/><path class="cls-39" d="M1061.75,54.79a30.17,30.17,0,0,0-15.77,4.4C1026.91,22.51,1002.33.5,975.55.5c-24.21,0-46.22,18-64.56,48.42a78.94,78.94,0,0,0-38.88-10.27c-23.48,0-44.75,10.64-61.26,28.24-7-7.33-15.77-11.73-24.94-11.73-11.74,0-22,6.6-29.71,17.6h334.9C1083.76,61.39,1073.13,54.79,1061.75,54.79Z"/><path class="cls-38" d="M1329.41,98a31.55,31.55,0,1,0-36.21-26.07A31.55,31.55,0,0,0,1329.41,98Z"/><path class="cls-39" d="M1069.82,156a33.75,33.75,0,1,0-33.74-33.75A33.75,33.75,0,0,0,1069.82,156Z"/><path class="cls-38" d="M60.71,88.17a14.56,14.56,0,0,1,8.8,2.57c10.64-20.55,24.58-33,39.62-33,13.57,0,26,10.27,36.32,27.15a44.76,44.76,0,0,1,22-5.87c13.21,0,25.31,5.87,34.48,15.77,4-4,8.81-6.6,13.94-6.6,6.61,0,12.48,3.67,16.88,9.9H43.84C48.24,91.84,54.11,88.17,60.71,88.17Z"/><path class="cls-39" d="M192,118.61a27.5,27.5,0,0,1,13.21,3.67c16.14-30.81,36.68-49.52,59.05-49.52,20.18,0,38.89,15,54.29,40.72a67,67,0,0,1,32.65-8.8c19.81,0,37.78,8.8,51.72,23.84,5.87-6.24,13.21-9.91,20.91-9.91,9.9,0,18.71,5.51,24.94,14.68H167.09C173.32,124.48,182.13,118.61,192,118.61Z"/><path class="cls-39" d="M492.45,135.12a8.07,8.07,0,1,1,8.07,8.07A8.14,8.14,0,0,1,492.45,135.12Z"/></g></svg>