<svg width="22" height="23" viewBox="0 0 22 23" fill="none" xmlns="http://www.w3.org/2000/svg">
<path d="M6 7.29614C5.44772 7.29614 5 7.74386 5 8.29614C5 8.84843 5.44772 9.29614 6 9.29614H15C15.5523 9.29614 16 8.84843 16 8.29614C16 7.74386 15.5523 7.29614 15 7.29614H6Z" fill="#535959"/>
<path d="M5 12.2961C5 11.7439 5.44772 11.2961 6 11.2961H15C15.5523 11.2961 16 11.7439 16 12.2961C16 12.8484 15.5523 13.2961 15 13.2961H6C5.44772 13.2961 5 12.8484 5 12.2961Z" fill="#535959"/>
<path d="M6 15.2961C5.44772 15.2961 5 15.7439 5 16.2961C5 16.8484 5.44772 17.2961 6 17.2961H11C11.5523 17.2961 12 16.8484 12 16.2961C12 15.7439 11.5523 15.2961 11 15.2961H6Z" fill="#535959"/>
<path fill-rule="evenodd" clip-rule="evenodd" d="M0 11.2961V21.2961C0 21.8483 0.447795 22.2961 1.00008 22.2961H11C17.0751 22.2961 22 17.3713 22 11.2961C22 5.22101 17.0751 0.296143 11 0.296143C4.92487 0.296143 0 5.22101 0 11.2961ZM2 11.2961C2 6.32558 6.02943 2.29614 11 2.29614C15.9706 2.29614 20 6.32558 20 11.2961C20 16.2667 15.9706 20.2961 11 20.2961H2V11.2961Z" fill="#535959"/>
</svg>
