<svg width="22" height="20" viewBox="0 0 22 20" fill="none" xmlns="http://www.w3.org/2000/svg">
<path d="M20.8592 16.156L12.6608 1.91815C12.4559 1.56933 12.1634 1.2801 11.8123 1.07914C11.4613 0.878181 11.0637 0.772461 10.6592 0.772461C10.2547 0.772461 9.85716 0.878181 9.50608 1.07914C9.15499 1.2801 8.86252 1.56933 8.65765 1.91815L0.459209 16.156C0.262086 16.4933 0.158203 16.8771 0.158203 17.2678C0.158203 17.6586 0.262086 18.0423 0.459209 18.3797C0.661456 18.7306 0.953431 19.0214 1.30517 19.2223C1.65691 19.4231 2.05576 19.5267 2.46077 19.5225H18.8576C19.2623 19.5264 19.6608 19.4226 20.0122 19.2218C20.3636 19.021 20.6552 18.7304 20.8573 18.3797C21.0547 18.0425 21.1589 17.6588 21.1593 17.2681C21.1596 16.8773 21.056 16.4935 20.8592 16.156ZM9.90921 8.27252C9.90921 8.07361 9.98823 7.88284 10.1289 7.74219C10.2695 7.60154 10.4603 7.52252 10.6592 7.52252C10.8581 7.52252 11.0489 7.60154 11.1895 7.74219C11.3302 7.88284 11.4092 8.07361 11.4092 8.27252V12.0225C11.4092 12.2214 11.3302 12.4122 11.1895 12.5529C11.0489 12.6935 10.8581 12.7725 10.6592 12.7725C10.4603 12.7725 10.2695 12.6935 10.1289 12.5529C9.98823 12.4122 9.90921 12.2214 9.90921 12.0225V8.27252ZM10.6592 16.5225C10.4367 16.5225 10.2192 16.4565 10.0342 16.3329C9.84919 16.2093 9.70499 16.0336 9.61984 15.828C9.5347 15.6225 9.51242 15.3963 9.55583 15.178C9.59923 14.9598 9.70638 14.7594 9.86371 14.602C10.021 14.4447 10.2215 14.3375 10.4397 14.2941C10.658 14.2507 10.8842 14.273 11.0897 14.3582C11.2953 14.4433 11.471 14.5875 11.5946 14.7725C11.7182 14.9575 11.7842 15.175 11.7842 15.3975C11.7842 15.6959 11.6657 15.982 11.4547 16.193C11.2437 16.404 10.9576 16.5225 10.6592 16.5225Z" fill="#FF3B3B"/>
</svg>
