<svg width="22" height="23" viewBox="0 0 22 23" fill="none" xmlns="http://www.w3.org/2000/svg">
<path fill-rule="evenodd" clip-rule="evenodd" d="M11 2.29614C7.68629 2.29614 5 4.98243 5 8.29614V17.2961H17V8.29614C17 4.98243 14.3137 2.29614 11 2.29614ZM19 17.2961V8.29614C19 3.87786 15.4183 0.296143 11 0.296143C6.58172 0.296143 3 3.87786 3 8.29614V17.2961H1C0.447715 17.2961 0 17.7439 0 18.2961C0 18.8484 0.447715 19.2961 1 19.2961H7.53545C7.77806 20.9923 9.23678 22.2961 11 22.2961C12.7632 22.2961 14.2219 20.9923 14.4646 19.2961H21C21.5523 19.2961 22 18.8484 22 18.2961C22 17.7439 21.5523 17.2961 21 17.2961H19ZM12.4146 19.2961H9.58536C9.79128 19.8787 10.3469 20.2961 11 20.2961C11.6531 20.2961 12.2087 19.8787 12.4146 19.2961Z" fill="#535959"/>
</svg>
