<svg width="20" height="23" viewBox="0 0 20 23" fill="none" xmlns="http://www.w3.org/2000/svg">
<path d="M11 14.5C11 13.9477 10.5523 13.5 10 13.5C9.44771 13.5 9 13.9477 9 14.5V17.5C9 18.0523 9.44771 18.5 10 18.5C10.5523 18.5 11 18.0523 11 17.5V14.5Z" fill="#20A049"/>
<path fill-rule="evenodd" clip-rule="evenodd" d="M4 6.5V9.5H2C0.89543 9.5 0 10.3954 0 11.5V20.5C0 21.6046 0.89543 22.5 2 22.5H18C19.1046 22.5 20 21.6046 20 20.5V11.5C20 10.3954 19.1046 9.5 18 9.5H16V6.5C16 3.18629 13.3137 0.5 10 0.5C6.68632 0.5 4 3.18629 4 6.5ZM10 2.5C7.79088 2.5 6 4.29086 6 6.5V9.5H14V6.5C14 4.29086 12.2091 2.5 10 2.5ZM2 11.5H18V20.5H2V11.5Z" fill="#20A049"/>
</svg>
