<svg width="41" height="40" viewBox="0 0 41 40" fill="none" xmlns="http://www.w3.org/2000/svg">
<g id="plug" clip-path="url(#clip0_459_70439)">
<g id="Group">
<g id="Group_2">
<g id="Group_3">
<path id="Vector" d="M17.1829 8.25098H16.6411C16.0062 8.25098 15.4922 8.72258 15.4922 9.30515V13.77H18.3326V9.30515C18.3318 8.72335 17.8178 8.25098 17.1829 8.25098Z" fill="#C6D92D"/>
<path id="Vector_2" d="M24.7981 8.25098H24.2556C23.6222 8.25098 23.1074 8.72258 23.1074 9.30515V13.77H25.9486V9.30515C25.9471 8.72335 25.4331 8.25098 24.7981 8.25098Z" fill="#C6D92D"/>
<path id="Vector_3" d="M20.7201 0.442871C9.69058 0.442871 0.717773 9.41568 0.717773 20.4452C0.717773 25.77 2.78605 30.7812 6.54193 34.5556C8.76587 36.7903 11.5184 38.4887 14.5014 39.4612C14.7002 39.5267 14.9021 39.5575 15.1002 39.5575C15.9108 39.5575 16.6652 39.0412 16.9311 38.2282C17.2617 37.2164 16.7092 36.1284 15.6981 35.7993C13.2916 35.0125 11.0699 33.6424 9.27369 31.8369C6.2414 28.79 4.57152 24.7444 4.57152 20.4452C4.57152 11.5402 11.8159 4.29585 20.7209 4.29585C29.6259 4.29585 36.8702 11.5402 36.8702 20.4452C36.8702 24.7605 35.1911 28.8131 32.1434 31.8623C30.9729 32.9119 28.07 35.0249 26.3262 35.0249C25.4308 35.0249 24.7619 34.7428 24.2178 34.1387C22.8393 32.6029 22.5364 29.4935 22.5495 27.3266C25.8931 27.1579 28.5548 24.4014 28.5548 21.017V15.0218H12.8855V21.017C12.8855 24.3359 15.4423 27.0523 18.6934 27.3181C18.6734 29.8996 19.0356 34.1302 21.3435 36.7079C22.6165 38.1296 24.3411 38.8794 26.3262 38.8794C30.0528 38.8794 34.2957 35.115 34.7658 34.6874L34.8274 34.6288C38.6295 30.8475 40.7209 25.8116 40.7209 20.4483C40.7225 9.41568 31.7496 0.442871 20.7201 0.442871Z" fill="#20A049"/>
</g>
</g>
</g>
</g>
<defs>
<clipPath id="clip0_459_70439">
<rect width="40.0039" height="40.0039" fill="white" transform="translate(0.717773 -0.00195312)"/>
</clipPath>
</defs>
</svg>
