<svg width="18" height="18" viewBox="0 0 18 18" fill="none" xmlns="http://www.w3.org/2000/svg">
<path d="M3.45977 0.984375H1.68789C1.04102 0.984375 0.478516 1.51875 0.478516 2.19375V3.96563C0.478516 4.6125 1.01289 5.175 1.68789 5.175H3.45977C4.10664 5.175 4.66914 4.64063 4.66914 3.96563V2.16562C4.64102 1.51875 4.10664 0.984375 3.45977 0.984375ZM3.37539 3.88125H1.77227V2.25H3.37539V3.88125Z" fill="#DEE4EE"/>
<path d="M7.22891 3.7127H16.8758C17.2133 3.7127 17.5227 3.43145 17.5227 3.06582C17.5227 2.7002 17.2414 2.41895 16.8758 2.41895H7.22891C6.89141 2.41895 6.58203 2.7002 6.58203 3.06582C6.58203 3.43145 6.89141 3.7127 7.22891 3.7127Z" fill="#DEE4EE"/>
<path d="M3.45977 6.75H1.68789C1.04102 6.75 0.478516 7.28437 0.478516 7.95937V9.73125C0.478516 10.3781 1.01289 10.9406 1.68789 10.9406H3.45977C4.10664 10.9406 4.66914 10.4062 4.66914 9.73125V7.95937C4.64102 7.28437 4.10664 6.75 3.45977 6.75ZM3.37539 9.64687H1.77227V8.01562H3.37539V9.64687Z" fill="#DEE4EE"/>
<path d="M16.8758 8.2124H7.22891C6.89141 8.2124 6.58203 8.49365 6.58203 8.85928C6.58203 9.2249 6.86328 9.47803 7.22891 9.47803H16.8758C17.2133 9.47803 17.5227 9.19678 17.5227 8.85928C17.5227 8.52178 17.2133 8.2124 16.8758 8.2124Z" fill="#DEE4EE"/>
<path d="M3.45977 12.853H1.68789C1.04102 12.853 0.478516 13.3874 0.478516 14.0624V15.8343C0.478516 16.4812 1.01289 17.0437 1.68789 17.0437H3.45977C4.10664 17.0437 4.66914 16.5093 4.66914 15.8343V14.0624C4.64102 13.3874 4.10664 12.853 3.45977 12.853ZM3.37539 15.7499H1.77227V14.1187H3.37539V15.7499Z" fill="#DEE4EE"/>
<path d="M16.8758 14.2876H7.22891C6.89141 14.2876 6.58203 14.5688 6.58203 14.9345C6.58203 15.3001 6.86328 15.5813 7.22891 15.5813H16.8758C17.2133 15.5813 17.5227 15.3001 17.5227 14.9345C17.5227 14.5688 17.2133 14.2876 16.8758 14.2876Z" fill="#DEE4EE"/>
</svg>
