<svg width="44" height="44" viewBox="0 0 44 44" fill="none" xmlns="http://www.w3.org/2000/svg">
<rect x="0.32666" y="0.133179" width="43.0221" height="43.0221" rx="21.511" fill="#FDE5DB"/>
<path fill-rule="evenodd" clip-rule="evenodd" d="M21.3306 10.7823C21.6436 10.5982 22.0317 10.5982 22.3447 10.7823L30.8447 15.7821C31.1501 15.9618 31.3376 16.2897 31.3376 16.6441V26.6441C31.3376 26.9985 31.1501 27.3264 30.8447 27.506L22.3447 32.5061C22.0317 32.6902 21.6436 32.6902 21.3306 32.5061L12.8306 27.506C12.5252 27.3264 12.3376 26.9985 12.3376 26.6441V16.6441C12.3376 16.2897 12.5252 15.9618 12.8306 15.7821L21.3306 10.7823ZM26.8376 18.6442C26.8376 18.0919 26.3899 17.6442 25.8376 17.6442C25.2854 17.6442 24.8376 18.0919 24.8376 18.6442V24.6442C24.8376 25.1965 25.2854 25.6442 25.8376 25.6442C26.3899 25.6442 26.8376 25.1965 26.8376 24.6442V18.6442ZM22.8376 20.6442C22.8376 20.0919 22.3899 19.6442 21.8376 19.6442C21.2854 19.6442 20.8376 20.0919 20.8376 20.6442V24.6442C20.8376 25.1965 21.2854 25.6442 21.8376 25.6442C22.3899 25.6442 22.8376 25.1965 22.8376 24.6442V20.6442ZM17.8376 21.6442C18.3899 21.6442 18.8376 22.0919 18.8376 22.6442V24.6442C18.8376 25.1965 18.3899 25.6442 17.8376 25.6442C17.2854 25.6442 16.8376 25.1965 16.8376 24.6442V22.6442C16.8376 22.0919 17.2854 21.6442 17.8376 21.6442Z" fill="#EA6B39"/>
</svg>
