<svg width="21" height="22" viewBox="0 0 21 22" fill="none" xmlns="http://www.w3.org/2000/svg">
<path fill-rule="evenodd" clip-rule="evenodd" d="M0 10.0225C0 4.77578 4.25332 0.522461 9.5 0.522461C14.7467 0.522461 19 4.77578 19 10.0225C19 12.2856 18.2086 14.3639 16.8875 15.9958L20.5607 19.6689C20.9512 20.0594 20.9512 20.6926 20.5607 21.0831C20.1701 21.4736 19.537 21.4736 19.1464 21.0831L15.4733 17.41C13.8414 18.7311 11.7631 19.5225 9.5 19.5225C4.25332 19.5225 0 15.2691 0 10.0225ZM9.5 2.52246C5.35788 2.52246 2 5.88035 2 10.0225C2 14.1646 5.35788 17.5225 9.5 17.5225C13.6421 17.5225 17 14.1646 17 10.0225C17 5.88035 13.6421 2.52246 9.5 2.52246ZM5.96447 5.98688C6.86823 5.08318 8.11959 4.52246 9.5 4.52246C10.8804 4.52246 12.1318 5.08318 13.0355 5.9869C13.426 6.37743 13.426 7.01059 13.0355 7.40112C12.645 7.79164 12.0118 7.79164 11.6213 7.40112C11.0773 6.85714 10.3287 6.52246 9.5 6.52246C8.67131 6.52246 7.92267 6.85714 7.37863 7.40114C6.98809 7.79165 6.35493 7.79163 5.96442 7.40109C5.57391 7.01056 5.57393 6.37739 5.96447 5.98688Z" fill="white"/>
</svg>
