<svg width="21" height="22" viewBox="0 0 21 22" fill="none" xmlns="http://www.w3.org/2000/svg">
<path fill-rule="evenodd" clip-rule="evenodd" d="M0 9.79614C0 4.54946 4.25332 0.296143 9.5 0.296143C14.7467 0.296143 19 4.54946 19 9.79614C19 12.0593 18.2086 14.1376 16.8875 15.7694L20.5607 19.4426C20.9512 19.8331 20.9512 20.4663 20.5607 20.8568C20.1701 21.2473 19.537 21.2473 19.1464 20.8568L15.4733 17.1837C13.8414 18.5048 11.7631 19.2961 9.5 19.2961C4.25332 19.2961 0 15.0428 0 9.79614ZM9.5 2.29614C5.35788 2.29614 2 5.65403 2 9.79614C2 13.9383 5.35788 17.2961 9.5 17.2961C13.6421 17.2961 17 13.9383 17 9.79614C17 5.65403 13.6421 2.29614 9.5 2.29614ZM5.96447 5.76056C6.86823 4.85686 8.11959 4.29614 9.5 4.29614C10.8804 4.29614 12.1318 4.85686 13.0355 5.76059C13.426 6.15111 13.426 6.78428 13.0355 7.1748C12.645 7.56532 12.0118 7.56532 11.6213 7.1748C11.0773 6.63083 10.3287 6.29614 9.5 6.29614C8.67131 6.29614 7.92267 6.63082 7.37863 7.17482C6.98809 7.56533 6.35493 7.56531 5.96442 7.17477C5.57391 6.78424 5.57393 6.15107 5.96447 5.76056Z" fill="#535959"/>
</svg>
