<svg width="20" height="21" viewBox="0 0 20 21" fill="none" xmlns="http://www.w3.org/2000/svg">
<path d="M17.1401 11.4624C17.1801 11.1624 17.2001 10.8524 17.2001 10.5224C17.2001 10.2024 17.1801 9.88236 17.1301 9.58236L19.1601 8.00236C19.3401 7.86236 19.3901 7.59236 19.2801 7.39236L17.3601 4.07236C17.2401 3.85236 16.9901 3.78236 16.7701 3.85236L14.3801 4.81236C13.8801 4.43236 13.3501 4.11236 12.7601 3.87236L12.4001 1.33236C12.3601 1.09236 12.1601 0.922363 11.9201 0.922363H8.08011C7.84011 0.922363 7.65011 1.09236 7.61011 1.33236L7.25011 3.87236C6.66011 4.11236 6.12011 4.44236 5.63011 4.81236L3.24011 3.85236C3.02011 3.77236 2.77011 3.85236 2.65011 4.07236L0.74011 7.39236C0.62011 7.60236 0.66011 7.86236 0.86011 8.00236L2.89011 9.58236C2.84011 9.88236 2.80011 10.2124 2.80011 10.5224C2.80011 10.8324 2.82011 11.1624 2.87011 11.4624L0.84011 13.0424C0.66011 13.1824 0.61011 13.4524 0.72011 13.6524L2.64011 16.9724C2.76011 17.1924 3.01011 17.2624 3.23011 17.1924L5.62011 16.2324C6.12011 16.6124 6.65011 16.9324 7.24011 17.1724L7.60011 19.7124C7.65011 19.9524 7.84011 20.1224 8.08011 20.1224H11.9201C12.1601 20.1224 12.3601 19.9524 12.3901 19.7124L12.7501 17.1724C13.3401 16.9324 13.8801 16.6124 14.3701 16.2324L16.7601 17.1924C16.9801 17.2724 17.2301 17.1924 17.3501 16.9724L19.2701 13.6524C19.3901 13.4324 19.3401 13.1824 19.1501 13.0424L17.1401 11.4624ZM10.0001 14.1224C8.02011 14.1224 6.40011 12.5024 6.40011 10.5224C6.40011 8.54236 8.02011 6.92236 10.0001 6.92236C11.9801 6.92236 13.6001 8.54236 13.6001 10.5224C13.6001 12.5024 11.9801 14.1224 10.0001 14.1224Z" fill="black" fill-opacity="0.56"/>
</svg>
