<svg width="19" height="20" viewBox="0 0 19 20" fill="none" xmlns="http://www.w3.org/2000/svg">
<path d="M13.8664 6.05592L7.82552 12.0968L4.53469 8.81508L3.24219 10.1076L7.82552 14.6909L15.1589 7.35758L13.8664 6.05592ZM9.65885 0.940918C4.59885 0.940918 0.492188 5.04758 0.492188 10.1076C0.492188 15.1676 4.59885 19.2743 9.65885 19.2743C14.7189 19.2743 18.8255 15.1676 18.8255 10.1076C18.8255 5.04758 14.7189 0.940918 9.65885 0.940918ZM9.65885 17.4409C5.60719 17.4409 2.32552 14.1593 2.32552 10.1076C2.32552 6.05592 5.60719 2.77425 9.65885 2.77425C13.7105 2.77425 16.9922 6.05592 16.9922 10.1076C16.9922 14.1593 13.7105 17.4409 9.65885 17.4409Z" fill="#2E7D32"/>
</svg>
