<svg width="19" height="20" viewBox="0 0 19 20" fill="none" xmlns="http://www.w3.org/2000/svg">
<path d="M8.74219 12.8576H10.5755V14.6909H8.74219V12.8576ZM8.74219 5.52425H10.5755V11.0243H8.74219V5.52425ZM9.64969 0.940918C4.58969 0.940918 0.492188 5.04758 0.492188 10.1076C0.492188 15.1676 4.58969 19.2743 9.64969 19.2743C14.7189 19.2743 18.8255 15.1676 18.8255 10.1076C18.8255 5.04758 14.7189 0.940918 9.64969 0.940918ZM9.65885 17.4409C5.60719 17.4409 2.32552 14.1593 2.32552 10.1076C2.32552 6.05592 5.60719 2.77425 9.65885 2.77425C13.7105 2.77425 16.9922 6.05592 16.9922 10.1076C16.9922 14.1593 13.7105 17.4409 9.65885 17.4409Z" fill="#D32F2F"/>
</svg>
