<svg width="16" height="23" viewBox="0 0 16 23" fill="none" xmlns="http://www.w3.org/2000/svg">
<path d="M6 4.5C6 3.94772 6.44772 3.5 7 3.5H9C9.55228 3.5 10 3.94772 10 4.5C10 5.05228 9.55228 5.5 9 5.5H7C6.44772 5.5 6 5.05228 6 4.5Z" fill="#20A049"/>
<path d="M6 17.5C5.44772 17.5 5 17.9477 5 18.5C5 19.0523 5.44772 19.5 6 19.5H10C10.5523 19.5 11 19.0523 11 18.5C11 17.9477 10.5523 17.5 10 17.5H6Z" fill="#20A049"/>
<path fill-rule="evenodd" clip-rule="evenodd" d="M0.5 3C0.5 1.61929 1.61929 0.5 3 0.5H13C14.3807 0.5 15.5 1.61929 15.5 3V20C15.5 21.3807 14.3807 22.5 13 22.5H3C1.61929 22.5 0.5 21.3807 0.5 20V3ZM3 2.5C2.72386 2.5 2.5 2.72386 2.5 3V20C2.5 20.2761 2.72386 20.5 3 20.5H13C13.2761 20.5 13.5 20.2761 13.5 20V3C13.5 2.72386 13.2761 2.5 13 2.5H3Z" fill="#20A049"/>
</svg>
